STARTFONT 2.1
FONT HAN-GB2312
SIZE 16 72 72
FONTBOUNDINGBOX 16 22 0 -5
COMMENT "Generated by fontforge, http://fontforge.sourceforge.net"
STARTPROPERTIES 1
BITCOUNT 1
ENDPROPERTIES
CHARS 7444
STARTCHAR zero
ENCODING 48
SWIDTH 1000 0
DWIDTH 12 0
BBX 10 15 2 0
BITMAP
1E00
3F00
7780
7380
E3C0
E1C0
E1C0
E1C0
E1C0
E1C0
E1C0
F380
7380
3F00
1E00
ENDCHAR
STARTCHAR one
ENCODING 49
SWIDTH 1000 0
DWIDTH 12 0
BBX 5 14 4 0
BITMAP
18
18
38
F8
F8
18
18
18
18
18
18
18
18
18
ENDCHAR
STARTCHAR two
ENCODING 50
SWIDTH 1000 0
DWIDTH 12 0
BBX 10 14 2 0
BITMAP
1E00
7F80
73C0
C1C0
01C0
03C0
0380
0780
0F00
0E00
1C00
3C00
FFC0
FFC0
ENDCHAR
STARTCHAR three
ENCODING 51
SWIDTH 1000 0
DWIDTH 12 0
BBX 10 15 2 0
BITMAP
1E00
3F80
73C0
F1C0
01C0
0380
0F80
1F80
03C0
01C0
01C0
E1C0
73C0
7F80
1E00
ENDCHAR
STARTCHAR four
ENCODING 52
SWIDTH 1000 0
DWIDTH 12 0
BBX 11 15 2 0
BITMAP
0380
0780
0780
0F80
1F80
1F80
3B80
7380
7380
E380
FFE0
0380
0380
0380
0380
ENDCHAR
STARTCHAR five
ENCODING 53
SWIDTH 1000 0
DWIDTH 12 0
BBX 10 14 2 0
BITMAP
7FC0
7000
7000
7000
7F00
FF80
E7C0
01C0
01C0
01C0
C3C0
C380
7F80
3F00
ENDCHAR
STARTCHAR six
ENCODING 54
SWIDTH 1000 0
DWIDTH 12 0
BBX 11 15 2 0
BITMAP
0700
0F00
0E00
1C00
3C00
3800
7F80
73C0
F1E0
E1E0
E1E0
F1E0
71C0
7F80
1F00
ENDCHAR
STARTCHAR seven
ENCODING 55
SWIDTH 1000 0
DWIDTH 12 0
BBX 10 14 2 0
BITMAP
FFC0
01C0
03C0
0380
0700
0700
0F00
0E00
0E00
1C00
1C00
1C00
3C00
3800
ENDCHAR
STARTCHAR eight
ENCODING 56
SWIDTH 1000 0
DWIDTH 12 0
BBX 10 15 2 0
BITMAP
1E00
7F80
F380
E1C0
E1C0
7380
7F80
7F80
F3C0
E1C0
E1C0
E1C0
F3C0
7F80
3F00
ENDCHAR
STARTCHAR nine
ENCODING 57
SWIDTH 1000 0
DWIDTH 12 0
BBX 10 15 2 0
BITMAP
1E00
7F80
F3C0
E3C0
E1C0
E1C0
E3C0
F780
7F80
0700
0F00
0E00
1E00
1C00
3800
ENDCHAR
STARTCHAR A
ENCODING 65
SWIDTH 1000 0
DWIDTH 12 0
BBX 11 15 2 0
BITMAP
0E00
0F00
0F00
1F00
1F80
1F80
3F80
3B80
3BC0
3FC0
79C0
71E0
71E0
F0E0
F0E0
ENDCHAR
STARTCHAR B
ENCODING 66
SWIDTH 1000 0
DWIDTH 12 0
BBX 10 14 2 0
BITMAP
FF80
F3C0
F1C0
F1C0
F3C0
FF80
FF80
F3C0
F0C0
F0C0
F0C0
F1C0
FF80
FE00
ENDCHAR
STARTCHAR C
ENCODING 67
SWIDTH 1000 0
DWIDTH 12 0
BBX 10 15 2 -1
BITMAP
0E00
3F80
7BC0
71C0
F1C0
F1C0
E000
E000
E000
F1C0
F1C0
F1C0
7BC0
3F80
1F00
ENDCHAR
STARTCHAR D
ENCODING 68
SWIDTH 1000 0
DWIDTH 12 0
BBX 10 14 2 0
BITMAP
FF00
F780
F3C0
F3C0
F1C0
F1C0
F1C0
F1C0
F1C0
F1C0
F3C0
F780
FF00
FC00
ENDCHAR
STARTCHAR E
ENCODING 69
SWIDTH 1000 0
DWIDTH 12 0
BBX 10 14 3 0
BITMAP
FFC0
F000
F000
F000
F000
FF80
FF80
F000
F000
F000
F000
F000
FFC0
FFC0
ENDCHAR
STARTCHAR F
ENCODING 70
SWIDTH 1000 0
DWIDTH 12 0
BBX 10 14 2 0
BITMAP
FFC0
F000
F000
F000
F000
F000
FF80
F000
F000
F000
F000
F000
F000
F000
ENDCHAR
STARTCHAR G
ENCODING 71
SWIDTH 1000 0
DWIDTH 12 0
BBX 10 15 2 0
BITMAP
0E00
3F80
7B80
71C0
F1C0
F000
E000
E000
EFC0
F1C0
F1C0
F1C0
7BC0
3FC0
1FC0
ENDCHAR
STARTCHAR H
ENCODING 72
SWIDTH 1000 0
DWIDTH 12 0
BBX 10 14 2 0
BITMAP
F1C0
F1C0
F1C0
F1C0
F1C0
FFC0
FFC0
F1C0
F1C0
F1C0
F1C0
F1C0
F1C0
F1C0
ENDCHAR
STARTCHAR I
ENCODING 73
SWIDTH 1000 0
DWIDTH 6 0
BBX 4 14 2 0
BITMAP
F0
F0
F0
F0
F0
F0
F0
F0
F0
F0
F0
F0
F0
F0
ENDCHAR
STARTCHAR J
ENCODING 74
SWIDTH 1000 0
DWIDTH 12 0
BBX 10 14 2 0
BITMAP
01C0
01C0
01C0
01C0
01C0
01C0
01C0
01C0
F1C0
F1C0
F3C0
73C0
7F80
1E00
ENDCHAR
STARTCHAR K
ENCODING 75
SWIDTH 1000 0
DWIDTH 12 0
BBX 11 14 2 0
BITMAP
F3C0
F780
FF00
FE00
FE00
FC00
FE00
FE00
FF00
F780
F780
F3C0
F1C0
F1E0
ENDCHAR
STARTCHAR L
ENCODING 76
SWIDTH 1000 0
DWIDTH 12 0
BBX 10 14 2 0
BITMAP
F000
F000
F000
F000
F000
F000
F000
F000
F000
F000
F000
F000
FFC0
FFC0
ENDCHAR
STARTCHAR M
ENCODING 77
SWIDTH 1000 0
DWIDTH 12 0
BBX 10 14 2 0
BITMAP
E1C0
E1C0
F3C0
F3C0
FFC0
FFC0
FFC0
FFC0
FFC0
FFC0
EDC0
EDC0
EDC0
CCC0
ENDCHAR
STARTCHAR N
ENCODING 78
SWIDTH 1000 0
DWIDTH 12 0
BBX 10 14 2 0
BITMAP
F1C0
F1C0
F9C0
F9C0
FDC0
FDC0
FFC0
EFC0
EFC0
E7C0
E7C0
E3C0
E3C0
E1C0
ENDCHAR
STARTCHAR O
ENCODING 79
SWIDTH 1000 0
DWIDTH 12 0
BBX 10 15 2 0
BITMAP
1E00
7F00
F780
F3C0
E3C0
E1C0
E1C0
E1C0
E1C0
E1C0
E3C0
E3C0
F380
7F80
1E00
ENDCHAR
STARTCHAR P
ENCODING 80
SWIDTH 1000 0
DWIDTH 12 0
BBX 10 14 2 0
BITMAP
FF80
F3C0
F1C0
F1C0
F1C0
F1C0
F7C0
FF80
F000
F000
F000
F000
F000
F000
ENDCHAR
STARTCHAR Q
ENCODING 81
SWIDTH 1000 0
DWIDTH 12 0
BBX 10 16 2 0
BITMAP
1E00
3F80
7BC0
F3C0
F1C0
E1C0
E1C0
E1C0
E1C0
E7C0
FFC0
F7C0
73C0
7F80
1FC0
0180
ENDCHAR
STARTCHAR R
ENCODING 82
SWIDTH 1000 0
DWIDTH 12 0
BBX 11 14 2 0
BITMAP
FF80
F3C0
F1C0
F1C0
F1C0
F3C0
FF80
FF00
F700
F780
F380
F3C0
F1C0
F1E0
ENDCHAR
STARTCHAR S
ENCODING 83
SWIDTH 1000 0
DWIDTH 12 0
BBX 10 15 2 0
BITMAP
1E00
7F80
7380
F3C0
F000
7000
7C00
1F00
0780
03C0
E1C0
E1C0
F3C0
7F80
1F00
ENDCHAR
STARTCHAR T
ENCODING 84
SWIDTH 1000 0
DWIDTH 12 0
BBX 10 14 2 0
BITMAP
FFC0
FFC0
1E00
1E00
1E00
1E00
1E00
1E00
1E00
1E00
1E00
1E00
1E00
1E00
ENDCHAR
STARTCHAR U
ENCODING 85
SWIDTH 1000 0
DWIDTH 12 0
BBX 10 14 2 0
BITMAP
F1C0
F1C0
F1C0
F1C0
F1C0
F1C0
F1C0
F1C0
F1C0
F1C0
F1C0
73C0
7F80
1F00
ENDCHAR
STARTCHAR V
ENCODING 86
SWIDTH 1000 0
DWIDTH 12 0
BBX 11 14 2 0
BITMAP
E1E0
E1C0
F1C0
73C0
7380
7380
7F80
3F00
3F00
3F00
1F00
1E00
1E00
1E00
ENDCHAR
STARTCHAR W
ENCODING 87
SWIDTH 1000 0
DWIDTH 12 0
BBX 11 14 4 0
BITMAP
CCE0
CCE0
CCC0
CCC0
CCC0
CCC0
EDC0
FFC0
FFC0
7FC0
7F80
7B80
7380
7380
ENDCHAR
STARTCHAR X
ENCODING 88
SWIDTH 1000 0
DWIDTH 12 0
BBX 11 14 2 0
BITMAP
79E0
39C0
3F80
1F80
1F00
0F00
0F00
0F00
1F80
1F80
3BC0
79C0
71E0
F0E0
ENDCHAR
STARTCHAR Y
ENCODING 89
SWIDTH 1000 0
DWIDTH 12 0
BBX 11 14 2 0
BITMAP
E1E0
73C0
7380
3F80
3F00
1F00
1E00
1E00
1E00
1E00
1E00
1E00
1E00
1E00
ENDCHAR
STARTCHAR Z
ENCODING 90
SWIDTH 1000 0
DWIDTH 12 0
BBX 10 14 2 0
BITMAP
FFC0
03C0
0380
0780
0700
0E00
1E00
1C00
3C00
3800
7000
F000
FFC0
FFC0
ENDCHAR
STARTCHAR a
ENCODING 97
SWIDTH 1000 0
DWIDTH 12 0
BBX 10 10 2 0
BITMAP
3F00
FF80
F380
03C0
3FC0
7BC0
F3C0
F3C0
FFC0
3DC0
ENDCHAR
STARTCHAR b
ENCODING 98
SWIDTH 1000 0
DWIDTH 12 0
BBX 10 14 2 0
BITMAP
E000
E000
E000
E000
F000
FF80
F3C0
F1C0
E1C0
E1C0
F1C0
F3C0
FF80
FE00
ENDCHAR
STARTCHAR c
ENCODING 99
SWIDTH 1000 0
DWIDTH 12 0
BBX 10 10 2 0
BITMAP
1F00
7F80
73C0
F000
E000
E000
F1C0
73C0
7F80
1F00
ENDCHAR
STARTCHAR d
ENCODING 100
SWIDTH 1000 0
DWIDTH 12 0
BBX 10 14 2 0
BITMAP
01C0
01C0
01C0
01C0
3FC0
7FC0
F3C0
E3C0
E1C0
E1C0
E3C0
F3C0
7FC0
1FC0
ENDCHAR
STARTCHAR e
ENCODING 101
SWIDTH 1000 0
DWIDTH 12 0
BBX 10 10 2 0
BITMAP
1F00
7F80
73C0
F1C0
FFC0
E000
F1C0
73C0
7F80
1F00
ENDCHAR
STARTCHAR f
ENCODING 102
SWIDTH 1000 0
DWIDTH 12 0
BBX 10 15 2 0
BITMAP
0780
0FC0
1C00
1C00
1C00
FF80
FF80
1C00
1C00
1C00
1C00
1C00
1C00
1C00
1C00
ENDCHAR
STARTCHAR g
ENCODING 103
SWIDTH 1000 0
DWIDTH 12 0
BBX 11 13 2 -5
BITMAP
1FE0
7FE0
7380
7380
7780
3F00
7E00
7000
7F80
E1C0
E1C0
FFC0
1E00
ENDCHAR
STARTCHAR h
ENCODING 104
SWIDTH 1000 0
DWIDTH 12 0
BBX 10 14 2 0
BITMAP
F000
F000
F000
F000
FF00
FFC0
F9C0
F1C0
F1C0
F1C0
F1C0
F1C0
F1C0
F1C0
ENDCHAR
STARTCHAR i
ENCODING 105
SWIDTH 1000 0
DWIDTH 6 0
BBX 3 14 2 0
BITMAP
E0
E0
00
00
E0
E0
E0
E0
E0
E0
E0
E0
E0
E0
ENDCHAR
STARTCHAR j
ENCODING 106
SWIDTH 1000 0
DWIDTH 12 0
BBX 7 17 2 -2
BITMAP
0E
0E
00
00
0E
0E
0E
0E
0E
0E
0E
0E
0E
0E
0E
FE
78
ENDCHAR
STARTCHAR k
ENCODING 107
SWIDTH 1000 0
DWIDTH 12 0
BBX 10 14 2 0
BITMAP
F000
F000
F000
F000
F3C0
F780
FF00
FE00
FE00
FF00
F700
F380
F3C0
F1C0
ENDCHAR
STARTCHAR l
ENCODING 108
SWIDTH 1000 0
DWIDTH 6 0
BBX 3 14 2 0
BITMAP
E0
E0
E0
E0
E0
E0
E0
E0
E0
E0
E0
E0
E0
E0
ENDCHAR
STARTCHAR m
ENCODING 109
SWIDTH 1000 0
DWIDTH 12 0
BBX 11 10 2 0
BITMAP
FFC0
FFE0
EEE0
EEE0
EEE0
EEE0
EEE0
EEE0
EEE0
EEE0
ENDCHAR
STARTCHAR n
ENCODING 110
SWIDTH 1000 0
DWIDTH 12 0
BBX 10 10 2 0
BITMAP
FF00
FFC0
F9C0
F1C0
F1C0
F1C0
F1C0
F1C0
F1C0
F1C0
ENDCHAR
STARTCHAR o
ENCODING 111
SWIDTH 1000 0
DWIDTH 12 0
BBX 10 10 2 0
BITMAP
1E00
7F80
F380
E3C0
E1C0
E1C0
E3C0
F380
7F80
1E00
ENDCHAR
STARTCHAR p
ENCODING 112
SWIDTH 1000 0
DWIDTH 12 0
BBX 10 14 2 -4
BITMAP
FF00
FF80
F3C0
F1C0
E1C0
E1C0
F1C0
F3C0
FF80
FF00
E000
E000
E000
E000
ENDCHAR
STARTCHAR q
ENCODING 113
SWIDTH 1000 0
DWIDTH 12 0
BBX 10 13 2 -3
BITMAP
3FC0
7FC0
F3C0
E3C0
E1C0
E1C0
E3C0
F3C0
7FC0
3FC0
01C0
01C0
01C0
ENDCHAR
STARTCHAR r
ENCODING 114
SWIDTH 1000 0
DWIDTH 12 0
BBX 8 10 2 0
BITMAP
E3
F7
FF
FE
FC
F8
F0
F0
F0
F0
ENDCHAR
STARTCHAR s
ENCODING 115
SWIDTH 1000 0
DWIDTH 12 0
BBX 9 10 2 0
BITMAP
3E00
FF00
E700
E000
FC00
1F00
0780
E780
FF00
3E00
ENDCHAR
STARTCHAR t
ENCODING 116
SWIDTH 1000 0
DWIDTH 12 0
BBX 10 13 2 0
BITMAP
1C00
1C00
1C00
FF80
FF80
1C00
1C00
1C00
1C00
1C00
1C00
1FC0
0F80
ENDCHAR
STARTCHAR u
ENCODING 117
SWIDTH 1000 0
DWIDTH 12 0
BBX 10 10 2 0
BITMAP
F1C0
F1C0
F1C0
F1C0
F1C0
F1C0
F3C0
F3C0
7FC0
3DC0
ENDCHAR
STARTCHAR v
ENCODING 118
SWIDTH 1000 0
DWIDTH 12 0
BBX 10 10 2 0
BITMAP
E1C0
E3C0
7380
7380
7780
3F00
3F00
3E00
1E00
1E00
ENDCHAR
STARTCHAR w
ENCODING 119
SWIDTH 1000 0
DWIDTH 12 0
BBX 11 10 2 0
BITMAP
EE60
EEE0
6EE0
7FE0
7FE0
7FE0
7FC0
3FC0
3BC0
39C0
ENDCHAR
STARTCHAR x
ENCODING 120
SWIDTH 1000 0
DWIDTH 12 0
BBX 10 10 2 0
BITMAP
F3C0
7380
3F00
3F00
1E00
1E00
3F00
7F80
7380
E3C0
ENDCHAR
STARTCHAR y
ENCODING 121
SWIDTH 1000 0
DWIDTH 12 0
BBX 10 13 2 -3
BITMAP
E1C0
F1C0
7380
7380
7F80
3F00
3F00
1F00
1E00
1E00
1C00
7C00
7800
ENDCHAR
STARTCHAR z
ENCODING 122
SWIDTH 1000 0
DWIDTH 12 0
BBX 10 10 2 0
BITMAP
7F80
7F80
0780
0F00
0E00
1C00
3800
7800
FFC0
FFC0
ENDCHAR
STARTCHAR $00A4
ENCODING 164
SWIDTH 1000 0
DWIDTH 16 0
BBX 13 13 1 0
BITMAP
8F88
5050
2020
4010
8008
8008
8008
8008
8008
4010
2020
5050
8F88
ENDCHAR
STARTCHAR $00A7
ENCODING 167
SWIDTH 1000 0
DWIDTH 16 0
BBX 5 13 5 0
BITMAP
70
88
80
40
60
90
88
48
30
10
08
88
70
ENDCHAR
STARTCHAR $00A8
ENCODING 168
SWIDTH 1000 0
DWIDTH 16 0
BBX 6 2 5 10
BITMAP
CC
CC
ENDCHAR
STARTCHAR $00B0
ENCODING 176
SWIDTH 1000 0
DWIDTH 16 0
BBX 4 4 1 9
BITMAP
60
90
90
60
ENDCHAR
STARTCHAR $00B1
ENCODING 177
SWIDTH 1000 0
DWIDTH 16 0
BBX 11 13 2 0
BITMAP
0400
0400
0400
0400
0400
FFE0
0400
0400
0400
0400
0400
0000
FFE0
ENDCHAR
STARTCHAR $00B7
ENCODING 183
SWIDTH 1000 0
DWIDTH 16 0
BBX 3 3 6 5
BITMAP
E0
E0
E0
ENDCHAR
STARTCHAR $00D7
ENCODING 215
SWIDTH 1000 0
DWIDTH 16 0
BBX 9 9 3 2
BITMAP
8080
4100
2200
1400
0800
1400
2200
4100
8080
ENDCHAR
STARTCHAR $00E0
ENCODING 224
SWIDTH 1000 0
DWIDTH 9 0
BBX 1 1 7 -1
BITMAP
00
ENDCHAR
STARTCHAR $00E1
ENCODING 225
SWIDTH 1000 0
DWIDTH 9 0
BBX 1 1 7 -1
BITMAP
00
ENDCHAR
STARTCHAR $00E8
ENCODING 232
SWIDTH 1000 0
DWIDTH 8 0
BBX 1 1 7 0
BITMAP
00
ENDCHAR
STARTCHAR $00E9
ENCODING 233
SWIDTH 1000 0
DWIDTH 8 0
BBX 1 1 7 0
BITMAP
00
ENDCHAR
STARTCHAR $00EA
ENCODING 234
SWIDTH 1000 0
DWIDTH 8 0
BBX 1 1 7 0
BITMAP
00
ENDCHAR
STARTCHAR $00EC
ENCODING 236
SWIDTH 1000 0
DWIDTH 8 0
BBX 1 1 5 0
BITMAP
00
ENDCHAR
STARTCHAR $00ED
ENCODING 237
SWIDTH 1000 0
DWIDTH 8 0
BBX 1 1 5 0
BITMAP
00
ENDCHAR
STARTCHAR $00F2
ENCODING 242
SWIDTH 1000 0
DWIDTH 8 0
BBX 1 1 7 0
BITMAP
00
ENDCHAR
STARTCHAR $00F3
ENCODING 243
SWIDTH 1000 0
DWIDTH 8 0
BBX 1 1 7 0
BITMAP
00
ENDCHAR
STARTCHAR $00F7
ENCODING 247
SWIDTH 1000 0
DWIDTH 16 0
BBX 12 9 2 2
BITMAP
0600
0600
0000
0000
FFF0
0000
0000
0600
0600
ENDCHAR
STARTCHAR $00F9
ENCODING 249
SWIDTH 1000 0
DWIDTH 9 0
BBX 1 1 7 0
BITMAP
00
ENDCHAR
STARTCHAR $00FA
ENCODING 250
SWIDTH 1000 0
DWIDTH 9 0
BBX 1 1 7 0
BITMAP
00
ENDCHAR
STARTCHAR $00FC
ENCODING 252
SWIDTH 1000 0
DWIDTH 9 0
BBX 1 1 7 0
BITMAP
00
ENDCHAR
STARTCHAR $0101
ENCODING 257
SWIDTH 1000 0
DWIDTH 9 0
BBX 1 1 7 -1
BITMAP
00
ENDCHAR
STARTCHAR $0113
ENCODING 275
SWIDTH 1000 0
DWIDTH 8 0
BBX 1 1 7 0
BITMAP
00
ENDCHAR
STARTCHAR $011B
ENCODING 283
SWIDTH 1000 0
DWIDTH 8 0
BBX 1 1 7 0
BITMAP
00
ENDCHAR
STARTCHAR $012B
ENCODING 299
SWIDTH 1000 0
DWIDTH 8 0
BBX 1 1 5 0
BITMAP
00
ENDCHAR
STARTCHAR $0144
ENCODING 324
SWIDTH 1000 0
DWIDTH 9 0
BBX 1 8 8 0
BITMAP
C8
44
44
44
44
44
44
44
ENDCHAR
STARTCHAR $0148
ENCODING 328
SWIDTH 1000 0
DWIDTH 9 0
BBX 1 8 8 0
BITMAP
C8
44
44
44
44
44
44
44
ENDCHAR
STARTCHAR $014D
ENCODING 333
SWIDTH 1000 0
DWIDTH 8 0
BBX 1 1 7 0
BITMAP
00
ENDCHAR
STARTCHAR $016B
ENCODING 363
SWIDTH 1000 0
DWIDTH 9 0
BBX 1 1 7 0
BITMAP
00
ENDCHAR
STARTCHAR $01CE
ENCODING 462
SWIDTH 1000 0
DWIDTH 9 0
BBX 1 1 7 -1
BITMAP
00
ENDCHAR
STARTCHAR $01D0
ENCODING 464
SWIDTH 1000 0
DWIDTH 8 0
BBX 1 1 5 0
BITMAP
00
ENDCHAR
STARTCHAR $01D2
ENCODING 466
SWIDTH 1000 0
DWIDTH 8 0
BBX 1 1 7 0
BITMAP
00
ENDCHAR
STARTCHAR $01D4
ENCODING 468
SWIDTH 1000 0
DWIDTH 9 0
BBX 1 1 7 0
BITMAP
00
ENDCHAR
STARTCHAR $01D6
ENCODING 470
SWIDTH 1000 0
DWIDTH 9 0
BBX 1 1 7 0
BITMAP
00
ENDCHAR
STARTCHAR $01D8
ENCODING 472
SWIDTH 1000 0
DWIDTH 9 0
BBX 1 1 7 0
BITMAP
00
ENDCHAR
STARTCHAR $01DA
ENCODING 474
SWIDTH 1000 0
DWIDTH 9 0
BBX 1 1 7 0
BITMAP
00
ENDCHAR
STARTCHAR $01DC
ENCODING 476
SWIDTH 1000 0
DWIDTH 9 0
BBX 1 1 7 0
BITMAP
00
ENDCHAR
STARTCHAR $0251
ENCODING 593
SWIDTH 1000 0
DWIDTH 9 0
BBX 1 1 7 -1
BITMAP
00
ENDCHAR
STARTCHAR $0261
ENCODING 609
SWIDTH 1000 0
DWIDTH 9 0
BBX 1 1 7 -2
BITMAP
00
ENDCHAR
STARTCHAR $02C7
ENCODING 711
SWIDTH 1000 0
DWIDTH 16 0
BBX 5 3 5 9
BITMAP
88
50
20
ENDCHAR
STARTCHAR $02C9
ENCODING 713
SWIDTH 1000 0
DWIDTH 16 0
BBX 5 1 5 11
BITMAP
F8
ENDCHAR
STARTCHAR $0391
ENCODING 913
SWIDTH 1000 0
DWIDTH 16 0
BBX 10 10 2 2
BITMAP
0800
0800
0C00
1400
1200
2200
3F00
2100
4080
E1C0
ENDCHAR
STARTCHAR $0392
ENCODING 914
SWIDTH 1000 0
DWIDTH 16 0
BBX 8 10 4 2
BITMAP
FE
41
41
41
7E
41
41
41
41
FE
ENDCHAR
STARTCHAR $0393
ENCODING 915
SWIDTH 1000 0
DWIDTH 16 0
BBX 8 10 4 2
BITMAP
FF
41
41
40
40
40
40
40
40
E0
ENDCHAR
STARTCHAR $0394
ENCODING 916
SWIDTH 1000 0
DWIDTH 16 0
BBX 9 10 3 2
BITMAP
0800
0800
1400
1400
2200
2200
4100
4100
8080
FF80
ENDCHAR
STARTCHAR $0395
ENCODING 917
SWIDTH 1000 0
DWIDTH 16 0
BBX 8 10 4 2
BITMAP
FF
41
40
48
78
48
40
40
41
FF
ENDCHAR
STARTCHAR $0396
ENCODING 918
SWIDTH 1000 0
DWIDTH 16 0
BBX 9 10 3 2
BITMAP
7F00
4100
8200
0400
0800
0800
1000
2080
4080
7F00
ENDCHAR
STARTCHAR $0397
ENCODING 919
SWIDTH 1000 0
DWIDTH 16 0
BBX 9 10 3 2
BITMAP
E380
4100
4100
4100
7F00
4100
4100
4100
4100
E380
ENDCHAR
STARTCHAR $0398
ENCODING 920
SWIDTH 1000 0
DWIDTH 16 0
BBX 9 10 3 2
BITMAP
3E00
4100
8080
A280
BE80
A280
8080
8080
4100
3E00
ENDCHAR
STARTCHAR $0399
ENCODING 921
SWIDTH 1000 0
DWIDTH 16 0
BBX 3 10 6 2
BITMAP
E0
40
40
40
40
40
40
40
40
E0
ENDCHAR
STARTCHAR $039A
ENCODING 922
SWIDTH 1000 0
DWIDTH 16 0
BBX 9 10 3 2
BITMAP
E380
4200
4400
4800
5000
6800
4400
4200
4100
E380
ENDCHAR
STARTCHAR $039B
ENCODING 923
SWIDTH 1000 0
DWIDTH 16 0
BBX 9 10 3 2
BITMAP
0800
0800
1400
1400
1400
2200
2200
2200
4100
E380
ENDCHAR
STARTCHAR $039C
ENCODING 924
SWIDTH 1000 0
DWIDTH 16 0
BBX 11 10 2 2
BITMAP
E0E0
60C0
5140
5140
5140
4A40
4A40
4440
4440
E0E0
ENDCHAR
STARTCHAR $039D
ENCODING 925
SWIDTH 1000 0
DWIDTH 16 0
BBX 9 10 3 2
BITMAP
C180
4100
6100
5100
4900
4D00
4700
4300
4100
E100
ENDCHAR
STARTCHAR $039E
ENCODING 926
SWIDTH 1000 0
DWIDTH 16 0
BBX 8 10 4 2
BITMAP
FF
81
00
00
42
7E
42
00
81
FF
ENDCHAR
STARTCHAR $039F
ENCODING 927
SWIDTH 1000 0
DWIDTH 16 0
BBX 9 10 3 2
BITMAP
1C00
2200
4100
8080
8080
8080
8080
4100
2200
1C00
ENDCHAR
STARTCHAR $03A0
ENCODING 928
SWIDTH 1000 0
DWIDTH 16 0
BBX 10 10 3 2
BITMAP
FFC0
4080
4080
4080
4080
4080
4080
4080
4080
E1C0
ENDCHAR
STARTCHAR $03A1
ENCODING 929
SWIDTH 1000 0
DWIDTH 16 0
BBX 9 10 3 2
BITMAP
FF00
2080
2080
2080
2100
3E00
2000
2000
2000
7000
ENDCHAR
STARTCHAR $03A3
ENCODING 931
SWIDTH 1000 0
DWIDTH 16 0
BBX 9 10 3 2
BITMAP
FF80
4080
2000
1000
0800
0800
1000
2000
4080
FF80
ENDCHAR
STARTCHAR $03A4
ENCODING 932
SWIDTH 1000 0
DWIDTH 16 0
BBX 9 10 3 2
BITMAP
FF80
8880
0800
0800
0800
0800
0800
0800
0800
1C00
ENDCHAR
STARTCHAR $03A5
ENCODING 933
SWIDTH 1000 0
DWIDTH 16 0
BBX 9 10 3 2
BITMAP
6300
9480
0800
0800
0800
0800
0800
0800
0800
1C00
ENDCHAR
STARTCHAR $03A6
ENCODING 934
SWIDTH 1000 0
DWIDTH 16 0
BBX 11 10 2 2
BITMAP
0E00
0400
3F80
4440
8420
8420
4440
3F80
0400
0E00
ENDCHAR
STARTCHAR $03A7
ENCODING 935
SWIDTH 1000 0
DWIDTH 16 0
BBX 9 10 3 2
BITMAP
E180
4100
2200
1400
0800
0800
1400
2200
4100
C180
ENDCHAR
STARTCHAR $03A8
ENCODING 936
SWIDTH 1000 0
DWIDTH 16 0
BBX 11 10 2 2
BITMAP
CE60
4440
4440
4440
4440
4440
3F80
0400
0400
0E00
ENDCHAR
STARTCHAR $03A9
ENCODING 937
SWIDTH 1000 0
DWIDTH 16 0
BBX 9 10 3 2
BITMAP
1C00
2200
4100
8080
8080
8080
4100
2200
9480
F780
ENDCHAR
STARTCHAR $03B1
ENCODING 945
SWIDTH 1000 0
DWIDTH 16 0
BBX 6 7 4 2
BITMAP
74
88
88
88
88
98
6C
ENDCHAR
STARTCHAR $03B2
ENCODING 946
SWIDTH 1000 0
DWIDTH 16 0
BBX 8 12 3 0
BITMAP
3C
42
42
42
5C
42
41
41
62
5C
40
E0
ENDCHAR
STARTCHAR $03B3
ENCODING 947
SWIDTH 1000 0
DWIDTH 16 0
BBX 7 9 4 0
BITMAP
C6
44
28
28
10
10
28
28
38
ENDCHAR
STARTCHAR $03B4
ENCODING 948
SWIDTH 1000 0
DWIDTH 16 0
BBX 6 11 5 2
BITMAP
70
88
80
40
30
48
84
84
84
88
70
ENDCHAR
STARTCHAR $03B5
ENCODING 949
SWIDTH 1000 0
DWIDTH 16 0
BBX 5 7 5 2
BITMAP
70
88
80
60
80
88
70
ENDCHAR
STARTCHAR $03B6
ENCODING 950
SWIDTH 1000 0
DWIDTH 16 0
BBX 6 12 4 0
BITMAP
38
48
10
20
40
80
80
80
78
04
04
18
ENDCHAR
STARTCHAR $03B7
ENCODING 951
SWIDTH 1000 0
DWIDTH 16 0
BBX 7 10 5 0
BITMAP
38
C4
44
44
44
44
44
E4
04
06
ENDCHAR
STARTCHAR $03B8
ENCODING 952
SWIDTH 1000 0
DWIDTH 16 0
BBX 5 10 5 2
BITMAP
70
88
88
88
F8
88
88
88
88
70
ENDCHAR
STARTCHAR $03B9
ENCODING 953
SWIDTH 1000 0
DWIDTH 16 0
BBX 4 7 5 2
BITMAP
C0
40
40
40
40
50
20
ENDCHAR
STARTCHAR $03BA
ENCODING 954
SWIDTH 1000 0
DWIDTH 16 0
BBX 6 7 4 2
BITMAP
E8
54
50
60
50
54
E8
ENDCHAR
STARTCHAR $03BB
ENCODING 955
SWIDTH 1000 0
DWIDTH 16 0
BBX 7 10 4 2
BITMAP
60
20
20
10
10
30
28
48
4A
C4
ENDCHAR
STARTCHAR $03BC
ENCODING 956
SWIDTH 1000 0
DWIDTH 16 0
BBX 7 9 4 0
BITMAP
88
88
88
88
88
8A
F4
80
80
ENDCHAR
STARTCHAR $03BD
ENCODING 957
SWIDTH 1000 0
DWIDTH 16 0
BBX 8 7 4 2
BITMAP
C7
42
24
24
18
10
10
ENDCHAR
STARTCHAR $03BE
ENCODING 958
SWIDTH 1000 0
DWIDTH 16 0
BBX 6 12 4 0
BITMAP
78
20
40
40
30
40
80
80
78
04
04
18
ENDCHAR
STARTCHAR $03BF
ENCODING 959
SWIDTH 1000 0
DWIDTH 16 0
BBX 6 7 5 2
BITMAP
30
48
84
84
84
48
30
ENDCHAR
STARTCHAR $03C0
ENCODING 960
SWIDTH 1000 0
DWIDTH 16 0
BBX 7 7 4 2
BITMAP
7E
A4
24
24
24
A4
46
ENDCHAR
STARTCHAR $03C1
ENCODING 961
SWIDTH 1000 0
DWIDTH 16 0
BBX 7 9 3 0
BITMAP
1C
22
42
42
42
62
5C
40
E0
ENDCHAR
STARTCHAR $03C3
ENCODING 963
SWIDTH 1000 0
DWIDTH 16 0
BBX 7 7 4 2
BITMAP
3E
48
84
84
84
48
30
ENDCHAR
STARTCHAR $03C4
ENCODING 964
SWIDTH 1000 0
DWIDTH 16 0
BBX 5 7 5 2
BITMAP
F8
A0
20
20
20
28
10
ENDCHAR
STARTCHAR $03C5
ENCODING 965
SWIDTH 1000 0
DWIDTH 16 0
BBX 6 7 5 2
BITMAP
DC
44
44
44
44
48
30
ENDCHAR
STARTCHAR $03C6
ENCODING 966
SWIDTH 1000 0
DWIDTH 16 0
BBX 9 12 3 0
BITMAP
1800
0800
0800
3E00
4900
8880
8880
8880
4900
3E00
0800
1C00
ENDCHAR
STARTCHAR $03C7
ENCODING 967
SWIDTH 1000 0
DWIDTH 16 0
BBX 7 7 4 2
BITMAP
CE
24
28
10
30
4A
86
ENDCHAR
STARTCHAR $03C8
ENCODING 968
SWIDTH 1000 0
DWIDTH 16 0
BBX 9 9 4 0
BITMAP
C980
4900
4900
4900
4900
4900
3E00
0800
1C00
ENDCHAR
STARTCHAR $03C9
ENCODING 969
SWIDTH 1000 0
DWIDTH 16 0
BBX 9 7 3 2
BITMAP
2200
4100
8080
8880
8880
4900
3600
ENDCHAR
STARTCHAR $0401
ENCODING 1025
SWIDTH 1000 0
DWIDTH 16 0
BBX 8 12 4 2
BITMAP
44
00
FF
41
41
48
78
48
40
41
41
FF
ENDCHAR
STARTCHAR $0410
ENCODING 1040
SWIDTH 1000 0
DWIDTH 16 0
BBX 9 10 3 2
BITMAP
0800
0800
1C00
1400
1400
2200
3E00
4100
4100
C380
ENDCHAR
STARTCHAR $0411
ENCODING 1041
SWIDTH 1000 0
DWIDTH 16 0
BBX 8 10 4 2
BITMAP
FF
41
40
40
7C
42
41
41
42
FC
ENDCHAR
STARTCHAR $0412
ENCODING 1042
SWIDTH 1000 0
DWIDTH 16 0
BBX 8 10 4 2
BITMAP
FE
41
41
41
7E
41
41
41
42
FC
ENDCHAR
STARTCHAR $0413
ENCODING 1043
SWIDTH 1000 0
DWIDTH 16 0
BBX 8 10 4 2
BITMAP
FF
41
40
40
40
40
40
40
40
E0
ENDCHAR
STARTCHAR $0414
ENCODING 1044
SWIDTH 1000 0
DWIDTH 16 0
BBX 11 11 2 1
BITMAP
3FC0
1080
1080
1080
1080
1080
1080
2080
2080
FFE0
8020
ENDCHAR
STARTCHAR $0415
ENCODING 1045
SWIDTH 1000 0
DWIDTH 16 0
BBX 8 10 4 2
BITMAP
FF
41
40
44
7C
44
40
40
41
FF
ENDCHAR
STARTCHAR $0416
ENCODING 1046
SWIDTH 1000 0
DWIDTH 16 0
BBX 13 10 1 2
BITMAP
6710
2220
2220
1240
0F80
1240
2220
2220
A228
4710
ENDCHAR
STARTCHAR $0417
ENCODING 1047
SWIDTH 1000 0
DWIDTH 16 0
BBX 7 10 4 2
BITMAP
BC
C2
82
04
38
04
02
82
84
78
ENDCHAR
STARTCHAR $0418
ENCODING 1048
SWIDTH 1000 0
DWIDTH 16 0
BBX 9 10 3 2
BITMAP
E380
4100
4300
4500
4900
5100
6100
4100
4100
E380
ENDCHAR
STARTCHAR $0419
ENCODING 1049
SWIDTH 1000 0
DWIDTH 16 0
BBX 9 12 3 2
BITMAP
1400
1C00
E380
4100
4100
4300
4500
4900
5100
6100
4100
E380
ENDCHAR
STARTCHAR $041A
ENCODING 1050
SWIDTH 1000 0
DWIDTH 16 0
BBX 9 10 3 2
BITMAP
E300
4500
4400
4400
7800
4400
4200
4200
4280
E100
ENDCHAR
STARTCHAR $041B
ENCODING 1051
SWIDTH 1000 0
DWIDTH 16 0
BBX 10 10 2 2
BITMAP
1FC0
0880
0880
0880
0880
0880
0880
1080
9080
61C0
ENDCHAR
STARTCHAR $041C
ENCODING 1052
SWIDTH 1000 0
DWIDTH 16 0
BBX 11 10 2 2
BITMAP
E0E0
60C0
5140
5140
5140
4A40
4A40
4440
4440
E0E0
ENDCHAR
STARTCHAR $041D
ENCODING 1053
SWIDTH 1000 0
DWIDTH 16 0
BBX 9 10 3 2
BITMAP
E380
4100
4100
4100
7F00
4100
4100
4100
4100
E380
ENDCHAR
STARTCHAR $041E
ENCODING 1054
SWIDTH 1000 0
DWIDTH 16 0
BBX 9 10 3 2
BITMAP
1C00
2200
4100
8080
8080
8080
8080
4100
2200
1C00
ENDCHAR
STARTCHAR $041F
ENCODING 1055
SWIDTH 1000 0
DWIDTH 16 0
BBX 9 10 3 2
BITMAP
FF80
4100
4100
4100
4100
4100
4100
4100
4100
E380
ENDCHAR
STARTCHAR $0420
ENCODING 1056
SWIDTH 1000 0
DWIDTH 16 0
BBX 8 10 4 2
BITMAP
FE
41
41
41
41
7E
40
40
40
E0
ENDCHAR
STARTCHAR $0421
ENCODING 1057
SWIDTH 1000 0
DWIDTH 16 0
BBX 8 10 4 2
BITMAP
3D
43
81
81
80
80
80
81
42
3C
ENDCHAR
STARTCHAR $0422
ENCODING 1058
SWIDTH 1000 0
DWIDTH 16 0
BBX 9 10 3 2
BITMAP
FF80
8880
0800
0800
0800
0800
0800
0800
0800
1C00
ENDCHAR
STARTCHAR $0423
ENCODING 1059
SWIDTH 1000 0
DWIDTH 16 0
BBX 9 10 3 2
BITMAP
C380
4100
2200
2200
1400
1400
0800
8800
9000
6000
ENDCHAR
STARTCHAR $0424
ENCODING 1060
SWIDTH 1000 0
DWIDTH 16 0
BBX 11 10 2 2
BITMAP
0E00
0400
3F80
4440
8420
8420
4440
3F80
0400
0E00
ENDCHAR
STARTCHAR $0425
ENCODING 1061
SWIDTH 1000 0
DWIDTH 16 0
BBX 9 10 3 2
BITMAP
E380
4100
2200
1400
0800
0800
1400
2200
4100
E380
ENDCHAR
STARTCHAR $0426
ENCODING 1062
SWIDTH 1000 0
DWIDTH 16 0
BBX 10 11 3 1
BITMAP
E380
4100
4100
4100
4100
4100
4100
4100
4100
FFC0
0040
ENDCHAR
STARTCHAR $0427
ENCODING 1063
SWIDTH 1000 0
DWIDTH 16 0
BBX 9 10 3 2
BITMAP
E380
4100
4100
4100
4300
3D00
0100
0100
0100
0380
ENDCHAR
STARTCHAR $0428
ENCODING 1064
SWIDTH 1000 0
DWIDTH 16 0
BBX 13 10 1 2
BITMAP
E738
4210
4210
4210
4210
4210
4210
4210
4210
FFF8
ENDCHAR
STARTCHAR $0429
ENCODING 1065
SWIDTH 1000 0
DWIDTH 16 0
BBX 14 12 1 0
BITMAP
E738
4210
4210
4210
4210
4210
4210
4210
4210
FFFC
0004
0004
ENDCHAR
STARTCHAR $042A
ENCODING 1066
SWIDTH 1000 0
DWIDTH 16 0
BBX 11 10 2 2
BITMAP
FC00
8800
0800
0800
0F80
0840
0820
0820
0840
1F80
ENDCHAR
STARTCHAR $042B
ENCODING 1067
SWIDTH 1000 0
DWIDTH 16 0
BBX 11 10 2 2
BITMAP
E0E0
4040
4040
4040
7C40
4240
4140
4140
4240
FCE0
ENDCHAR
STARTCHAR $042C
ENCODING 1068
SWIDTH 1000 0
DWIDTH 16 0
BBX 8 10 4 2
BITMAP
E0
40
40
40
7C
42
41
41
42
FC
ENDCHAR
STARTCHAR $042D
ENCODING 1069
SWIDTH 1000 0
DWIDTH 16 0
BBX 7 10 4 2
BITMAP
B8
C4
82
02
1E
02
02
82
84
78
ENDCHAR
STARTCHAR $042E
ENCODING 1070
SWIDTH 1000 0
DWIDTH 16 0
BBX 12 10 1 2
BITMAP
E3C0
4420
4810
4810
7810
4810
4810
4810
4420
E3C0
ENDCHAR
STARTCHAR $042F
ENCODING 1071
SWIDTH 1000 0
DWIDTH 16 0
BBX 8 10 3 2
BITMAP
3F
42
42
42
42
3E
12
22
22
C7
ENDCHAR
STARTCHAR $0430
ENCODING 1072
SWIDTH 1000 0
DWIDTH 16 0
BBX 6 7 4 2
BITMAP
70
88
08
78
88
88
74
ENDCHAR
STARTCHAR $0431
ENCODING 1073
SWIDTH 1000 0
DWIDTH 16 0
BBX 6 10 4 2
BITMAP
04
38
40
B0
C8
84
84
84
48
30
ENDCHAR
STARTCHAR $0432
ENCODING 1074
SWIDTH 1000 0
DWIDTH 16 0
BBX 6 7 4 2
BITMAP
F8
44
44
78
44
44
F8
ENDCHAR
STARTCHAR $0433
ENCODING 1075
SWIDTH 1000 0
DWIDTH 16 0
BBX 7 7 4 2
BITMAP
FE
42
40
40
40
40
E0
ENDCHAR
STARTCHAR $0434
ENCODING 1076
SWIDTH 1000 0
DWIDTH 16 0
BBX 7 8 4 1
BITMAP
7E
24
24
24
24
44
FE
82
ENDCHAR
STARTCHAR $0435
ENCODING 1077
SWIDTH 1000 0
DWIDTH 16 0
BBX 6 7 5 2
BITMAP
78
84
84
FC
80
44
38
ENDCHAR
STARTCHAR $0436
ENCODING 1078
SWIDTH 1000 0
DWIDTH 16 0
BBX 9 7 3 2
BITMAP
DD80
4900
2A00
1C00
2A00
4900
DD80
ENDCHAR
STARTCHAR $0437
ENCODING 1079
SWIDTH 1000 0
DWIDTH 16 0
BBX 5 7 5 2
BITMAP
B0
C8
08
30
88
88
70
ENDCHAR
STARTCHAR $0438
ENCODING 1080
SWIDTH 1000 0
DWIDTH 16 0
BBX 7 7 4 2
BITMAP
EE
44
4C
54
64
44
EE
ENDCHAR
STARTCHAR $0439
ENCODING 1081
SWIDTH 1000 0
DWIDTH 16 0
BBX 7 9 4 2
BITMAP
28
10
EE
44
4C
54
64
44
EE
ENDCHAR
STARTCHAR $043A
ENCODING 1082
SWIDTH 1000 0
DWIDTH 16 0
BBX 7 7 4 2
BITMAP
E4
4A
48
70
48
4A
E4
ENDCHAR
STARTCHAR $043B
ENCODING 1083
SWIDTH 1000 0
DWIDTH 16 0
BBX 7 7 4 2
BITMAP
7E
24
24
24
24
A4
CE
ENDCHAR
STARTCHAR $043C
ENCODING 1084
SWIDTH 1000 0
DWIDTH 16 0
BBX 9 7 3 2
BITMAP
C180
6300
6300
5500
5500
4900
CB80
ENDCHAR
STARTCHAR $043D
ENCODING 1085
SWIDTH 1000 0
DWIDTH 16 0
BBX 8 7 4 2
BITMAP
E7
42
42
7E
42
42
E7
ENDCHAR
STARTCHAR $043E
ENCODING 1086
SWIDTH 1000 0
DWIDTH 16 0
BBX 6 7 4 2
BITMAP
30
48
84
84
84
48
30
ENDCHAR
STARTCHAR $043F
ENCODING 1087
SWIDTH 1000 0
DWIDTH 16 0
BBX 7 7 4 2
BITMAP
FE
44
44
44
44
44
EE
ENDCHAR
STARTCHAR $0440
ENCODING 1088
SWIDTH 1000 0
DWIDTH 16 0
BBX 7 9 4 0
BITMAP
DC
62
42
42
42
62
5C
40
E0
ENDCHAR
STARTCHAR $0441
ENCODING 1089
SWIDTH 1000 0
DWIDTH 16 0
BBX 5 7 5 2
BITMAP
70
88
80
80
80
88
70
ENDCHAR
STARTCHAR $0442
ENCODING 1090
SWIDTH 1000 0
DWIDTH 16 0
BBX 7 7 4 2
BITMAP
FE
92
10
10
10
10
38
ENDCHAR
STARTCHAR $0443
ENCODING 1091
SWIDTH 1000 0
DWIDTH 16 0
BBX 7 9 4 0
BITMAP
EE
44
44
28
28
10
10
A0
C0
ENDCHAR
STARTCHAR $0444
ENCODING 1092
SWIDTH 1000 0
DWIDTH 16 0
BBX 9 13 3 0
BITMAP
0800
1800
0800
0800
6B00
9C80
8880
8880
8880
9C80
6B00
0800
1C00
ENDCHAR
STARTCHAR $0445
ENCODING 1093
SWIDTH 1000 0
DWIDTH 16 0
BBX 7 7 4 2
BITMAP
EE
44
28
10
28
44
EE
ENDCHAR
STARTCHAR $0446
ENCODING 1094
SWIDTH 1000 0
DWIDTH 16 0
BBX 7 8 4 1
BITMAP
EE
44
44
44
44
44
FE
02
ENDCHAR
STARTCHAR $0447
ENCODING 1095
SWIDTH 1000 0
DWIDTH 16 0
BBX 7 7 4 2
BITMAP
EE
44
44
4C
34
04
0E
ENDCHAR
STARTCHAR $0448
ENCODING 1096
SWIDTH 1000 0
DWIDTH 16 0
BBX 11 7 2 2
BITMAP
EEE0
4440
4440
4440
4440
4440
FFE0
ENDCHAR
STARTCHAR $0449
ENCODING 1097
SWIDTH 1000 0
DWIDTH 16 0
BBX 11 8 2 1
BITMAP
EEE0
4440
4440
4440
4440
4440
FFE0
0020
ENDCHAR
STARTCHAR $044A
ENCODING 1098
SWIDTH 1000 0
DWIDTH 16 0
BBX 9 7 3 2
BITMAP
F800
9000
1000
1F00
1080
1080
3F00
ENDCHAR
STARTCHAR $044B
ENCODING 1099
SWIDTH 1000 0
DWIDTH 16 0
BBX 9 7 3 2
BITMAP
E380
4100
4100
7900
4500
4500
FB80
ENDCHAR
STARTCHAR $044C
ENCODING 1100
SWIDTH 1000 0
DWIDTH 16 0
BBX 7 7 4 2
BITMAP
E0
40
40
7C
42
42
FC
ENDCHAR
STARTCHAR $044D
ENCODING 1101
SWIDTH 1000 0
DWIDTH 16 0
BBX 5 7 5 2
BITMAP
B0
C8
88
38
08
88
70
ENDCHAR
STARTCHAR $044E
ENCODING 1102
SWIDTH 1000 0
DWIDTH 16 0
BBX 9 7 3 2
BITMAP
E700
4880
4880
7880
4880
4880
E700
ENDCHAR
STARTCHAR $044F
ENCODING 1103
SWIDTH 1000 0
DWIDTH 16 0
BBX 7 7 4 2
BITMAP
3E
44
44
3C
24
A4
6E
ENDCHAR
STARTCHAR $0451
ENCODING 1105
SWIDTH 1000 0
DWIDTH 16 0
BBX 6 9 4 2
BITMAP
28
00
78
84
84
FC
80
44
38
ENDCHAR
STARTCHAR $2014
ENCODING 8212
SWIDTH 1000 0
DWIDTH 16 0
BBX 15 1 0 6
BITMAP
FFFE
ENDCHAR
STARTCHAR $2016
ENCODING 8214
SWIDTH 1000 0
DWIDTH 16 0
BBX 4 13 6 0
BITMAP
90
90
90
90
90
90
90
90
90
90
90
90
90
ENDCHAR
STARTCHAR $2018
ENCODING 8216
SWIDTH 1000 0
DWIDTH 16 0
BBX 2 5 11 8
BITMAP
40
80
80
C0
C0
ENDCHAR
STARTCHAR $2019
ENCODING 8217
SWIDTH 1000 0
DWIDTH 16 0
BBX 2 5 2 8
BITMAP
C0
C0
40
40
80
ENDCHAR
STARTCHAR $201C
ENCODING 8220
SWIDTH 1000 0
DWIDTH 16 0
BBX 6 5 7 8
BITMAP
44
88
88
CC
CC
ENDCHAR
STARTCHAR $201D
ENCODING 8221
SWIDTH 1000 0
DWIDTH 16 0
BBX 6 5 2 8
BITMAP
CC
CC
44
44
88
ENDCHAR
STARTCHAR $2026
ENCODING 8230
SWIDTH 1000 0
DWIDTH 16 0
BBX 12 2 2 5
BITMAP
C630
C630
ENDCHAR
STARTCHAR $2030
ENCODING 8240
SWIDTH 1000 0
DWIDTH 16 0
BBX 15 13 0 0
BITMAP
3000
4820
4840
4880
4900
3200
0400
098C
1252
2252
4252
8252
018C
ENDCHAR
STARTCHAR $2032
ENCODING 8242
SWIDTH 1000 0
DWIDTH 16 0
BBX 2 5 2 8
BITMAP
40
40
40
80
80
ENDCHAR
STARTCHAR $2033
ENCODING 8243
SWIDTH 1000 0
DWIDTH 16 0
BBX 5 5 2 8
BITMAP
48
48
48
90
90
ENDCHAR
STARTCHAR $203B
ENCODING 8251
SWIDTH 1000 0
DWIDTH 16 0
BBX 12 12 2 0
BITMAP
8610
4620
2040
1080
0900
C630
C630
0900
1080
2040
4620
8610
ENDCHAR
STARTCHAR $2103
ENCODING 8451
SWIDTH 1000 0
DWIDTH 16 0
BBX 13 12 1 1
BITMAP
E000
A3E0
E418
0808
1008
1000
1000
1000
1000
0808
0410
03E0
ENDCHAR
STARTCHAR $2116
ENCODING 8470
SWIDTH 1000 0
DWIDTH 16 0
BBX 13 11 1 1
BITMAP
C380
6100
6100
5130
5148
4948
4948
4548
4530
4300
E378
ENDCHAR
STARTCHAR $2160
ENCODING 8544
SWIDTH 1000 0
DWIDTH 16 0
BBX 3 13 6 0
BITMAP
E0
40
40
40
40
40
40
40
40
40
40
40
E0
ENDCHAR
STARTCHAR $2161
ENCODING 8545
SWIDTH 1000 0
DWIDTH 16 0
BBX 8 13 4 0
BITMAP
E7
42
42
42
42
42
42
42
42
42
42
42
E7
ENDCHAR
STARTCHAR $2162
ENCODING 8546
SWIDTH 1000 0
DWIDTH 16 0
BBX 13 13 1 0
BITMAP
E738
4210
4210
4210
4210
4210
4210
4210
4210
4210
4210
4210
E738
ENDCHAR
STARTCHAR $2163
ENCODING 8547
SWIDTH 1000 0
DWIDTH 16 0
BBX 13 13 2 0
BITMAP
EE38
4410
4410
4410
4220
4220
4220
4140
4140
4140
4080
4080
E080
ENDCHAR
STARTCHAR $2164
ENCODING 8548
SWIDTH 1000 0
DWIDTH 16 0
BBX 9 13 3 0
BITMAP
E380
4100
4100
4100
2200
2200
2200
1400
1400
1400
0800
0800
0800
ENDCHAR
STARTCHAR $2165
ENCODING 8549
SWIDTH 1000 0
DWIDTH 16 0
BBX 13 13 1 0
BITMAP
E3B8
4110
4110
4110
2210
2210
2210
1410
1410
1410
0810
0810
0838
ENDCHAR
STARTCHAR $2166
ENCODING 8550
SWIDTH 1000 0
DWIDTH 16 0
BBX 15 13 0 0
BITMAP
E3FE
4124
4124
4124
2224
2224
2224
1424
1424
1424
0824
0824
087E
ENDCHAR
STARTCHAR $2167
ENCODING 8551
SWIDTH 1000 0
DWIDTH 16 0
BBX 15 13 0 0
BITMAP
E3FE
4154
4154
4154
2254
2254
2254
1454
1454
1454
0854
0854
08FE
ENDCHAR
STARTCHAR $2168
ENCODING 8552
SWIDTH 1000 0
DWIDTH 16 0
BBX 14 13 1 0
BITMAP
EE38
4410
4210
4220
4140
4140
4080
4080
4140
4220
4220
4410
EE3C
ENDCHAR
STARTCHAR $2169
ENCODING 8553
SWIDTH 1000 0
DWIDTH 16 0
BBX 9 13 3 0
BITMAP
E380
4100
2200
2200
1400
1400
0800
0800
1400
1200
2200
4100
E380
ENDCHAR
STARTCHAR $216A
ENCODING 8554
SWIDTH 1000 0
DWIDTH 16 0
BBX 13 13 1 0
BITMAP
E3B8
4110
2110
2210
1210
1410
0810
0810
1410
1210
2210
4110
E3B8
ENDCHAR
STARTCHAR $216B
ENCODING 8555
SWIDTH 1000 0
DWIDTH 16 0
BBX 15 13 0 0
BITMAP
E3FE
4124
2124
2224
1224
1424
0824
0824
1424
1424
2224
4224
E77E
ENDCHAR
STARTCHAR $2170
ENCODING 8560
SWIDTH 1000 0
DWIDTH 16 0
BBX 3 12 6 1
BITMAP
40
40
00
00
C0
40
40
40
40
40
40
E0
ENDCHAR
STARTCHAR $2171
ENCODING 8561
SWIDTH 1000 0
DWIDTH 16 0
BBX 8 12 4 1
BITMAP
42
42
00
00
C6
42
42
42
42
42
42
E7
ENDCHAR
STARTCHAR $2172
ENCODING 8562
SWIDTH 1000 0
DWIDTH 16 0
BBX 13 12 1 1
BITMAP
4210
4210
0000
0000
C630
4210
4210
4210
4210
4210
4210
E738
ENDCHAR
STARTCHAR $2173
ENCODING 8563
SWIDTH 1000 0
DWIDTH 16 0
BBX 12 12 2 1
BITMAP
4000
4000
0000
0000
CE70
4420
4440
4240
4280
4180
4100
E100
ENDCHAR
STARTCHAR $2174
ENCODING 8564
SWIDTH 1000 0
DWIDTH 16 0
BBX 9 8 3 1
BITMAP
E380
4100
2200
2200
1400
1400
0800
0800
ENDCHAR
STARTCHAR $2175
ENCODING 8565
SWIDTH 1000 0
DWIDTH 16 0
BBX 13 12 1 1
BITMAP
0010
0010
0000
0000
E3B0
4110
2210
2210
1410
1410
0810
0838
ENDCHAR
STARTCHAR $2176
ENCODING 8566
SWIDTH 1000 0
DWIDTH 16 0
BBX 15 12 0 1
BITMAP
0024
0024
0000
0000
E36C
4124
2224
2224
1424
1424
0824
087E
ENDCHAR
STARTCHAR $2177
ENCODING 8567
SWIDTH 1000 0
DWIDTH 16 0
BBX 15 12 0 1
BITMAP
00A4
00A4
0000
0000
EFFE
44A4
44A4
28A4
28A4
10A4
10A4
11FE
ENDCHAR
STARTCHAR $2178
ENCODING 8568
SWIDTH 1000 0
DWIDTH 16 0
BBX 13 12 1 1
BITMAP
4000
4000
0000
0000
C338
4110
40A0
4040
4040
40A0
4110
E338
ENDCHAR
STARTCHAR $2179
ENCODING 8569
SWIDTH 1000 0
DWIDTH 16 0
BBX 7 8 4 1
BITMAP
EE
44
28
10
10
28
44
EE
ENDCHAR
STARTCHAR $2190
ENCODING 8592
SWIDTH 1000 0
DWIDTH 16 0
BBX 13 5 1 4
BITMAP
0800
3000
FFF8
3000
0800
ENDCHAR
STARTCHAR $2191
ENCODING 8593
SWIDTH 1000 0
DWIDTH 16 0
BBX 5 13 5 0
BITMAP
20
20
70
70
A8
20
20
20
20
20
20
20
20
ENDCHAR
STARTCHAR $2192
ENCODING 8594
SWIDTH 1000 0
DWIDTH 16 0
BBX 13 5 1 4
BITMAP
0080
0060
FFF8
0060
0080
ENDCHAR
STARTCHAR $2193
ENCODING 8595
SWIDTH 1000 0
DWIDTH 16 0
BBX 5 13 5 0
BITMAP
20
20
20
20
20
20
20
20
A8
70
70
20
20
ENDCHAR
STARTCHAR $2208
ENCODING 8712
SWIDTH 1000 0
DWIDTH 16 0
BBX 10 9 2 2
BITMAP
3FC0
4000
8000
8000
FFC0
8000
8000
4000
3FC0
ENDCHAR
STARTCHAR $220F
ENCODING 8719
SWIDTH 1000 0
DWIDTH 16 0
BBX 11 12 2 0
BITMAP
FFE0
4040
4040
4040
4040
4040
4040
4040
4040
4040
4040
E0E0
ENDCHAR
STARTCHAR $2211
ENCODING 8721
SWIDTH 1000 0
DWIDTH 16 0
BBX 11 12 2 0
BITMAP
FFC0
4040
2020
1000
0800
0400
0400
0800
1000
2020
4040
FFC0
ENDCHAR
STARTCHAR $221A
ENCODING 8730
SWIDTH 1000 0
DWIDTH 16 0
BBX 8 11 4 1
BITMAP
01
01
01
02
02
02
44
E4
34
18
08
ENDCHAR
STARTCHAR $221D
ENCODING 8733
SWIDTH 1000 0
DWIDTH 16 0
BBX 12 5 1 4
BITMAP
7C70
8280
8100
8280
7C70
ENDCHAR
STARTCHAR $221E
ENCODING 8734
SWIDTH 1000 0
DWIDTH 16 0
BBX 13 5 1 4
BITMAP
78F0
8508
8208
8508
78F0
ENDCHAR
STARTCHAR $2220
ENCODING 8736
SWIDTH 1000 0
DWIDTH 16 0
BBX 12 12 2 0
BITMAP
0010
0020
0040
0080
0100
0200
0400
0800
1000
2000
4000
FFF0
ENDCHAR
STARTCHAR $2225
ENCODING 8741
SWIDTH 1000 0
DWIDTH 16 0
BBX 11 12 2 0
BITMAP
0420
0420
0840
0840
1080
1080
2100
2100
4200
4200
8400
8400
ENDCHAR
STARTCHAR $2227
ENCODING 8743
SWIDTH 1000 0
DWIDTH 16 0
BBX 13 13 1 0
BITMAP
0200
0200
0500
0500
0880
0880
1040
1040
2020
2020
4010
4010
8008
ENDCHAR
STARTCHAR $2228
ENCODING 8744
SWIDTH 1000 0
DWIDTH 16 0
BBX 13 13 1 0
BITMAP
8008
4010
4010
2020
2020
1040
1040
0880
0880
0500
0500
0200
0200
ENDCHAR
STARTCHAR $2229
ENCODING 8745
SWIDTH 1000 0
DWIDTH 16 0
BBX 9 11 3 1
BITMAP
3E00
4100
8080
8080
8080
8080
8080
8080
8080
8080
8080
ENDCHAR
STARTCHAR $222A
ENCODING 8746
SWIDTH 1000 0
DWIDTH 16 0
BBX 9 10 3 1
BITMAP
8080
8080
8080
8080
8080
8080
8080
8080
4100
3E00
ENDCHAR
STARTCHAR $222B
ENCODING 8747
SWIDTH 1000 0
DWIDTH 16 0
BBX 7 13 4 0
BITMAP
0C
12
10
10
10
10
10
10
10
10
10
90
60
ENDCHAR
STARTCHAR $222E
ENCODING 8750
SWIDTH 1000 0
DWIDTH 16 0
BBX 7 13 4 0
BITMAP
0C
12
10
10
38
54
54
54
38
10
10
90
60
ENDCHAR
STARTCHAR $2234
ENCODING 8756
SWIDTH 1000 0
DWIDTH 16 0
BBX 10 10 3 1
BITMAP
0C00
0C00
0000
0000
0000
0000
0000
0000
C0C0
C0C0
ENDCHAR
STARTCHAR $2235
ENCODING 8757
SWIDTH 1000 0
DWIDTH 16 0
BBX 10 10 3 1
BITMAP
C0C0
C0C0
0000
0000
0000
0000
0000
0000
0C00
0C00
ENDCHAR
STARTCHAR $2236
ENCODING 8758
SWIDTH 1000 0
DWIDTH 16 0
BBX 2 10 7 1
BITMAP
C0
C0
00
00
00
00
00
00
C0
C0
ENDCHAR
STARTCHAR $2237
ENCODING 8759
SWIDTH 1000 0
DWIDTH 16 0
BBX 10 10 3 1
BITMAP
C0C0
C0C0
0000
0000
0000
0000
0000
0000
C0C0
C0C0
ENDCHAR
STARTCHAR $223D
ENCODING 8765
SWIDTH 1000 0
DWIDTH 16 0
BBX 13 5 1 4
BITMAP
60F0
8108
8208
8408
7830
ENDCHAR
STARTCHAR $2248
ENCODING 8776
SWIDTH 1000 0
DWIDTH 16 0
BBX 13 7 1 3
BITMAP
7000
8C08
0310
70E0
8C00
0310
00E0
ENDCHAR
STARTCHAR $224C
ENCODING 8780
SWIDTH 1000 0
DWIDTH 16 0
BBX 13 10 1 1
BITMAP
60F0
8108
8208
8408
7830
0000
FFF8
0000
0000
FFF8
ENDCHAR
STARTCHAR $2260
ENCODING 8800
SWIDTH 1000 0
DWIDTH 16 0
BBX 13 11 1 1
BITMAP
0040
0040
0080
FFF8
0100
0200
0400
FFF8
0800
1000
2000
ENDCHAR
STARTCHAR $2261
ENCODING 8801
SWIDTH 1000 0
DWIDTH 16 0
BBX 12 7 2 3
BITMAP
FFF0
0000
0000
FFF0
0000
0000
FFF0
ENDCHAR
STARTCHAR $2264
ENCODING 8804
SWIDTH 1000 0
DWIDTH 16 0
BBX 12 10 1 1
BITMAP
0070
0380
1C00
E000
1C00
0380
E070
1C00
0380
0070
ENDCHAR
STARTCHAR $2265
ENCODING 8805
SWIDTH 1000 0
DWIDTH 16 0
BBX 12 10 2 1
BITMAP
E000
1C00
0380
0070
0380
1C00
E070
0380
1C00
E000
ENDCHAR
STARTCHAR $226E
ENCODING 8814
SWIDTH 1000 0
DWIDTH 16 0
BBX 13 13 1 0
BITMAP
0200
0200
0218
02E0
0700
1A00
E200
1A00
0700
02E0
0218
0200
0200
ENDCHAR
STARTCHAR $226F
ENCODING 8815
SWIDTH 1000 0
DWIDTH 16 0
BBX 13 13 1 0
BITMAP
0100
0100
C100
3900
0700
01C0
0138
01C0
0700
3900
C100
0100
0100
ENDCHAR
STARTCHAR $2299
ENCODING 8857
SWIDTH 1000 0
DWIDTH 16 0
BBX 14 14 1 -1
BITMAP
0FC0
1020
2010
4008
8004
8004
8304
8304
8004
8004
4008
2010
1020
0FC0
ENDCHAR
STARTCHAR $22A5
ENCODING 8869
SWIDTH 1000 0
DWIDTH 16 0
BBX 11 12 2 0
BITMAP
0400
0400
0400
0400
0400
0400
0400
0400
0400
0400
0400
FFE0
ENDCHAR
STARTCHAR $2312
ENCODING 8978
SWIDTH 1000 0
DWIDTH 16 0
BBX 13 5 1 6
BITMAP
0700
18C0
2020
4010
8008
ENDCHAR
STARTCHAR $2460
ENCODING 9312
SWIDTH 1000 0
DWIDTH 16 0
BBX 15 15 0 -1
BITMAP
0FE0
1010
2008
4104
8302
8102
8102
8102
8102
8102
8102
4384
2008
1010
0FE0
ENDCHAR
STARTCHAR $2461
ENCODING 9313
SWIDTH 1000 0
DWIDTH 16 0
BBX 15 15 0 -1
BITMAP
0FE0
1010
2008
4784
8842
8842
8042
8082
8102
8202
8422
4FE4
2008
1010
0FE0
ENDCHAR
STARTCHAR $2462
ENCODING 9314
SWIDTH 1000 0
DWIDTH 16 0
BBX 15 15 0 -1
BITMAP
0FE0
1010
2008
47C4
8822
8822
8022
83C2
8022
8822
8822
47C4
2008
1010
0FE0
ENDCHAR
STARTCHAR $2463
ENCODING 9315
SWIDTH 1000 0
DWIDTH 16 0
BBX 15 15 0 -1
BITMAP
0FE0
1010
2008
4084
8182
8282
8282
8482
8882
8FE2
8082
43C4
2008
1010
0FE0
ENDCHAR
STARTCHAR $2464
ENCODING 9316
SWIDTH 1000 0
DWIDTH 16 0
BBX 15 15 0 -1
BITMAP
0FE0
1010
2008
47C4
8402
8402
87C2
8422
8022
8022
8442
4384
2008
1010
0FE0
ENDCHAR
STARTCHAR $2465
ENCODING 9317
SWIDTH 1000 0
DWIDTH 16 0
BBX 15 15 0 -1
BITMAP
0FE0
1010
2008
43C4
8422
8822
8B82
8C42
8822
8822
8442
4384
2008
1010
0FE0
ENDCHAR
STARTCHAR $2466
ENCODING 9318
SWIDTH 1000 0
DWIDTH 16 0
BBX 15 15 0 -1
BITMAP
0FE0
1010
2008
4FE4
8822
8842
8082
8082
8102
8102
8102
4104
2008
1010
0FE0
ENDCHAR
STARTCHAR $2467
ENCODING 9319
SWIDTH 1000 0
DWIDTH 16 0
BBX 15 15 0 -1
BITMAP
0FE0
1010
2008
47C4
8822
8822
8822
87C2
8822
8822
8822
47C4
2008
1010
0FE0
ENDCHAR
STARTCHAR $2468
ENCODING 9320
SWIDTH 1000 0
DWIDTH 16 0
BBX 15 15 0 -1
BITMAP
0FE0
1010
2008
4784
8842
8822
8822
8862
87A2
8022
8842
4784
2008
1010
0FE0
ENDCHAR
STARTCHAR $2469
ENCODING 9321
SWIDTH 1000 0
DWIDTH 16 0
BBX 15 15 0 -1
BITMAP
0FE0
1010
2008
4C64
8492
8492
8492
8492
8492
8492
8492
4E64
2008
1010
0FE0
ENDCHAR
STARTCHAR $2474
ENCODING 9332
SWIDTH 1000 0
DWIDTH 16 0
BBX 15 13 0 0
BITMAP
1010
2108
4304
4104
8102
8102
8102
8102
8102
4104
4384
2008
1010
ENDCHAR
STARTCHAR $2475
ENCODING 9333
SWIDTH 1000 0
DWIDTH 16 0
BBX 15 13 0 0
BITMAP
1010
2388
4444
4444
8042
8082
8082
8102
8202
4444
47C4
2008
1010
ENDCHAR
STARTCHAR $2476
ENCODING 9334
SWIDTH 1000 0
DWIDTH 16 0
BBX 15 13 0 0
BITMAP
1010
2388
4444
4444
8082
8302
8082
8042
8442
4444
4384
2008
1010
ENDCHAR
STARTCHAR $2477
ENCODING 9335
SWIDTH 1000 0
DWIDTH 16 0
BBX 15 13 0 0
BITMAP
1010
2088
4084
4184
8182
8282
8282
8482
87C2
4084
41C4
2008
1010
ENDCHAR
STARTCHAR $2478
ENCODING 9336
SWIDTH 1000 0
DWIDTH 16 0
BBX 15 13 0 0
BITMAP
1010
27C8
4404
4404
8402
8782
8442
8042
8042
4444
4384
2008
1010
ENDCHAR
STARTCHAR $2479
ENCODING 9337
SWIDTH 1000 0
DWIDTH 16 0
BBX 15 13 0 0
BITMAP
1010
2388
4444
4404
8402
8582
8642
8442
8442
4444
4384
2008
1010
ENDCHAR
STARTCHAR $247A
ENCODING 9338
SWIDTH 1000 0
DWIDTH 16 0
BBX 15 13 0 0
BITMAP
1010
27C8
4444
4084
8082
8082
8102
8102
8102
4104
4104
2008
1010
ENDCHAR
STARTCHAR $247B
ENCODING 9339
SWIDTH 1000 0
DWIDTH 16 0
BBX 15 13 0 0
BITMAP
1010
2388
4444
4444
8282
8102
8282
8442
8442
4444
4384
2008
1010
ENDCHAR
STARTCHAR $247C
ENCODING 9340
SWIDTH 1000 0
DWIDTH 16 0
BBX 15 13 0 0
BITMAP
1010
2388
4444
4444
8442
84C2
8342
8042
8042
4444
4384
2008
1010
ENDCHAR
STARTCHAR $247D
ENCODING 9341
SWIDTH 1000 0
DWIDTH 16 0
BBX 15 13 0 0
BITMAP
1010
2468
4C94
4494
8492
8492
8492
8492
8492
4494
4E64
2008
1010
ENDCHAR
STARTCHAR $247E
ENCODING 9342
SWIDTH 1000 0
DWIDTH 16 0
BBX 15 13 0 0
BITMAP
1010
2448
4CC4
4444
8442
8442
8442
8442
8442
4444
4EE4
2008
1010
ENDCHAR
STARTCHAR $247F
ENCODING 9343
SWIDTH 1000 0
DWIDTH 16 0
BBX 15 13 0 0
BITMAP
1010
2468
4C94
4494
8412
8422
8422
8442
8442
4494
4EF4
2008
1010
ENDCHAR
STARTCHAR $2480
ENCODING 9344
SWIDTH 1000 0
DWIDTH 16 0
BBX 15 13 0 0
BITMAP
1010
2468
4C94
4414
8422
8442
8422
8412
8412
4494
4E64
2008
1010
ENDCHAR
STARTCHAR $2481
ENCODING 9345
SWIDTH 1000 0
DWIDTH 16 0
BBX 15 13 0 0
BITMAP
1010
2428
4C24
4464
8462
84A2
84A2
8522
85F2
4424
4E74
2008
1010
ENDCHAR
STARTCHAR $2482
ENCODING 9346
SWIDTH 1000 0
DWIDTH 16 0
BBX 15 13 0 0
BITMAP
1010
24E8
4C84
4484
8482
84E2
8412
8412
8412
4494
4E64
2008
1010
ENDCHAR
STARTCHAR $2483
ENCODING 9347
SWIDTH 1000 0
DWIDTH 16 0
BBX 15 13 0 0
BITMAP
1010
2468
4C94
4484
8482
84E2
8492
8492
8492
4494
4E64
2008
1010
ENDCHAR
STARTCHAR $2484
ENCODING 9348
SWIDTH 1000 0
DWIDTH 16 0
BBX 15 13 0 0
BITMAP
1010
25E8
4D24
4424
8422
8442
8442
8442
8482
4484
4E84
2008
1010
ENDCHAR
STARTCHAR $2485
ENCODING 9349
SWIDTH 1000 0
DWIDTH 16 0
BBX 15 13 0 0
BITMAP
1010
2468
4C94
4494
8492
8462
8492
8492
8492
4494
4E64
2008
1010
ENDCHAR
STARTCHAR $2486
ENCODING 9350
SWIDTH 1000 0
DWIDTH 16 0
BBX 15 13 0 0
BITMAP
1010
2468
4C94
4494
8492
8492
8472
8412
8492
4494
4E64
2008
1010
ENDCHAR
STARTCHAR $2487
ENCODING 9351
SWIDTH 1000 0
DWIDTH 16 0
BBX 15 13 0 0
BITMAP
1010
2C68
5294
5294
8292
8492
8492
8892
8892
5294
5E64
2008
1010
ENDCHAR
STARTCHAR $2488
ENCODING 9352
SWIDTH 1000 0
DWIDTH 16 0
BBX 9 11 6 2
BITMAP
4000
C000
4000
4000
4000
4000
4000
4000
4000
4180
E180
ENDCHAR
STARTCHAR $2489
ENCODING 9353
SWIDTH 1000 0
DWIDTH 16 0
BBX 10 11 5 2
BITMAP
7800
8400
8400
8400
0400
0800
1000
2000
4000
84C0
FCC0
ENDCHAR
STARTCHAR $248A
ENCODING 9354
SWIDTH 1000 0
DWIDTH 16 0
BBX 10 11 5 2
BITMAP
7000
8800
8400
0400
0800
3000
0800
0400
8400
84C0
78C0
ENDCHAR
STARTCHAR $248B
ENCODING 9355
SWIDTH 1000 0
DWIDTH 16 0
BBX 11 11 4 2
BITMAP
0400
0400
0C00
1400
1400
2400
4400
8400
FE00
0460
0E60
ENDCHAR
STARTCHAR $248C
ENCODING 9356
SWIDTH 1000 0
DWIDTH 16 0
BBX 10 11 5 2
BITMAP
FC00
8000
8000
8000
F000
8800
0400
0400
8400
88C0
70C0
ENDCHAR
STARTCHAR $248D
ENCODING 9357
SWIDTH 1000 0
DWIDTH 16 0
BBX 10 11 5 2
BITMAP
3800
4400
8400
8000
8000
B800
C400
8400
8400
84C0
78C0
ENDCHAR
STARTCHAR $248E
ENCODING 9358
SWIDTH 1000 0
DWIDTH 16 0
BBX 11 11 4 2
BITMAP
7E00
4200
8400
0400
0800
0800
1000
1000
1000
1060
1060
ENDCHAR
STARTCHAR $248F
ENCODING 9359
SWIDTH 1000 0
DWIDTH 16 0
BBX 10 11 5 2
BITMAP
7800
8400
8400
8400
4800
3000
4800
8400
8400
84C0
78C0
ENDCHAR
STARTCHAR $2490
ENCODING 9360
SWIDTH 1000 0
DWIDTH 16 0
BBX 10 11 5 2
BITMAP
3000
4800
8400
8400
8400
8C00
7400
0400
0400
88C0
70C0
ENDCHAR
STARTCHAR $2491
ENCODING 9361
SWIDTH 1000 0
DWIDTH 16 0
BBX 13 11 2 2
BITMAP
4300
C480
4840
4840
4840
4840
4840
4840
4840
4498
E318
ENDCHAR
STARTCHAR $2492
ENCODING 9362
SWIDTH 1000 0
DWIDTH 16 0
BBX 13 11 2 2
BITMAP
4100
C300
4100
4100
4100
4100
4100
4100
4100
4118
E398
ENDCHAR
STARTCHAR $2493
ENCODING 9363
SWIDTH 1000 0
DWIDTH 16 0
BBX 13 11 2 2
BITMAP
4380
C440
4440
4440
4040
4080
4100
4200
4400
4458
E7D8
ENDCHAR
STARTCHAR $2494
ENCODING 9364
SWIDTH 1000 0
DWIDTH 16 0
BBX 13 11 2 2
BITMAP
4380
C440
4440
4040
4080
4300
4080
4040
4440
4458
E398
ENDCHAR
STARTCHAR $2495
ENCODING 9365
SWIDTH 1000 0
DWIDTH 16 0
BBX 13 11 2 2
BITMAP
4080
C080
4080
4180
4280
4280
4480
4880
4FC0
4098
E1D8
ENDCHAR
STARTCHAR $2496
ENCODING 9366
SWIDTH 1000 0
DWIDTH 16 0
BBX 13 11 2 2
BITMAP
47C0
C400
4400
4400
4580
4640
4040
4040
4440
4458
E398
ENDCHAR
STARTCHAR $2497
ENCODING 9367
SWIDTH 1000 0
DWIDTH 16 0
BBX 13 11 2 2
BITMAP
4180
C240
4440
4400
4580
4640
4440
4440
4440
4458
E398
ENDCHAR
STARTCHAR $2498
ENCODING 9368
SWIDTH 1000 0
DWIDTH 16 0
BBX 13 11 2 2
BITMAP
47C0
C440
4480
4080
4100
4100
4100
4200
4200
4218
E218
ENDCHAR
STARTCHAR $2499
ENCODING 9369
SWIDTH 1000 0
DWIDTH 16 0
BBX 13 11 2 2
BITMAP
4380
C440
4440
4440
4280
4100
4280
4440
4440
4458
E398
ENDCHAR
STARTCHAR $249A
ENCODING 9370
SWIDTH 1000 0
DWIDTH 16 0
BBX 13 11 2 2
BITMAP
4380
C440
4440
4440
4440
44C0
4340
4040
4440
4498
E318
ENDCHAR
STARTCHAR $249B
ENCODING 9371
SWIDTH 1000 0
DWIDTH 16 0
BBX 14 11 1 2
BITMAP
71C0
8A20
8A20
0A20
0A20
1220
2220
2220
4220
8A2C
F9CC
ENDCHAR
STARTCHAR $2500
ENCODING 9472
SWIDTH 1000 0
DWIDTH 16 0
BBX 16 1 0 6
BITMAP
FFFF
ENDCHAR
STARTCHAR $2501
ENCODING 9473
SWIDTH 1000 0
DWIDTH 16 0
BBX 16 2 0 5
BITMAP
FFFF
FFFF
ENDCHAR
STARTCHAR $2502
ENCODING 9474
SWIDTH 1000 0
DWIDTH 16 0
BBX 1 16 7 -2
BITMAP
80
80
80
80
80
80
80
80
80
80
80
80
80
80
80
80
ENDCHAR
STARTCHAR $2503
ENCODING 9475
SWIDTH 1000 0
DWIDTH 16 0
BBX 2 16 7 -2
BITMAP
C0
C0
C0
C0
C0
C0
C0
C0
C0
C0
C0
C0
C0
C0
C0
C0
ENDCHAR
STARTCHAR $2504
ENCODING 9476
SWIDTH 1000 0
DWIDTH 16 0
BBX 15 1 0 6
BITMAP
F39E
ENDCHAR
STARTCHAR $2505
ENCODING 9477
SWIDTH 1000 0
DWIDTH 16 0
BBX 15 2 0 5
BITMAP
F39E
F39E
ENDCHAR
STARTCHAR $2506
ENCODING 9478
SWIDTH 1000 0
DWIDTH 16 0
BBX 1 15 7 -1
BITMAP
80
80
80
80
00
00
80
80
80
00
00
80
80
80
80
ENDCHAR
STARTCHAR $2507
ENCODING 9479
SWIDTH 1000 0
DWIDTH 16 0
BBX 2 15 7 -1
BITMAP
C0
C0
C0
C0
00
00
C0
C0
C0
00
00
C0
C0
C0
C0
ENDCHAR
STARTCHAR $2508
ENCODING 9480
SWIDTH 1000 0
DWIDTH 16 0
BBX 15 1 0 6
BITMAP
EEEE
ENDCHAR
STARTCHAR $2509
ENCODING 9481
SWIDTH 1000 0
DWIDTH 16 0
BBX 15 2 0 5
BITMAP
EEEE
EEEE
ENDCHAR
STARTCHAR $250A
ENCODING 9482
SWIDTH 1000 0
DWIDTH 16 0
BBX 1 15 7 -1
BITMAP
80
80
80
00
80
80
80
00
80
80
80
00
80
80
80
ENDCHAR
STARTCHAR $250B
ENCODING 9483
SWIDTH 1000 0
DWIDTH 16 0
BBX 2 15 7 -1
BITMAP
C0
C0
C0
00
C0
C0
C0
00
C0
C0
C0
00
C0
C0
C0
ENDCHAR
STARTCHAR $250C
ENCODING 9484
SWIDTH 1000 0
DWIDTH 16 0
BBX 9 9 7 -2
BITMAP
FF80
8000
8000
8000
8000
8000
8000
8000
8000
ENDCHAR
STARTCHAR $250D
ENCODING 9485
SWIDTH 1000 0
DWIDTH 16 0
BBX 9 9 7 -2
BITMAP
FF80
FF80
8000
8000
8000
8000
8000
8000
8000
ENDCHAR
STARTCHAR $250E
ENCODING 9486
SWIDTH 1000 0
DWIDTH 16 0
BBX 9 9 7 -2
BITMAP
FF80
C000
C000
C000
C000
C000
C000
C000
C000
ENDCHAR
STARTCHAR $250F
ENCODING 9487
SWIDTH 1000 0
DWIDTH 16 0
BBX 9 9 7 -2
BITMAP
FF80
FF80
C000
C000
C000
C000
C000
C000
C000
ENDCHAR
STARTCHAR $2510
ENCODING 9488
SWIDTH 1000 0
DWIDTH 16 0
BBX 8 9 0 -2
BITMAP
FF
01
01
01
01
01
01
01
01
ENDCHAR
STARTCHAR $2511
ENCODING 9489
SWIDTH 1000 0
DWIDTH 16 0
BBX 8 9 0 -2
BITMAP
FF
FF
01
01
01
01
01
01
01
ENDCHAR
STARTCHAR $2512
ENCODING 9490
SWIDTH 1000 0
DWIDTH 16 0
BBX 9 9 0 -2
BITMAP
FF80
0180
0180
0180
0180
0180
0180
0180
0180
ENDCHAR
STARTCHAR $2513
ENCODING 9491
SWIDTH 1000 0
DWIDTH 16 0
BBX 9 9 0 -2
BITMAP
FF80
FF80
0180
0180
0180
0180
0180
0180
0180
ENDCHAR
STARTCHAR $2514
ENCODING 9492
SWIDTH 1000 0
DWIDTH 16 0
BBX 9 8 7 6
BITMAP
8000
8000
8000
8000
8000
8000
8000
FF80
ENDCHAR
STARTCHAR $2515
ENCODING 9493
SWIDTH 1000 0
DWIDTH 16 0
BBX 9 9 7 5
BITMAP
8000
8000
8000
8000
8000
8000
8000
FF80
FF80
ENDCHAR
STARTCHAR $2516
ENCODING 9494
SWIDTH 1000 0
DWIDTH 16 0
BBX 9 8 7 6
BITMAP
C000
C000
C000
C000
C000
C000
C000
FF80
ENDCHAR
STARTCHAR $2517
ENCODING 9495
SWIDTH 1000 0
DWIDTH 16 0
BBX 9 9 7 5
BITMAP
C000
C000
C000
C000
C000
C000
C000
FF80
FF80
ENDCHAR
STARTCHAR $2518
ENCODING 9496
SWIDTH 1000 0
DWIDTH 16 0
BBX 8 8 0 6
BITMAP
01
01
01
01
01
01
01
FF
ENDCHAR
STARTCHAR $2519
ENCODING 9497
SWIDTH 1000 0
DWIDTH 16 0
BBX 8 9 0 5
BITMAP
01
01
01
01
01
01
01
FF
FF
ENDCHAR
STARTCHAR $251A
ENCODING 9498
SWIDTH 1000 0
DWIDTH 16 0
BBX 9 8 0 6
BITMAP
0180
0180
0180
0180
0180
0180
0180
FF80
ENDCHAR
STARTCHAR $251B
ENCODING 9499
SWIDTH 1000 0
DWIDTH 16 0
BBX 9 9 0 5
BITMAP
0180
0180
0180
0180
0180
0180
0180
FF80
FF80
ENDCHAR
STARTCHAR $251C
ENCODING 9500
SWIDTH 1000 0
DWIDTH 16 0
BBX 9 16 7 -2
BITMAP
8000
8000
8000
8000
8000
8000
8000
FF80
8000
8000
8000
8000
8000
8000
8000
8000
ENDCHAR
STARTCHAR $251D
ENCODING 9501
SWIDTH 1000 0
DWIDTH 16 0
BBX 9 16 7 -2
BITMAP
8000
8000
8000
8000
8000
8000
8000
FF80
FF80
8000
8000
8000
8000
8000
8000
8000
ENDCHAR
STARTCHAR $251E
ENCODING 9502
SWIDTH 1000 0
DWIDTH 16 0
BBX 9 16 7 -2
BITMAP
C000
C000
C000
C000
C000
C000
C000
FF80
8000
8000
8000
8000
8000
8000
8000
8000
ENDCHAR
STARTCHAR $251F
ENCODING 9503
SWIDTH 1000 0
DWIDTH 16 0
BBX 9 16 7 -2
BITMAP
8000
8000
8000
8000
8000
8000
8000
FF80
C000
C000
C000
C000
C000
C000
C000
C000
ENDCHAR
STARTCHAR $2520
ENCODING 9504
SWIDTH 1000 0
DWIDTH 16 0
BBX 9 16 7 -2
BITMAP
C000
C000
C000
C000
C000
C000
C000
FF80
C000
C000
C000
C000
C000
C000
C000
C000
ENDCHAR
STARTCHAR $2521
ENCODING 9505
SWIDTH 1000 0
DWIDTH 16 0
BBX 9 16 7 -2
BITMAP
C000
C000
C000
C000
C000
C000
C000
FF80
FF80
8000
8000
8000
8000
8000
8000
8000
ENDCHAR
STARTCHAR $2522
ENCODING 9506
SWIDTH 1000 0
DWIDTH 16 0
BBX 9 16 7 -2
BITMAP
8000
8000
8000
8000
8000
8000
8000
FF80
FF80
C000
C000
C000
C000
C000
C000
C000
ENDCHAR
STARTCHAR $2523
ENCODING 9507
SWIDTH 1000 0
DWIDTH 16 0
BBX 9 16 7 -2
BITMAP
C000
C000
C000
C000
C000
C000
C000
FF80
FF80
C000
C000
C000
C000
C000
C000
C000
ENDCHAR
STARTCHAR $2524
ENCODING 9508
SWIDTH 1000 0
DWIDTH 16 0
BBX 8 16 0 -2
BITMAP
01
01
01
01
01
01
01
FF
01
01
01
01
01
01
01
01
ENDCHAR
STARTCHAR $2525
ENCODING 9509
SWIDTH 1000 0
DWIDTH 16 0
BBX 8 16 0 -2
BITMAP
01
01
01
01
01
01
01
FF
FF
01
01
01
01
01
01
01
ENDCHAR
STARTCHAR $2526
ENCODING 9510
SWIDTH 1000 0
DWIDTH 16 0
BBX 9 16 0 -2
BITMAP
0180
0180
0180
0180
0180
0180
0180
FF80
0100
0100
0100
0100
0100
0100
0100
0100
ENDCHAR
STARTCHAR $2527
ENCODING 9511
SWIDTH 1000 0
DWIDTH 16 0
BBX 9 16 0 -2
BITMAP
0100
0100
0100
0100
0100
0100
0100
FF80
0180
0180
0180
0180
0180
0180
0180
0180
ENDCHAR
STARTCHAR $2528
ENCODING 9512
SWIDTH 1000 0
DWIDTH 16 0
BBX 9 16 0 -2
BITMAP
0180
0180
0180
0180
0180
0180
0180
FF80
0180
0180
0180
0180
0180
0180
0180
0180
ENDCHAR
STARTCHAR $2529
ENCODING 9513
SWIDTH 1000 0
DWIDTH 16 0
BBX 9 16 0 -2
BITMAP
0180
0180
0180
0180
0180
0180
0180
FF80
FF80
0100
0100
0100
0100
0100
0100
0100
ENDCHAR
STARTCHAR $252A
ENCODING 9514
SWIDTH 1000 0
DWIDTH 16 0
BBX 9 16 0 -2
BITMAP
0100
0100
0100
0100
0100
0100
0100
FF80
FF80
0180
0180
0180
0180
0180
0180
0180
ENDCHAR
STARTCHAR $252B
ENCODING 9515
SWIDTH 1000 0
DWIDTH 16 0
BBX 9 16 0 -2
BITMAP
0180
0180
0180
0180
0180
0180
0180
FF80
FF80
0180
0180
0180
0180
0180
0180
0180
ENDCHAR
STARTCHAR $252C
ENCODING 9516
SWIDTH 1000 0
DWIDTH 16 0
BBX 16 9 0 -2
BITMAP
FFFF
0100
0100
0100
0100
0100
0100
0100
0100
ENDCHAR
STARTCHAR $252D
ENCODING 9517
SWIDTH 1000 0
DWIDTH 16 0
BBX 16 9 0 -2
BITMAP
FFFF
FF00
0100
0100
0100
0100
0100
0100
0100
ENDCHAR
STARTCHAR $252E
ENCODING 9518
SWIDTH 1000 0
DWIDTH 16 0
BBX 16 9 0 -2
BITMAP
FFFF
01FF
0100
0100
0100
0100
0100
0100
0100
ENDCHAR
STARTCHAR $252F
ENCODING 9519
SWIDTH 1000 0
DWIDTH 16 0
BBX 16 9 0 -2
BITMAP
FFFF
FFFF
0100
0100
0100
0100
0100
0100
0100
ENDCHAR
STARTCHAR $2530
ENCODING 9520
SWIDTH 1000 0
DWIDTH 16 0
BBX 16 9 0 -2
BITMAP
FFFF
0180
0180
0180
0180
0180
0180
0180
0180
ENDCHAR
STARTCHAR $2531
ENCODING 9521
SWIDTH 1000 0
DWIDTH 16 0
BBX 16 9 0 -2
BITMAP
FFFF
FF80
0180
0180
0180
0180
0180
0180
0180
ENDCHAR
STARTCHAR $2532
ENCODING 9522
SWIDTH 1000 0
DWIDTH 16 0
BBX 16 9 0 -2
BITMAP
FFFF
01FF
0180
0180
0180
0180
0180
0180
0180
ENDCHAR
STARTCHAR $2533
ENCODING 9523
SWIDTH 1000 0
DWIDTH 16 0
BBX 16 9 0 -2
BITMAP
FFFF
FFFF
0180
0180
0180
0180
0180
0180
0180
ENDCHAR
STARTCHAR $2534
ENCODING 9524
SWIDTH 1000 0
DWIDTH 16 0
BBX 16 8 0 6
BITMAP
0100
0100
0100
0100
0100
0100
0100
FFFF
ENDCHAR
STARTCHAR $2535
ENCODING 9525
SWIDTH 1000 0
DWIDTH 16 0
BBX 16 9 0 5
BITMAP
0100
0100
0100
0100
0100
0100
0100
FFFF
FF00
ENDCHAR
STARTCHAR $2536
ENCODING 9526
SWIDTH 1000 0
DWIDTH 16 0
BBX 16 9 0 5
BITMAP
0100
0100
0100
0100
0100
0100
0100
FFFF
01FF
ENDCHAR
STARTCHAR $2537
ENCODING 9527
SWIDTH 1000 0
DWIDTH 16 0
BBX 16 9 0 5
BITMAP
0100
0100
0100
0100
0100
0100
0100
FFFF
FFFF
ENDCHAR
STARTCHAR $2538
ENCODING 9528
SWIDTH 1000 0
DWIDTH 16 0
BBX 16 8 0 6
BITMAP
0180
0180
0180
0180
0180
0180
0180
FFFF
ENDCHAR
STARTCHAR $2539
ENCODING 9529
SWIDTH 1000 0
DWIDTH 16 0
BBX 16 9 0 5
BITMAP
0180
0180
0180
0180
0180
0180
0180
FFFF
FF80
ENDCHAR
STARTCHAR $253A
ENCODING 9530
SWIDTH 1000 0
DWIDTH 16 0
BBX 16 9 0 5
BITMAP
0180
0180
0180
0180
0180
0180
0180
FFFF
01FF
ENDCHAR
STARTCHAR $253B
ENCODING 9531
SWIDTH 1000 0
DWIDTH 16 0
BBX 16 9 0 5
BITMAP
0180
0180
0180
0180
0180
0180
0180
FFFF
FFFF
ENDCHAR
STARTCHAR $253C
ENCODING 9532
SWIDTH 1000 0
DWIDTH 16 0
BBX 16 16 0 -2
BITMAP
0100
0100
0100
0100
0100
0100
0100
FFFF
0100
0100
0100
0100
0100
0100
0100
0100
ENDCHAR
STARTCHAR $253D
ENCODING 9533
SWIDTH 1000 0
DWIDTH 16 0
BBX 16 16 0 -2
BITMAP
0180
0180
0180
0180
0180
0180
0180
FFFF
FF80
0180
0180
0180
0180
0180
0180
0180
ENDCHAR
STARTCHAR $253E
ENCODING 9534
SWIDTH 1000 0
DWIDTH 16 0
BBX 16 16 0 -2
BITMAP
0100
0100
0100
0100
0100
0100
0100
FFFF
01FF
0100
0100
0100
0100
0100
0100
0100
ENDCHAR
STARTCHAR $253F
ENCODING 9535
SWIDTH 1000 0
DWIDTH 16 0
BBX 16 16 0 -2
BITMAP
0100
0100
0100
0100
0100
0100
0100
FFFF
FFFF
0100
0100
0100
0100
0100
0100
0100
ENDCHAR
STARTCHAR $2540
ENCODING 9536
SWIDTH 1000 0
DWIDTH 16 0
BBX 16 16 0 -2
BITMAP
0180
0180
0180
0180
0180
0180
0180
FFFF
0100
0100
0100
0100
0100
0100
0100
0100
ENDCHAR
STARTCHAR $2541
ENCODING 9537
SWIDTH 1000 0
DWIDTH 16 0
BBX 16 16 0 -2
BITMAP
0100
0100
0100
0100
0100
0100
0100
FFFF
0180
0180
0180
0180
0180
0180
0180
0180
ENDCHAR
STARTCHAR $2542
ENCODING 9538
SWIDTH 1000 0
DWIDTH 16 0
BBX 16 16 0 -2
BITMAP
0180
0180
0180
0180
0180
0180
0180
FFFF
0180
0180
0180
0180
0180
0180
0180
0180
ENDCHAR
STARTCHAR $2543
ENCODING 9539
SWIDTH 1000 0
DWIDTH 16 0
BBX 16 16 0 -2
BITMAP
0180
0180
0180
0180
0180
0180
0180
FFFF
FF00
0100
0100
0100
0100
0100
0100
0100
ENDCHAR
STARTCHAR $2544
ENCODING 9540
SWIDTH 1000 0
DWIDTH 16 0
BBX 16 16 0 -2
BITMAP
0180
0180
0180
0180
0180
0180
0180
FFFF
01FF
0100
0100
0100
0100
0100
0100
0100
ENDCHAR
STARTCHAR $2545
ENCODING 9541
SWIDTH 1000 0
DWIDTH 16 0
BBX 16 16 0 -2
BITMAP
0100
0100
0100
0100
0100
0100
0100
FFFF
FF80
0180
0180
0180
0180
0180
0180
0180
ENDCHAR
STARTCHAR $2546
ENCODING 9542
SWIDTH 1000 0
DWIDTH 16 0
BBX 16 16 0 -2
BITMAP
0100
0100
0100
0100
0100
0100
0100
FFFF
01FF
0180
0180
0180
0180
0180
0180
0180
ENDCHAR
STARTCHAR $2547
ENCODING 9543
SWIDTH 1000 0
DWIDTH 16 0
BBX 16 16 0 -2
BITMAP
0180
0180
0180
0180
0180
0180
0180
FFFF
FFFF
0100
0100
0100
0100
0100
0100
0100
ENDCHAR
STARTCHAR $2548
ENCODING 9544
SWIDTH 1000 0
DWIDTH 16 0
BBX 16 16 0 -2
BITMAP
0100
0100
0100
0100
0100
0100
0100
FFFF
FFFF
0180
0180
0180
0180
0180
0180
0180
ENDCHAR
STARTCHAR $2549
ENCODING 9545
SWIDTH 1000 0
DWIDTH 16 0
BBX 16 16 0 -2
BITMAP
0180
0180
0180
0180
0180
0180
0180
FFFF
FF80
0180
0180
0180
0180
0180
0180
0180
ENDCHAR
STARTCHAR $254A
ENCODING 9546
SWIDTH 1000 0
DWIDTH 16 0
BBX 16 16 0 -2
BITMAP
0180
0180
0180
0180
0180
0180
0180
FFFF
01FF
0180
0180
0180
0180
0180
0180
0180
ENDCHAR
STARTCHAR $254B
ENCODING 9547
SWIDTH 1000 0
DWIDTH 16 0
BBX 16 16 0 -2
BITMAP
0180
0180
0180
0180
0180
0180
0180
FFFF
FFFF
0180
0180
0180
0180
0180
0180
0180
ENDCHAR
STARTCHAR $25A0
ENCODING 9632
SWIDTH 1000 0
DWIDTH 16 0
BBX 11 11 2 1
BITMAP
FFE0
FFE0
FFE0
FFE0
FFE0
FFE0
FFE0
FFE0
FFE0
FFE0
FFE0
ENDCHAR
STARTCHAR $25A1
ENCODING 9633
SWIDTH 1000 0
DWIDTH 16 0
BBX 11 11 2 1
BITMAP
FFE0
8020
8020
8020
8020
8020
8020
8020
8020
8020
FFE0
ENDCHAR
STARTCHAR $25B2
ENCODING 9650
SWIDTH 1000 0
DWIDTH 16 0
BBX 13 13 1 0
BITMAP
0200
0200
0700
0700
0F80
0F80
1FC0
1FC0
3FE0
3FE0
7FF0
7FF0
FFF8
ENDCHAR
STARTCHAR $25B3
ENCODING 9651
SWIDTH 1000 0
DWIDTH 16 0
BBX 13 13 1 0
BITMAP
0200
0200
0500
0500
0880
0880
1040
1040
2020
2020
4010
4010
FFF8
ENDCHAR
STARTCHAR $25C6
ENCODING 9670
SWIDTH 1000 0
DWIDTH 16 0
BBX 13 13 1 0
BITMAP
0200
0700
0F80
1FC0
3FE0
7FF0
FFF8
7FF0
3FE0
1FC0
0F80
0700
0200
ENDCHAR
STARTCHAR $25C7
ENCODING 9671
SWIDTH 1000 0
DWIDTH 16 0
BBX 13 13 1 0
BITMAP
0200
0500
0880
1040
2020
4010
8008
4010
2020
1040
0880
0500
0200
ENDCHAR
STARTCHAR $25CB
ENCODING 9675
SWIDTH 1000 0
DWIDTH 16 0
BBX 13 13 1 0
BITMAP
0F80
1040
2020
4010
8008
8008
8008
8008
8008
4010
2020
1040
0F80
ENDCHAR
STARTCHAR $25CE
ENCODING 9678
SWIDTH 1000 0
DWIDTH 16 0
BBX 13 13 1 0
BITMAP
0F80
1040
2720
4890
9048
A028
A028
A028
9048
4890
2720
1040
0F80
ENDCHAR
STARTCHAR $25CF
ENCODING 9679
SWIDTH 1000 0
DWIDTH 16 0
BBX 13 13 1 0
BITMAP
0700
1FC0
3FE0
7FF0
7FF0
FFF8
FFF8
FFF8
7FF0
7FF0
3FE0
1FC0
0700
ENDCHAR
STARTCHAR $2605
ENCODING 9733
SWIDTH 1000 0
DWIDTH 16 0
BBX 13 13 1 0
BITMAP
0200
0200
0700
0700
0700
FFF8
7FF0
1FC0
0F80
1FC0
1DC0
3860
2020
ENDCHAR
STARTCHAR $2606
ENCODING 9734
SWIDTH 1000 0
DWIDTH 16 0
BBX 13 13 1 0
BITMAP
0200
0200
0500
0500
0500
F8F8
4010
3060
1040
1240
1540
38E0
2020
ENDCHAR
STARTCHAR $2640
ENCODING 9792
SWIDTH 1000 0
DWIDTH 16 0
BBX 9 13 3 0
BITMAP
1C00
2200
4100
4100
2200
1C00
0800
0800
FF80
0800
0800
0800
0800
ENDCHAR
STARTCHAR $2642
ENCODING 9794
SWIDTH 1000 0
DWIDTH 16 0
BBX 7 13 4 0
BITMAP
10
10
38
38
54
10
10
38
44
82
82
44
38
ENDCHAR
STARTCHAR $3000
ENCODING 12288
SWIDTH 1000 0
DWIDTH 16 0
BBX 1 1 15 -2
BITMAP
00
ENDCHAR
STARTCHAR $3001
ENCODING 12289
SWIDTH 1000 0
DWIDTH 16 0
BBX 3 4 2 0
BITMAP
80
40
60
20
ENDCHAR
STARTCHAR $3002
ENCODING 12290
SWIDTH 1000 0
DWIDTH 16 0
BBX 4 4 1 0
BITMAP
60
90
90
60
ENDCHAR
STARTCHAR $3003
ENCODING 12291
SWIDTH 1000 0
DWIDTH 16 0
BBX 5 5 5 4
BITMAP
48
48
90
90
90
ENDCHAR
STARTCHAR $3005
ENCODING 12293
SWIDTH 1000 0
DWIDTH 16 0
BBX 8 12 4 1
BITMAP
20
20
20
4F
72
82
04
04
28
18
0C
04
ENDCHAR
STARTCHAR $3008
ENCODING 12296
SWIDTH 1000 0
DWIDTH 16 0
BBX 4 13 10 0
BITMAP
10
20
20
40
40
80
80
80
40
40
20
20
10
ENDCHAR
STARTCHAR $3009
ENCODING 12297
SWIDTH 1000 0
DWIDTH 16 0
BBX 4 13 1 0
BITMAP
80
40
40
20
20
10
10
10
20
20
40
40
80
ENDCHAR
STARTCHAR $300A
ENCODING 12298
SWIDTH 1000 0
DWIDTH 16 0
BBX 6 13 8 0
BITMAP
14
14
28
28
50
50
A0
50
50
28
28
14
14
ENDCHAR
STARTCHAR $300B
ENCODING 12299
SWIDTH 1000 0
DWIDTH 16 0
BBX 6 13 1 0
BITMAP
A0
A0
50
50
28
28
14
28
28
50
50
A0
A0
ENDCHAR
STARTCHAR $300C
ENCODING 12300
SWIDTH 1000 0
DWIDTH 16 0
BBX 5 14 9 -1
BITMAP
F8
80
80
80
80
80
80
80
80
80
80
80
80
80
ENDCHAR
STARTCHAR $300D
ENCODING 12301
SWIDTH 1000 0
DWIDTH 16 0
BBX 4 14 2 -1
BITMAP
10
10
10
10
10
10
10
10
10
10
10
10
10
F0
ENDCHAR
STARTCHAR $300E
ENCODING 12302
SWIDTH 1000 0
DWIDTH 16 0
BBX 5 13 9 0
BITMAP
F8
88
B8
A0
A0
A0
A0
A0
A0
A0
A0
A0
E0
ENDCHAR
STARTCHAR $300F
ENCODING 12303
SWIDTH 1000 0
DWIDTH 16 0
BBX 5 13 1 0
BITMAP
38
28
28
28
28
28
28
28
28
28
E8
88
F8
ENDCHAR
STARTCHAR $3010
ENCODING 12304
SWIDTH 1000 0
DWIDTH 16 0
BBX 6 13 7 0
BITMAP
FC
F8
F0
F0
E0
E0
E0
E0
E0
F0
F0
F8
FC
ENDCHAR
STARTCHAR $3011
ENCODING 12305
SWIDTH 1000 0
DWIDTH 16 0
BBX 5 13 2 0
BITMAP
F8
78
38
38
18
18
18
18
18
38
38
78
F8
ENDCHAR
STARTCHAR $3013
ENCODING 12307
SWIDTH 1000 0
DWIDTH 16 0
BBX 13 13 1 0
BITMAP
FFF8
FFF8
FFF8
FFF8
FFF8
0000
0000
0000
FFF8
FFF8
FFF8
FFF8
FFF8
ENDCHAR
STARTCHAR $3014
ENCODING 12308
SWIDTH 1000 0
DWIDTH 16 0
BBX 3 13 10 0
BITMAP
20
40
80
80
80
80
80
80
80
80
80
40
20
ENDCHAR
STARTCHAR $3015
ENCODING 12309
SWIDTH 1000 0
DWIDTH 16 0
BBX 3 13 2 0
BITMAP
80
40
20
20
20
20
20
20
20
20
20
40
80
ENDCHAR
STARTCHAR $3016
ENCODING 12310
SWIDTH 1000 0
DWIDTH 16 0
BBX 6 13 7 0
BITMAP
FC
88
90
90
A0
A0
A0
A0
A0
90
90
88
FC
ENDCHAR
STARTCHAR $3017
ENCODING 12311
SWIDTH 1000 0
DWIDTH 16 0
BBX 6 13 2 0
BITMAP
FC
44
24
24
14
14
14
14
14
24
24
44
FC
ENDCHAR
STARTCHAR $3041
ENCODING 12353
SWIDTH 1000 0
DWIDTH 16 0
BBX 7 9 4 4
BITMAP
10
28
70
28
3C
6A
B2
A2
D4
ENDCHAR
STARTCHAR $3042
ENCODING 12354
SWIDTH 1000 0
DWIDTH 16 0
BBX 9 12 3 1
BITMAP
1000
1000
1C00
7000
2400
3F00
6880
A880
9080
A880
4100
0200
ENDCHAR
STARTCHAR $3043
ENCODING 12355
SWIDTH 1000 0
DWIDTH 16 0
BBX 7 7 4 3
BITMAP
80
84
82
96
A0
E0
40
ENDCHAR
STARTCHAR $3044
ENCODING 12356
SWIDTH 1000 0
DWIDTH 16 0
BBX 9 9 3 3
BITMAP
8000
4200
4100
8080
8180
8000
9000
6000
2000
ENDCHAR
STARTCHAR $3045
ENCODING 12357
SWIDTH 1000 0
DWIDTH 16 0
BBX 5 10 5 2
BITMAP
40
20
40
30
C8
08
08
08
10
20
ENDCHAR
STARTCHAR $3046
ENCODING 12358
SWIDTH 1000 0
DWIDTH 16 0
BBX 5 12 5 1
BITMAP
40
20
40
30
48
88
08
08
10
10
20
40
ENDCHAR
STARTCHAR $3047
ENCODING 12359
SWIDTH 1000 0
DWIDTH 16 0
BBX 7 9 4 3
BITMAP
20
10
20
18
68
10
30
50
8E
ENDCHAR
STARTCHAR $3048
ENCODING 12360
SWIDTH 1000 0
DWIDTH 16 0
BBX 7 11 4 2
BITMAP
20
10
20
18
68
10
20
30
50
90
8E
ENDCHAR
STARTCHAR $3049
ENCODING 12361
SWIDTH 1000 0
DWIDTH 16 0
BBX 9 8 3 3
BITMAP
2000
2B00
7080
2E00
3100
6100
E900
2600
ENDCHAR
STARTCHAR $304A
ENCODING 12362
SWIDTH 1000 0
DWIDTH 16 0
BBX 10 9 3 3
BITMAP
2000
2180
3040
E0C0
2F00
3080
6080
A100
6600
ENDCHAR
STARTCHAR $304B
ENCODING 12363
SWIDTH 1000 0
DWIDTH 16 0
BBX 10 9 3 2
BITMAP
1000
1000
1C80
E440
24C0
4400
4400
9800
8000
ENDCHAR
STARTCHAR $304C
ENCODING 12364
SWIDTH 1000 0
DWIDTH 16 0
BBX 11 10 2 3
BITMAP
0040
08A0
0840
0C80
7240
12C0
2200
2200
5400
C800
ENDCHAR
STARTCHAR $304D
ENCODING 12365
SWIDTH 1000 0
DWIDTH 16 0
BBX 7 10 4 2
BITMAP
40
28
F0
0C
F8
04
7E
80
80
7C
ENDCHAR
STARTCHAR $304E
ENCODING 12366
SWIDTH 1000 0
DWIDTH 16 0
BBX 10 11 3 1
BITMAP
4080
2940
F080
0A00
1C00
E400
1E00
6000
8000
4000
3C00
ENDCHAR
STARTCHAR $304F
ENCODING 12367
SWIDTH 1000 0
DWIDTH 16 0
BBX 4 10 5 2
BITMAP
10
10
20
40
80
80
40
20
10
10
ENDCHAR
STARTCHAR $3050
ENCODING 12368
SWIDTH 1000 0
DWIDTH 16 0
BBX 9 10 4 2
BITMAP
1100
1480
2200
4000
8000
8000
4000
2000
1000
1000
ENDCHAR
STARTCHAR $3051
ENCODING 12369
SWIDTH 1000 0
DWIDTH 16 0
BBX 9 11 3 1
BITMAP
4200
4200
4380
8E00
8200
8200
A200
C200
4200
0400
0800
ENDCHAR
STARTCHAR $3052
ENCODING 12370
SWIDTH 1000 0
DWIDTH 16 0
BBX 11 12 2 1
BITMAP
0040
42A0
4240
42C0
4F00
8200
8200
A200
C200
4200
0400
0800
ENDCHAR
STARTCHAR $3053
ENCODING 12371
SWIDTH 1000 0
DWIDTH 16 0
BBX 8 10 3 2
BITMAP
20
1F
04
00
00
00
80
80
41
3E
ENDCHAR
STARTCHAR $3054
ENCODING 12372
SWIDTH 1000 0
DWIDTH 16 0
BBX 10 10 3 2
BITMAP
0280
3140
0C00
1000
0000
0000
0000
8000
8000
7F00
ENDCHAR
STARTCHAR $3055
ENCODING 12373
SWIDTH 1000 0
DWIDTH 16 0
BBX 7 11 4 2
BITMAP
20
40
48
30
C8
04
7E
80
80
80
7C
ENDCHAR
STARTCHAR $3056
ENCODING 12374
SWIDTH 1000 0
DWIDTH 16 0
BBX 11 11 3 2
BITMAP
2000
4140
24A0
1800
E800
0400
3E00
4000
8000
8000
7C00
ENDCHAR
STARTCHAR $3057
ENCODING 12375
SWIDTH 1000 0
DWIDTH 16 0
BBX 6 10 5 2
BITMAP
80
80
80
80
80
80
84
88
90
60
ENDCHAR
STARTCHAR $3058
ENCODING 12376
SWIDTH 1000 0
DWIDTH 16 0
BBX 7 10 4 2
BITMAP
84
92
88
80
80
80
82
84
88
70
ENDCHAR
STARTCHAR $3059
ENCODING 12377
SWIDTH 1000 0
DWIDTH 16 0
BBX 10 12 3 1
BITMAP
0800
0400
0400
1FC0
E400
0C00
1400
1400
0C00
0400
0800
1000
ENDCHAR
STARTCHAR $305A
ENCODING 12378
SWIDTH 1000 0
DWIDTH 16 0
BBX 11 12 2 1
BITMAP
0840
04A0
0440
1FC0
E400
0C00
1400
1400
0C00
0400
0800
1000
ENDCHAR
STARTCHAR $305B
ENCODING 12379
SWIDTH 1000 0
DWIDTH 16 0
BBX 9 9 3 3
BITMAP
0600
0200
2200
2780
3A00
E200
2600
2000
1F00
ENDCHAR
STARTCHAR $305C
ENCODING 12380
SWIDTH 1000 0
DWIDTH 16 0
BBX 12 9 2 3
BITMAP
0320
0150
1120
17C0
F900
1100
1200
1000
0F80
ENDCHAR
STARTCHAR $305D
ENCODING 12381
SWIDTH 1000 0
DWIDTH 16 0
BBX 9 11 2 1
BITMAP
1F00
0200
0400
0980
1E00
E400
0800
0800
0800
0800
0700
ENDCHAR
STARTCHAR $305E
ENCODING 12382
SWIDTH 1000 0
DWIDTH 16 0
BBX 11 11 3 2
BITMAP
0C00
7640
08A0
1040
2780
7800
C800
1000
1000
1000
0E00
ENDCHAR
STARTCHAR $305F
ENCODING 12383
SWIDTH 1000 0
DWIDTH 16 0
BBX 9 10 3 2
BITMAP
1000
1000
1800
6300
2180
2200
4000
4000
9000
0F00
ENDCHAR
STARTCHAR $3060
ENCODING 12384
SWIDTH 1000 0
DWIDTH 16 0
BBX 11 10 3 2
BITMAP
3140
20A0
3800
E300
4080
4100
4000
9000
9000
0F00
ENDCHAR
STARTCHAR $3061
ENCODING 12385
SWIDTH 1000 0
DWIDTH 16 0
BBX 8 10 4 2
BITMAP
20
20
38
C0
5C
62
41
81
02
0C
ENDCHAR
STARTCHAR $3062
ENCODING 12386
SWIDTH 1000 0
DWIDTH 16 0
BBX 10 12 3 1
BITMAP
2000
2080
2540
F880
2000
2000
5E00
6100
C100
0100
0200
1C00
ENDCHAR
STARTCHAR $3063
ENCODING 12387
SWIDTH 1000 0
DWIDTH 16 0
BBX 8 6 3 4
BITMAP
1E
E1
01
01
02
0C
ENDCHAR
STARTCHAR $3064
ENCODING 12388
SWIDTH 1000 0
DWIDTH 16 0
BBX 10 7 2 3
BITMAP
0F80
F040
0040
0040
0080
0100
0600
ENDCHAR
STARTCHAR $3065
ENCODING 12389
SWIDTH 1000 0
DWIDTH 16 0
BBX 11 11 2 2
BITMAP
0040
00A0
0040
0700
1880
E040
0040
0040
0080
0300
0C00
ENDCHAR
STARTCHAR $3066
ENCODING 12390
SWIDTH 1000 0
DWIDTH 16 0
BBX 9 9 3 2
BITMAP
0780
FC00
0800
1000
1000
1000
1000
0800
0700
ENDCHAR
STARTCHAR $3067
ENCODING 12391
SWIDTH 1000 0
DWIDTH 16 0
BBX 10 9 3 2
BITMAP
0700
3C00
CA80
1140
2000
2000
2000
1000
0E00
ENDCHAR
STARTCHAR $3068
ENCODING 12392
SWIDTH 1000 0
DWIDTH 16 0
BBX 7 10 4 2
BITMAP
20
20
20
24
38
40
80
80
82
7C
ENDCHAR
STARTCHAR $3069
ENCODING 12393
SWIDTH 1000 0
DWIDTH 16 0
BBX 9 10 4 2
BITMAP
2000
2100
2280
2100
3C00
4000
8000
8000
8000
7E00
ENDCHAR
STARTCHAR $306A
ENCODING 12394
SWIDTH 1000 0
DWIDTH 16 0
BBX 8 11 3 1
BITMAP
20
38
E1
43
44
84
04
1E
25
24
18
ENDCHAR
STARTCHAR $306B
ENCODING 12395
SWIDTH 1000 0
DWIDTH 16 0
BBX 9 9 3 3
BITMAP
4000
4F00
8200
8000
8000
9000
9000
CF80
4000
ENDCHAR
STARTCHAR $306C
ENCODING 12396
SWIDTH 1000 0
DWIDTH 16 0
BBX 9 9 3 3
BITMAP
1000
9700
9880
B080
5080
9080
D280
A500
D680
ENDCHAR
STARTCHAR $306D
ENCODING 12397
SWIDTH 1000 0
DWIDTH 16 0
BBX 9 9 3 3
BITMAP
2000
3700
E880
3080
2080
6080
A680
E900
2E80
ENDCHAR
STARTCHAR $306E
ENCODING 12398
SWIDTH 1000 0
DWIDTH 16 0
BBX 9 9 3 3
BITMAP
1E00
2900
4880
9080
9080
A080
4080
0100
0600
ENDCHAR
STARTCHAR $306F
ENCODING 12399
SWIDTH 1000 0
DWIDTH 16 0
BBX 9 9 3 2
BITMAP
4200
4380
8E00
8200
8200
A200
CF00
5280
0C00
ENDCHAR
STARTCHAR $3070
ENCODING 12400
SWIDTH 1000 0
DWIDTH 16 0
BBX 11 11 2 2
BITMAP
0040
00A0
4240
4380
4E00
8200
8200
A200
4F00
5280
0C00
ENDCHAR
STARTCHAR $3071
ENCODING 12401
SWIDTH 1000 0
DWIDTH 16 0
BBX 12 12 2 2
BITMAP
0070
0050
4270
4100
4180
8700
8100
8100
A100
A700
4AC0
0400
ENDCHAR
STARTCHAR $3072
ENCODING 12402
SWIDTH 1000 0
DWIDTH 16 0
BBX 9 10 3 2
BITMAP
0200
E200
2300
4280
8280
8200
8200
8400
8800
7000
ENDCHAR
STARTCHAR $3073
ENCODING 12403
SWIDTH 1000 0
DWIDTH 16 0
BBX 11 11 2 2
BITMAP
0040
00A0
3140
D100
2180
2140
4100
4200
4200
4400
3800
ENDCHAR
STARTCHAR $3074
ENCODING 12404
SWIDTH 1000 0
DWIDTH 16 0
BBX 12 11 2 2
BITMAP
0070
0050
3170
D100
2180
4140
8100
8200
8200
4400
3800
ENDCHAR
STARTCHAR $3075
ENCODING 12405
SWIDTH 1000 0
DWIDTH 16 0
BBX 10 10 2 2
BITMAP
0800
0400
0800
0800
0400
0780
1A40
22C0
D200
0C00
ENDCHAR
STARTCHAR $3076
ENCODING 12406
SWIDTH 1000 0
DWIDTH 16 0
BBX 11 11 2 2
BITMAP
0040
0820
0480
0840
0800
0800
0780
1A40
22E0
D200
0C00
ENDCHAR
STARTCHAR $3077
ENCODING 12407
SWIDTH 1000 0
DWIDTH 16 0
BBX 11 11 2 2
BITMAP
00E0
08A0
04E0
0800
0800
0800
0780
1A40
22C0
C200
0C00
ENDCHAR
STARTCHAR $3078
ENCODING 12408
SWIDTH 1000 0
DWIDTH 16 0
BBX 11 4 2 5
BITMAP
1C00
2200
C180
0060
ENDCHAR
STARTCHAR $3079
ENCODING 12409
SWIDTH 1000 0
DWIDTH 16 0
BBX 11 7 2 5
BITMAP
0040
0120
0080
1800
2600
C180
0060
ENDCHAR
STARTCHAR $307A
ENCODING 12410
SWIDTH 1000 0
DWIDTH 16 0
BBX 10 7 3 5
BITMAP
0380
0280
0380
3000
4800
8600
01C0
ENDCHAR
STARTCHAR $307B
ENCODING 12411
SWIDTH 1000 0
DWIDTH 16 0
BBX 9 10 3 2
BITMAP
4380
4E00
8380
8E00
8200
8200
A200
CF00
5280
4C00
ENDCHAR
STARTCHAR $307C
ENCODING 12412
SWIDTH 1000 0
DWIDTH 16 0
BBX 12 10 2 2
BITMAP
4120
4E50
43A0
8E00
8200
8200
A200
A700
6A80
0C00
ENDCHAR
STARTCHAR $307D
ENCODING 12413
SWIDTH 1000 0
DWIDTH 16 0
BBX 12 11 2 2
BITMAP
0070
4350
4E70
8380
8E00
8200
8200
A200
AF00
5280
0C00
ENDCHAR
STARTCHAR $307E
ENCODING 12414
SWIDTH 1000 0
DWIDTH 16 0
BBX 7 11 3 2
BITMAP
08
08
0A
7C
08
0E
38
08
78
8C
72
ENDCHAR
STARTCHAR $307F
ENCODING 12415
SWIDTH 1000 0
DWIDTH 16 0
BBX 10 9 2 3
BITMAP
1C00
0400
0900
0900
3F00
5180
9240
6200
0400
ENDCHAR
STARTCHAR $3080
ENCODING 12416
SWIDTH 1000 0
DWIDTH 16 0
BBX 9 10 3 2
BITMAP
2000
3000
E100
2280
6280
A200
C200
4200
4200
3C00
ENDCHAR
STARTCHAR $3081
ENCODING 12417
SWIDTH 1000 0
DWIDTH 16 0
BBX 9 9 3 3
BITMAP
0400
4400
7E00
4900
A880
9080
A880
4100
0200
ENDCHAR
STARTCHAR $3082
ENCODING 12418
SWIDTH 1000 0
DWIDTH 16 0
BBX 7 10 4 2
BITMAP
10
10
70
30
60
A0
72
42
42
3C
ENDCHAR
STARTCHAR $3083
ENCODING 12419
SWIDTH 1000 0
DWIDTH 16 0
BBX 9 8 3 3
BITMAP
3800
4F00
3080
D100
1200
0800
0800
0800
ENDCHAR
STARTCHAR $3084
ENCODING 12420
SWIDTH 1000 0
DWIDTH 16 0
BBX 10 10 2 2
BITMAP
0400
3E00
27C0
3840
D040
0980
0400
0400
0200
0200
ENDCHAR
STARTCHAR $3085
ENCODING 12421
SWIDTH 1000 0
DWIDTH 16 0
BBX 9 9 3 3
BITMAP
0800
9400
5F00
B480
B480
D480
4900
0E00
1000
ENDCHAR
STARTCHAR $3086
ENCODING 12422
SWIDTH 1000 0
DWIDTH 16 0
BBX 10 10 2 2
BITMAP
0600
4B80
4E40
9240
B240
D240
CA40
4780
0400
1800
ENDCHAR
STARTCHAR $3087
ENCODING 12423
SWIDTH 1000 0
DWIDTH 16 0
BBX 6 9 4 3
BITMAP
10
10
1C
10
10
10
78
94
60
ENDCHAR
STARTCHAR $3088
ENCODING 12424
SWIDTH 1000 0
DWIDTH 16 0
BBX 8 10 3 2
BITMAP
08
08
0F
08
08
08
08
7C
8A
70
ENDCHAR
STARTCHAR $3089
ENCODING 12425
SWIDTH 1000 0
DWIDTH 16 0
BBX 7 11 4 2
BITMAP
40
20
30
40
80
9C
A2
C2
02
04
18
ENDCHAR
STARTCHAR $308A
ENCODING 12426
SWIDTH 1000 0
DWIDTH 16 0
BBX 5 10 5 2
BITMAP
80
B8
C8
88
88
88
08
08
10
20
ENDCHAR
STARTCHAR $308B
ENCODING 12427
SWIDTH 1000 0
DWIDTH 16 0
BBX 8 10 3 2
BITMAP
2C
34
08
10
3E
61
C1
99
26
1C
ENDCHAR
STARTCHAR $308C
ENCODING 12428
SWIDTH 1000 0
DWIDTH 16 0
BBX 10 9 3 3
BITMAP
2000
2600
3900
F100
2200
2200
6200
A240
2180
ENDCHAR
STARTCHAR $308D
ENCODING 12429
SWIDTH 1000 0
DWIDTH 16 0
BBX 9 10 3 2
BITMAP
0E00
7400
0800
1E00
2100
4080
8080
0080
0100
0E00
ENDCHAR
STARTCHAR $308E
ENCODING 12430
SWIDTH 1000 0
DWIDTH 16 0
BBX 8 7 4 4
BITMAP
20
2C
F2
21
61
A1
62
ENDCHAR
STARTCHAR $308F
ENCODING 12431
SWIDTH 1000 0
DWIDTH 16 0
BBX 10 9 3 3
BITMAP
2000
2000
3300
EC80
3040
2040
6040
A080
2100
ENDCHAR
STARTCHAR $3090
ENCODING 12432
SWIDTH 1000 0
DWIDTH 16 0
BBX 9 9 3 3
BITMAP
3800
4800
0E00
3100
5080
9080
A680
A900
4E00
ENDCHAR
STARTCHAR $3091
ENCODING 12433
SWIDTH 1000 0
DWIDTH 16 0
BBX 9 10 3 2
BITMAP
1C00
2800
1E00
2100
5200
1C00
2000
E780
9880
0100
ENDCHAR
STARTCHAR $3092
ENCODING 12434
SWIDTH 1000 0
DWIDTH 16 0
BBX 9 11 3 2
BITMAP
0800
0C00
3800
1000
3180
4E00
8800
1800
2800
4000
3E00
ENDCHAR
STARTCHAR $3093
ENCODING 12435
SWIDTH 1000 0
DWIDTH 16 0
BBX 9 10 2 2
BITMAP
0800
0800
1000
1000
2C00
3400
4400
4480
8500
0200
ENDCHAR
STARTCHAR $30A1
ENCODING 12449
SWIDTH 1000 0
DWIDTH 16 0
BBX 7 7 4 3
BITMAP
3E
C4
18
10
20
20
40
ENDCHAR
STARTCHAR $30A2
ENCODING 12450
SWIDTH 1000 0
DWIDTH 16 0
BBX 8 8 3 4
BITMAP
8F
72
0C
08
08
10
10
20
ENDCHAR
STARTCHAR $30A3
ENCODING 12451
SWIDTH 1000 0
DWIDTH 16 0
BBX 5 9 4 4
BITMAP
08
08
10
10
30
D0
10
10
10
ENDCHAR
STARTCHAR $30A4
ENCODING 12452
SWIDTH 1000 0
DWIDTH 16 0
BBX 5 10 5 3
BITMAP
08
08
10
10
30
50
90
10
10
10
ENDCHAR
STARTCHAR $30A5
ENCODING 12453
SWIDTH 1000 0
DWIDTH 16 0
BBX 6 7 5 5
BITMAP
20
BC
E4
88
08
10
20
ENDCHAR
STARTCHAR $30A6
ENCODING 12454
SWIDTH 1000 0
DWIDTH 16 0
BBX 7 9 4 3
BITMAP
10
10
9E
E2
82
84
04
08
10
ENDCHAR
STARTCHAR $30A7
ENCODING 12455
SWIDTH 1000 0
DWIDTH 16 0
BBX 8 6 3 6
BITMAP
06
38
08
08
8F
70
ENDCHAR
STARTCHAR $30A8
ENCODING 12456
SWIDTH 1000 0
DWIDTH 16 0
BBX 9 6 3 5
BITMAP
0E00
3800
0800
0800
0F80
F000
ENDCHAR
STARTCHAR $30A9
ENCODING 12457
SWIDTH 1000 0
DWIDTH 16 0
BBX 7 8 4 4
BITMAP
08
08
FE
18
28
48
88
18
ENDCHAR
STARTCHAR $30AA
ENCODING 12458
SWIDTH 1000 0
DWIDTH 16 0
BBX 9 9 3 3
BITMAP
0400
0400
0780
FC00
0C00
1400
2400
4400
0C00
ENDCHAR
STARTCHAR $30AB
ENCODING 12459
SWIDTH 1000 0
DWIDTH 16 0
BBX 8 10 4 3
BITMAP
08
08
08
0F
71
12
22
44
94
08
ENDCHAR
STARTCHAR $30AC
ENCODING 12460
SWIDTH 1000 0
DWIDTH 16 0
BBX 11 11 3 2
BITMAP
0040
0920
0C80
0800
7F00
0900
1100
1200
2200
5400
8C00
ENDCHAR
STARTCHAR $30AD
ENCODING 12461
SWIDTH 1000 0
DWIDTH 16 0
BBX 8 11 3 2
BITMAP
30
10
16
78
08
0F
F8
04
04
02
02
ENDCHAR
STARTCHAR $30AE
ENCODING 12462
SWIDTH 1000 0
DWIDTH 16 0
BBX 9 11 4 3
BITMAP
6100
2480
2200
3800
D000
1E00
F000
1000
0800
0800
0800
ENDCHAR
STARTCHAR $30AF
ENCODING 12463
SWIDTH 1000 0
DWIDTH 16 0
BBX 7 10 4 3
BITMAP
20
2E
32
44
84
08
08
10
20
40
ENDCHAR
STARTCHAR $30B0
ENCODING 12464
SWIDTH 1000 0
DWIDTH 16 0
BBX 10 10 4 3
BITMAP
2080
2240
3D00
4400
8400
0800
1000
2000
4000
8000
ENDCHAR
STARTCHAR $30B1
ENCODING 12465
SWIDTH 1000 0
DWIDTH 16 0
BBX 8 11 3 2
BITMAP
10
10
10
27
7C
84
04
08
10
20
40
ENDCHAR
STARTCHAR $30B2
ENCODING 12466
SWIDTH 1000 0
DWIDTH 16 0
BBX 11 10 3 3
BITMAP
2140
20A0
2700
3C00
4400
8400
0800
0800
1000
2000
ENDCHAR
STARTCHAR $30B3
ENCODING 12467
SWIDTH 1000 0
DWIDTH 16 0
BBX 7 7 4 4
BITMAP
1E
62
04
04
04
3C
C0
ENDCHAR
STARTCHAR $30B4
ENCODING 12468
SWIDTH 1000 0
DWIDTH 16 0
BBX 10 9 4 4
BITMAP
0080
0240
0D00
F400
0400
0400
0400
1C00
E000
ENDCHAR
STARTCHAR $30B5
ENCODING 12469
SWIDTH 1000 0
DWIDTH 16 0
BBX 10 11 3 2
BITMAP
0600
2200
2200
23C0
FE00
2200
2200
0200
0400
0400
0800
ENDCHAR
STARTCHAR $30B6
ENCODING 12470
SWIDTH 1000 0
DWIDTH 16 0
BBX 12 11 2 2
BITMAP
02A0
3250
1200
13C0
FE00
1200
1200
1200
0200
0400
0800
ENDCHAR
STARTCHAR $30B7
ENCODING 12471
SWIDTH 1000 0
DWIDTH 16 0
BBX 8 9 4 4
BITMAP
20
10
00
81
42
04
08
90
60
ENDCHAR
STARTCHAR $30B8
ENCODING 12472
SWIDTH 1000 0
DWIDTH 16 0
BBX 10 10 4 2
BITMAP
0080
0240
2100
1000
8100
4200
0400
0800
5000
2000
ENDCHAR
STARTCHAR $30B9
ENCODING 12473
SWIDTH 1000 0
DWIDTH 16 0
BBX 8 8 4 4
BITMAP
8C
74
08
08
14
22
41
80
ENDCHAR
STARTCHAR $30BA
ENCODING 12474
SWIDTH 1000 0
DWIDTH 16 0
BBX 10 10 4 3
BITMAP
0080
0240
0100
3C00
C800
0800
1000
2C00
4600
8200
ENDCHAR
STARTCHAR $30BB
ENCODING 12475
SWIDTH 1000 0
DWIDTH 16 0
BBX 9 9 3 3
BITMAP
1000
1000
1700
3900
D200
1000
1000
1080
0F00
ENDCHAR
STARTCHAR $30BC
ENCODING 12476
SWIDTH 1000 0
DWIDTH 16 0
BBX 11 10 2 3
BITMAP
0040
0920
0880
0800
0F80
F900
0800
0800
0800
07C0
ENDCHAR
STARTCHAR $30BD
ENCODING 12477
SWIDTH 1000 0
DWIDTH 16 0
BBX 8 9 4 4
BITMAP
02
C3
22
04
04
08
10
20
C0
ENDCHAR
STARTCHAR $30BE
ENCODING 12478
SWIDTH 1000 0
DWIDTH 16 0
BBX 12 11 3 3
BITMAP
0020
0090
0040
C100
2100
0200
0200
0400
0800
1000
2000
ENDCHAR
STARTCHAR $30BF
ENCODING 12479
SWIDTH 1000 0
DWIDTH 16 0
BBX 7 11 4 2
BITMAP
10
10
3E
22
44
A4
18
10
20
40
80
ENDCHAR
STARTCHAR $30C0
ENCODING 12480
SWIDTH 1000 0
DWIDTH 16 0
BBX 11 11 3 2
BITMAP
0040
1120
1080
1E00
2200
6400
9400
0800
1000
2000
C000
ENDCHAR
STARTCHAR $30C1
ENCODING 12481
SWIDTH 1000 0
DWIDTH 16 0
BBX 10 10 3 3
BITMAP
0200
0400
1C00
0400
07C0
FC00
0400
0800
1000
2000
ENDCHAR
STARTCHAR $30C2
ENCODING 12482
SWIDTH 1000 0
DWIDTH 16 0
BBX 11 10 3 3
BITMAP
0440
0D20
3880
0800
0F80
F800
0800
1000
1000
2000
ENDCHAR
STARTCHAR $30C3
ENCODING 12483
SWIDTH 1000 0
DWIDTH 16 0
BBX 7 8 4 5
BITMAP
20
92
42
04
08
10
20
40
ENDCHAR
STARTCHAR $30C4
ENCODING 12484
SWIDTH 1000 0
DWIDTH 16 0
BBX 8 8 3 5
BITMAP
11
89
49
02
02
04
08
30
ENDCHAR
STARTCHAR $30C5
ENCODING 12485
SWIDTH 1000 0
DWIDTH 16 0
BBX 11 10 4 3
BITMAP
0140
00A0
9200
4A00
0200
0400
0400
0800
1000
2000
ENDCHAR
STARTCHAR $30C6
ENCODING 12486
SWIDTH 1000 0
DWIDTH 16 0
BBX 9 10 3 3
BITMAP
0300
7C00
0000
0F80
F400
0400
0800
0800
1000
6000
ENDCHAR
STARTCHAR $30C7
ENCODING 12487
SWIDTH 1000 0
DWIDTH 16 0
BBX 12 11 3 2
BITMAP
06A0
3850
0000
0380
FC00
0400
0800
0800
1000
2000
4000
ENDCHAR
STARTCHAR $30C8
ENCODING 12488
SWIDTH 1000 0
DWIDTH 16 0
BBX 5 11 6 2
BITMAP
80
80
80
80
E0
90
88
80
80
80
80
ENDCHAR
STARTCHAR $30C9
ENCODING 12489
SWIDTH 1000 0
DWIDTH 16 0
BBX 8 11 6 2
BITMAP
02
89
84
80
E0
90
88
80
80
80
80
ENDCHAR
STARTCHAR $30CA
ENCODING 12490
SWIDTH 1000 0
DWIDTH 16 0
BBX 9 11 3 2
BITMAP
1800
0800
0800
0F80
F800
0800
0800
0800
1000
1000
2000
ENDCHAR
STARTCHAR $30CB
ENCODING 12491
SWIDTH 1000 0
DWIDTH 16 0
BBX 9 6 3 6
BITMAP
0E00
7000
0000
0000
0380
FC00
ENDCHAR
STARTCHAR $30CC
ENCODING 12492
SWIDTH 1000 0
DWIDTH 16 0
BBX 7 8 4 4
BITMAP
0C
F4
04
34
08
14
22
C0
ENDCHAR
STARTCHAR $30CD
ENCODING 12493
SWIDTH 1000 0
DWIDTH 16 0
BBX 8 12 4 1
BITMAP
18
08
00
38
C8
10
36
51
90
10
10
10
ENDCHAR
STARTCHAR $30CE
ENCODING 12494
SWIDTH 1000 0
DWIDTH 16 0
BBX 7 9 4 4
BITMAP
04
06
04
04
08
08
10
20
C0
ENDCHAR
STARTCHAR $30CF
ENCODING 12495
SWIDTH 1000 0
DWIDTH 16 0
BBX 9 6 3 5
BITMAP
2200
2100
2100
4080
4080
8000
ENDCHAR
STARTCHAR $30D0
ENCODING 12496
SWIDTH 1000 0
DWIDTH 16 0
BBX 11 8 3 5
BITMAP
0040
0120
2080
2200
2100
4080
4080
8080
ENDCHAR
STARTCHAR $30D1
ENCODING 12497
SWIDTH 1000 0
DWIDTH 16 0
BBX 11 9 3 4
BITMAP
00E0
00A0
20E0
2200
2100
2080
4080
4080
8000
ENDCHAR
STARTCHAR $30D2
ENCODING 12498
SWIDTH 1000 0
DWIDTH 16 0
BBX 6 8 5 5
BITMAP
80
80
8C
F0
80
80
80
7C
ENDCHAR
STARTCHAR $30D3
ENCODING 12499
SWIDTH 1000 0
DWIDTH 16 0
BBX 8 9 4 4
BITMAP
02
89
84
80
9C
E0
80
80
7E
ENDCHAR
STARTCHAR $30D4
ENCODING 12500
SWIDTH 1000 0
DWIDTH 16 0
BBX 10 9 4 4
BITMAP
01C0
8140
85C0
8C00
B000
C000
8000
8000
7E00
ENDCHAR
STARTCHAR $30D5
ENCODING 12501
SWIDTH 1000 0
DWIDTH 16 0
BBX 8 8 3 4
BITMAP
8F
71
02
02
04
08
10
60
ENDCHAR
STARTCHAR $30D6
ENCODING 12502
SWIDTH 1000 0
DWIDTH 16 0
BBX 11 10 3 3
BITMAP
0140
00A0
0700
F900
0200
0200
0400
0800
1000
6000
ENDCHAR
STARTCHAR $30D7
ENCODING 12503
SWIDTH 1000 0
DWIDTH 16 0
BBX 11 11 3 3
BITMAP
00E0
00A0
00E0
1F00
E100
0200
0200
0400
0800
1000
6000
ENDCHAR
STARTCHAR $30D8
ENCODING 12504
SWIDTH 1000 0
DWIDTH 16 0
BBX 11 5 2 7
BITMAP
1800
A400
4300
01C0
0060
ENDCHAR
STARTCHAR $30D9
ENCODING 12505
SWIDTH 1000 0
DWIDTH 16 0
BBX 11 7 2 6
BITMAP
0040
1120
2880
4400
C200
0180
00C0
ENDCHAR
STARTCHAR $30DA
ENCODING 12506
SWIDTH 1000 0
DWIDTH 16 0
BBX 11 7 2 6
BITMAP
00E0
18A0
24E0
4200
C100
00C0
0040
ENDCHAR
STARTCHAR $30DB
ENCODING 12507
SWIDTH 1000 0
DWIDTH 16 0
BBX 9 9 3 4
BITMAP
0800
0400
0400
0780
7C00
0500
2480
4480
8C00
ENDCHAR
STARTCHAR $30DC
ENCODING 12508
SWIDTH 1000 0
DWIDTH 16 0
BBX 11 9 3 4
BITMAP
1040
0920
0880
8F00
7800
0800
4900
4880
9800
ENDCHAR
STARTCHAR $30DD
ENCODING 12509
SWIDTH 1000 0
DWIDTH 16 0
BBX 11 10 3 3
BITMAP
00E0
18A0
08E0
8F00
7800
0A00
4900
4880
8800
1800
ENDCHAR
STARTCHAR $30DE
ENCODING 12510
SWIDTH 1000 0
DWIDTH 16 0
BBX 9 7 3 4
BITMAP
0F80
F100
0200
1400
0800
0400
0200
ENDCHAR
STARTCHAR $30DF
ENCODING 12511
SWIDTH 1000 0
DWIDTH 16 0
BBX 4 10 6 3
BITMAP
C0
30
10
C0
30
10
00
C0
30
10
ENDCHAR
STARTCHAR $30E0
ENCODING 12512
SWIDTH 1000 0
DWIDTH 16 0
BBX 8 9 4 4
BITMAP
10
10
30
20
24
42
47
F9
80
ENDCHAR
STARTCHAR $30E1
ENCODING 12513
SWIDTH 1000 0
DWIDTH 16 0
BBX 7 10 4 3
BITMAP
04
06
04
24
14
08
14
22
42
80
ENDCHAR
STARTCHAR $30E2
ENCODING 12514
SWIDTH 1000 0
DWIDTH 16 0
BBX 9 9 3 4
BITMAP
0700
7800
1000
1000
1F80
F000
1000
1000
0F80
ENDCHAR
STARTCHAR $30E3
ENCODING 12515
SWIDTH 1000 0
DWIDTH 16 0
BBX 7 8 4 4
BITMAP
40
2E
34
D0
10
08
08
04
ENDCHAR
STARTCHAR $30E4
ENCODING 12516
SWIDTH 1000 0
DWIDTH 16 0
BBX 9 10 3 3
BITMAP
6000
2100
1780
1900
EA00
0800
0400
0400
0200
0200
ENDCHAR
STARTCHAR $30E5
ENCODING 12517
SWIDTH 1000 0
DWIDTH 16 0
BBX 9 6 3 6
BITMAP
0600
3A00
0400
0400
0780
F800
ENDCHAR
STARTCHAR $30E6
ENCODING 12518
SWIDTH 1000 0
DWIDTH 16 0
BBX 11 7 2 5
BITMAP
0300
3D00
0100
0200
0200
03E0
FC00
ENDCHAR
STARTCHAR $30E7
ENCODING 12519
SWIDTH 1000 0
DWIDTH 16 0
BBX 6 7 4 5
BITMAP
1C
64
1C
64
04
38
C0
ENDCHAR
STARTCHAR $30E8
ENCODING 12520
SWIDTH 1000 0
DWIDTH 16 0
BBX 8 8 3 4
BITMAP
0F
71
01
0E
72
02
0E
F2
ENDCHAR
STARTCHAR $30E9
ENCODING 12521
SWIDTH 1000 0
DWIDTH 16 0
BBX 7 11 4 2
BITMAP
0E
70
00
0E
F2
02
04
04
08
10
60
ENDCHAR
STARTCHAR $30EA
ENCODING 12522
SWIDTH 1000 0
DWIDTH 16 0
BBX 6 10 4 2
BITMAP
04
84
84
84
84
84
08
08
10
20
ENDCHAR
STARTCHAR $30EB
ENCODING 12523
SWIDTH 1000 0
DWIDTH 16 0
BBX 9 8 3 4
BITMAP
0400
4400
4400
4400
4480
4500
4600
8000
ENDCHAR
STARTCHAR $30EC
ENCODING 12524
SWIDTH 1000 0
DWIDTH 16 0
BBX 6 8 5 4
BITMAP
80
80
80
80
84
88
B0
C0
ENDCHAR
STARTCHAR $30ED
ENCODING 12525
SWIDTH 1000 0
DWIDTH 16 0
BBX 8 7 4 5
BITMAP
07
F9
81
82
82
82
FE
ENDCHAR
STARTCHAR $30EE
ENCODING 12526
SWIDTH 1000 0
DWIDTH 16 0
BBX 6 8 5 4
BITMAP
1C
E4
84
88
08
10
20
40
ENDCHAR
STARTCHAR $30EF
ENCODING 12527
SWIDTH 1000 0
DWIDTH 16 0
BBX 7 10 4 3
BITMAP
0E
F2
82
82
84
04
08
10
20
40
ENDCHAR
STARTCHAR $30F0
ENCODING 12528
SWIDTH 1000 0
DWIDTH 16 0
BBX 9 11 3 2
BITMAP
0400
0400
0700
7C00
2400
2780
FC00
0400
0400
0400
0400
ENDCHAR
STARTCHAR $30F1
ENCODING 12529
SWIDTH 1000 0
DWIDTH 16 0
BBX 10 7 2 5
BITMAP
0700
3980
0200
0400
0400
07C0
FC00
ENDCHAR
STARTCHAR $30F2
ENCODING 12530
SWIDTH 1000 0
DWIDTH 16 0
BBX 7 10 4 3
BITMAP
0E
F2
02
02
FC
04
04
08
10
60
ENDCHAR
STARTCHAR $30F3
ENCODING 12531
SWIDTH 1000 0
DWIDTH 16 0
BBX 9 9 4 4
BITMAP
4000
2000
0080
0100
0200
0400
1800
E000
4000
ENDCHAR
STARTCHAR $30F4
ENCODING 12532
SWIDTH 1000 0
DWIDTH 16 0
BBX 11 11 3 2
BITMAP
1140
10A0
9E00
E200
8200
8200
8400
0400
0800
1000
2000
ENDCHAR
STARTCHAR $30F5
ENCODING 12533
SWIDTH 1000 0
DWIDTH 16 0
BBX 7 9 4 4
BITMAP
10
10
1E
F2
12
24
44
94
08
ENDCHAR
STARTCHAR $30F6
ENCODING 12534
SWIDTH 1000 0
DWIDTH 16 0
BBX 8 9 4 4
BITMAP
20
20
47
78
88
08
10
20
40
ENDCHAR
STARTCHAR $3105
ENCODING 12549
SWIDTH 1000 0
DWIDTH 16 0
BBX 11 13 2 0
BITMAP
2000
3000
2000
43C0
FC60
0060
0040
0040
0080
0080
0080
0500
0200
ENDCHAR
STARTCHAR $3106
ENCODING 12550
SWIDTH 1000 0
DWIDTH 16 0
BBX 9 13 3 0
BITMAP
1000
3000
2000
5F80
E180
0100
2100
1A00
0400
0E00
1300
2000
C000
ENDCHAR
STARTCHAR $3107
ENCODING 12551
SWIDTH 1000 0
DWIDTH 16 0
BBX 10 9 2 2
BITMAP
01C0
FF40
4040
4040
4040
4040
4040
4080
4080
ENDCHAR
STARTCHAR $3108
ENCODING 12552
SWIDTH 1000 0
DWIDTH 16 0
BBX 11 11 2 1
BITMAP
07C0
F800
4000
4000
4000
4000
4000
4000
4000
4060
3F80
ENDCHAR
STARTCHAR $3109
ENCODING 12553
SWIDTH 1000 0
DWIDTH 16 0
BBX 11 13 2 0
BITMAP
1000
1000
3000
23E0
7C20
0420
0820
0840
1040
2040
4080
8280
0100
ENDCHAR
STARTCHAR $310A
ENCODING 12554
SWIDTH 1000 0
DWIDTH 16 0
BBX 12 12 1 1
BITMAP
0400
0600
0200
0200
03F0
FC00
0400
0400
0900
1080
27C0
3860
ENDCHAR
STARTCHAR $310B
ENCODING 12555
SWIDTH 1000 0
DWIDTH 16 0
BBX 9 13 3 0
BITMAP
0600
FA00
0200
0400
0980
1E80
0080
0080
0080
0100
0100
0A00
0400
ENDCHAR
STARTCHAR $310C
ENCODING 12556
SWIDTH 1000 0
DWIDTH 16 0
BBX 11 13 2 0
BITMAP
0300
2200
2200
2200
43E0
7C20
0420
0820
0840
1040
2040
C280
0100
ENDCHAR
STARTCHAR $310D
ENCODING 12557
SWIDTH 1000 0
DWIDTH 16 0
BBX 8 12 3 1
BITMAP
21
21
21
42
42
84
84
84
42
42
21
21
ENDCHAR
STARTCHAR $310E
ENCODING 12558
SWIDTH 1000 0
DWIDTH 16 0
BBX 13 12 1 0
BITMAP
01F8
FE00
0400
0400
09E0
0E20
0020
0040
0040
0040
0280
0100
ENDCHAR
STARTCHAR $310F
ENCODING 12559
SWIDTH 1000 0
DWIDTH 16 0
BBX 11 11 2 1
BITMAP
07E0
7800
2000
2000
2000
2000
2000
2000
4000
4000
8000
ENDCHAR
STARTCHAR $3110
ENCODING 12560
SWIDTH 1000 0
DWIDTH 16 0
BBX 6 13 4 0
BITMAP
04
04
84
C4
84
84
84
9C
E4
04
04
04
04
ENDCHAR
STARTCHAR $3111
ENCODING 12561
SWIDTH 1000 0
DWIDTH 16 0
BBX 6 11 4 1
BITMAP
18
10
20
20
40
80
40
20
10
08
0C
ENDCHAR
STARTCHAR $3112
ENCODING 12562
SWIDTH 1000 0
DWIDTH 16 0
BBX 11 12 2 0
BITMAP
07E0
FC00
0400
0400
0400
0400
0400
0400
0400
0400
0400
0400
ENDCHAR
STARTCHAR $3113
ENCODING 12563
SWIDTH 1000 0
DWIDTH 16 0
BBX 12 13 1 0
BITMAP
0200
0200
0200
2220
2220
2220
2220
23E0
3E20
0200
0200
03F0
FE00
ENDCHAR
STARTCHAR $3114
ENCODING 12564
SWIDTH 1000 0
DWIDTH 16 0
BBX 7 13 3 0
BITMAP
02
04
08
12
64
08
18
28
C8
08
08
08
08
ENDCHAR
STARTCHAR $3115
ENCODING 12565
SWIDTH 1000 0
DWIDTH 16 0
BBX 10 12 2 1
BITMAP
01C0
3E40
0080
0080
3F00
2000
2000
2000
2000
4000
4000
8000
ENDCHAR
STARTCHAR $3116
ENCODING 12566
SWIDTH 1000 0
DWIDTH 16 0
BBX 8 12 4 0
BITMAP
1E
E3
82
82
A2
92
92
82
82
BA
C6
02
ENDCHAR
STARTCHAR $3117
ENCODING 12567
SWIDTH 1000 0
DWIDTH 16 0
BBX 9 13 3 0
BITMAP
0380
FC80
2080
2080
2080
2100
2100
2500
2200
2000
2000
2000
2000
ENDCHAR
STARTCHAR $3118
ENCODING 12568
SWIDTH 1000 0
DWIDTH 16 0
BBX 13 13 1 0
BITMAP
0200
0200
0278
FF80
0400
0800
13C0
1C40
0040
0040
0080
0080
0100
ENDCHAR
STARTCHAR $3119
ENCODING 12569
SWIDTH 1000 0
DWIDTH 16 0
BBX 11 13 2 0
BITMAP
0400
0600
0400
0400
0800
0800
1000
1000
2080
4040
43E0
FC20
0020
ENDCHAR
STARTCHAR $311A
ENCODING 12570
SWIDTH 1000 0
DWIDTH 16 0
BBX 9 13 3 0
BITMAP
0180
8100
4200
2400
1800
0800
0800
0800
0800
0800
0800
0800
0800
ENDCHAR
STARTCHAR $311B
ENCODING 12571
SWIDTH 1000 0
DWIDTH 16 0
BBX 11 11 2 1
BITMAP
07E0
FC00
0400
0400
3C00
4000
8000
8000
8000
40C0
3F00
ENDCHAR
STARTCHAR $311C
ENCODING 12572
SWIDTH 1000 0
DWIDTH 16 0
BBX 12 13 2 0
BITMAP
0C00
0400
0400
1FF0
E400
0400
1C00
2000
4000
4000
4000
2060
1F80
ENDCHAR
STARTCHAR $311D
ENCODING 12573
SWIDTH 1000 0
DWIDTH 16 0
BBX 12 12 1 1
BITMAP
3180
1080
1080
1080
10F0
1F80
F080
1100
1100
1200
1000
0FF0
ENDCHAR
STARTCHAR $311E
ENCODING 12574
SWIDTH 1000 0
DWIDTH 16 0
BBX 11 13 2 0
BITMAP
01E0
FE00
0400
4400
4400
47C0
FC60
0460
0840
0840
1080
2080
4100
ENDCHAR
STARTCHAR $311F
ENCODING 12575
SWIDTH 1000 0
DWIDTH 16 0
BBX 12 12 2 0
BITMAP
3800
C800
0800
0800
0800
0800
0400
0400
0200
0100
0080
0070
ENDCHAR
STARTCHAR $3120
ENCODING 12576
SWIDTH 1000 0
DWIDTH 16 0
BBX 10 13 3 0
BITMAP
0800
0800
1000
1000
2100
4100
FE00
0400
0800
1100
2080
4FC0
F040
ENDCHAR
STARTCHAR $3121
ENCODING 12577
SWIDTH 1000 0
DWIDTH 16 0
BBX 10 12 2 0
BITMAP
0FC0
70C0
0080
0080
1900
0500
0200
0500
0880
1040
2000
C000
ENDCHAR
STARTCHAR $3122
ENCODING 12578
SWIDTH 1000 0
DWIDTH 16 0
BBX 10 13 3 0
BITMAP
0F00
F100
4100
4200
4200
8000
9FC0
E0C0
0080
0080
0100
0100
0200
ENDCHAR
STARTCHAR $3123
ENCODING 12579
SWIDTH 1000 0
DWIDTH 16 0
BBX 11 13 2 0
BITMAP
4000
4000
4000
4000
4000
8000
87E0
F820
0020
0020
0040
0040
0040
ENDCHAR
STARTCHAR $3124
ENCODING 12580
SWIDTH 1000 0
DWIDTH 16 0
BBX 12 13 2 0
BITMAP
0C00
0400
0400
05E0
FE00
0A00
0A00
1200
1200
2200
2200
4200
81F0
ENDCHAR
STARTCHAR $3125
ENCODING 12581
SWIDTH 1000 0
DWIDTH 16 0
BBX 12 12 1 1
BITMAP
0400
0600
0400
0400
0800
0800
0800
1000
1000
2000
4060
FFF0
ENDCHAR
STARTCHAR $3126
ENCODING 12582
SWIDTH 1000 0
DWIDTH 16 0
BBX 13 13 1 0
BITMAP
1100
1900
0900
0900
0900
0900
0900
1100
1100
1100
2108
4088
8078
ENDCHAR
STARTCHAR $3127
ENCODING 12583
SWIDTH 1000 0
DWIDTH 16 0
BBX 2 13 6 0
BITMAP
C0
40
40
40
40
40
40
40
40
40
40
C0
40
ENDCHAR
STARTCHAR $3128
ENCODING 12584
SWIDTH 1000 0
DWIDTH 16 0
BBX 10 11 2 1
BITMAP
0040
0040
2080
1080
0900
0500
0200
0500
0880
30C0
C040
ENDCHAR
STARTCHAR $3129
ENCODING 12585
SWIDTH 1000 0
DWIDTH 16 0
BBX 12 9 1 2
BITMAP
0020
4030
6030
4020
4020
4020
4020
47E0
F820
ENDCHAR
STARTCHAR $3220
ENCODING 12832
SWIDTH 1000 0
DWIDTH 16 0
BBX 15 13 0 0
BITMAP
1010
2008
4004
4004
8002
8002
9FF2
8002
8002
4004
4004
2008
1010
ENDCHAR
STARTCHAR $3221
ENCODING 12833
SWIDTH 1000 0
DWIDTH 16 0
BBX 15 13 0 0
BITMAP
1010
2008
4004
4FE4
8002
8002
8002
8002
8002
4004
5FF4
2008
1010
ENDCHAR
STARTCHAR $3222
ENCODING 12834
SWIDTH 1000 0
DWIDTH 16 0
BBX 15 13 0 0
BITMAP
1010
2008
4FE4
4004
8002
8002
8FE2
8002
8002
4004
5FF4
2008
1010
ENDCHAR
STARTCHAR $3223
ENCODING 12835
SWIDTH 1000 0
DWIDTH 16 0
BBX 15 13 0 0
BITMAP
1010
2008
4FF4
4A94
8A92
8A92
8A92
8CF2
8812
4FF4
4814
2008
1010
ENDCHAR
STARTCHAR $3224
ENCODING 12836
SWIDTH 1000 0
DWIDTH 16 0
BBX 15 13 0 0
BITMAP
1010
2008
4FE4
4104
8102
8102
87C2
8242
8242
4244
5FF4
2008
1010
ENDCHAR
STARTCHAR $3225
ENCODING 12837
SWIDTH 1000 0
DWIDTH 16 0
BBX 15 13 0 0
BITMAP
1010
2208
4104
4004
9FF2
8002
8282
8242
8422
4814
5014
2008
1010
ENDCHAR
STARTCHAR $3226
ENCODING 12838
SWIDTH 1000 0
DWIDTH 16 0
BBX 15 13 0 0
BITMAP
1010
2208
4204
4204
8272
8382
9E02
8202
8212
4214
41E4
2008
1010
ENDCHAR
STARTCHAR $3227
ENCODING 12839
SWIDTH 1000 0
DWIDTH 16 0
BBX 15 13 0 0
BITMAP
1010
2188
4084
4284
8282
8282
8442
8442
8442
4824
5014
2008
1010
ENDCHAR
STARTCHAR $3228
ENCODING 12840
SWIDTH 1000 0
DWIDTH 16 0
BBX 15 13 0 0
BITMAP
1010
2208
4204
4204
8FC2
8242
8242
8242
8442
4454
4874
2008
1010
ENDCHAR
STARTCHAR $3229
ENCODING 12841
SWIDTH 1000 0
DWIDTH 16 0
BBX 15 13 0 0
BITMAP
1010
2108
4104
4104
8102
9FF2
8102
8102
8102
4104
4104
2008
1010
ENDCHAR
STARTCHAR $4E00
ENCODING 19968
SWIDTH 1000 0
DWIDTH 16 0
BBX 14 2 1 6
BITMAP
FFFC
FFFC
ENDCHAR
STARTCHAR $4E01
ENCODING 19969
SWIDTH 1000 0
DWIDTH 16 0
BBX 14 14 1 -1
BITMAP
FFFC
FFFC
0300
0300
0300
0300
0300
0300
0300
0300
0300
0300
0F00
0E00
ENDCHAR
STARTCHAR $4E03
ENCODING 19971
SWIDTH 1000 0
DWIDTH 16 0
BBX 13 14 1 -1
BITMAP
0C00
0C00
0C00
0C38
0CF8
0FC0
FE00
EC00
0C00
0C00
0C18
0C18
0FF8
07F0
ENDCHAR
STARTCHAR $4E07
ENCODING 19975
SWIDTH 1000 0
DWIDTH 16 0
BBX 14 14 0 -1
BITMAP
FFFC
FFFC
0600
0600
07F0
07F0
0C30
0C30
0C30
1830
1830
3030
61E0
C0C0
ENDCHAR
STARTCHAR $4E08
ENCODING 19976
SWIDTH 1000 0
DWIDTH 16 0
BBX 14 15 1 -1
BITMAP
0180
0180
0180
FFF8
FFF8
0180
3180
3180
1980
0D80
0700
0F80
3DE0
F07C
C01C
ENDCHAR
STARTCHAR $4E09
ENCODING 19977
SWIDTH 1000 0
DWIDTH 16 0
BBX 13 12 1 0
BITMAP
7FF0
7FF0
0000
0000
0000
3FE0
3FE0
0000
0000
0000
FFF8
FFF8
ENDCHAR
STARTCHAR $4E0A
ENCODING 19978
SWIDTH 1000 0
DWIDTH 16 0
BBX 15 14 0 0
BITMAP
0300
0300
0300
0300
0300
03FC
03FC
0300
0300
0300
0300
0300
FFFE
FFFE
ENDCHAR
STARTCHAR $4E0B
ENCODING 19979
SWIDTH 1000 0
DWIDTH 16 0
BBX 15 14 0 -1
BITMAP
FFFE
FFFE
0300
0300
0340
0360
0330
0318
030C
0300
0300
0300
0300
0300
ENDCHAR
STARTCHAR $4E0C
ENCODING 19980
SWIDTH 1000 0
DWIDTH 16 0
BBX 15 14 0 -1
BITMAP
FFFE
FFFE
0C60
0C60
0C60
0C60
0C60
0C60
0C60
1860
1860
3060
6060
4060
ENDCHAR
STARTCHAR $4E0D
ENCODING 19981
SWIDTH 1000 0
DWIDTH 16 0
BBX 13 14 1 -1
BITMAP
FFF8
FFF8
0300
0300
0600
0E40
1E60
3630
6618
C608
0600
0600
0600
0600
ENDCHAR
STARTCHAR $4E0E
ENCODING 19982
SWIDTH 1000 0
DWIDTH 16 0
BBX 13 15 1 -1
BITMAP
1800
1800
1FF8
1FF8
3000
3000
3FF0
3FF0
0030
FFB0
FFB0
0030
0030
00F0
00E0
ENDCHAR
STARTCHAR $4E10
ENCODING 19984
SWIDTH 1000 0
DWIDTH 16 0
BBX 15 14 0 -1
BITMAP
FFFE
FFFE
0300
33F8
33F8
3300
3300
3FFC
3FFC
000C
000C
000C
00F8
0070
ENDCHAR
STARTCHAR $4E11
ENCODING 19985
SWIDTH 1000 0
DWIDTH 16 0
BBX 15 13 0 0
BITMAP
3FF8
3FF8
0318
0318
0318
3FF8
3FF0
0630
0630
0630
0630
FFFE
FFFE
ENDCHAR
STARTCHAR $4E13
ENCODING 19987
SWIDTH 1000 0
DWIDTH 16 0
BBX 14 15 0 -1
BITMAP
0300
0300
3FF8
3FF8
0600
FFFC
FFFC
0C00
0FF0
0FF0
0060
0EC0
0780
01E0
0060
ENDCHAR
STARTCHAR $4E14
ENCODING 19988
SWIDTH 1000 0
DWIDTH 16 0
BBX 15 14 0 -1
BITMAP
1FF0
1FF0
1830
1830
1FF0
1FF0
1830
1830
1FF0
1FF0
1830
1830
FFFE
FFFE
ENDCHAR
STARTCHAR $4E15
ENCODING 19989
SWIDTH 1000 0
DWIDTH 16 0
BBX 14 14 0 -1
BITMAP
7FFC
7FFC
0180
0300
0760
0F30
1B18
330C
6304
0300
0300
0000
FFFC
FFFC
ENDCHAR
STARTCHAR $4E16
ENCODING 19990
SWIDTH 1000 0
DWIDTH 16 0
BBX 15 15 0 -1
BITMAP
0330
3330
3330
3330
3330
FFFE
FFFE
3330
3330
3330
33F0
33F0
3000
3FFC
3FFC
ENDCHAR
STARTCHAR $4E18
ENCODING 19992
SWIDTH 1000 0
DWIDTH 16 0
BBX 15 14 0 0
BITMAP
0070
1FF8
1F80
1800
1800
1800
1FF8
1FF8
1860
1860
1860
1860
FFFE
FFFE
ENDCHAR
STARTCHAR $4E19
ENCODING 19993
SWIDTH 1000 0
DWIDTH 16 0
BBX 14 14 1 -1
BITMAP
FFFC
FFFC
0300
7FF8
7FF8
6318
6318
6798
6CD8
7878
6018
6018
6078
6070
ENDCHAR
STARTCHAR $4E1A
ENCODING 19994
SWIDTH 1000 0
DWIDTH 16 0
BBX 15 15 0 -1
BITMAP
06C0
06C0
06C0
06C0
66CC
66CC
66CC
36D8
36D8
36D8
06C0
06C0
06C0
FFFE
FFFE
ENDCHAR
STARTCHAR $4E1B
ENCODING 19995
SWIDTH 1000 0
DWIDTH 16 0
BBX 14 14 1 -1
BITMAP
30C0
30C0
30C0
30C0
30C0
30C0
38E0
6DA0
65B0
C318
8608
0000
FFFC
FFFC
ENDCHAR
STARTCHAR $4E1C
ENCODING 19996
SWIDTH 1000 0
DWIDTH 16 0
BBX 14 15 1 -1
BITMAP
0600
0600
FFFC
FFFC
0C00
1B00
3300
7FF8
7FF8
0300
1B20
3330
E318
C70C
0600
ENDCHAR
STARTCHAR $4E1D
ENCODING 19997
SWIDTH 1000 0
DWIDTH 16 0
BBX 14 13 0 0
BITMAP
1830
1830
3060
366C
6EDC
7CF8
1830
3060
7EFC
7EFC
0000
FFFC
FFFC
ENDCHAR
STARTCHAR $4E1E
ENCODING 19998
SWIDTH 1000 0
DWIDTH 16 0
BBX 15 15 0 -1
BITMAP
3FF8
3FF8
0030
0060
7DC8
7D98
0DB0
0DE0
19B0
319C
678C
4700
0000
FFFE
FFFE
ENDCHAR
STARTCHAR $4E22
ENCODING 20002
SWIDTH 1000 0
DWIDTH 16 0
BBX 15 15 0 -1
BITMAP
0038
3FF8
3FC0
0180
3FF8
3FF8
0180
0180
FFFE
FFFE
0300
0660
0C30
3FF8
3FFC
ENDCHAR
STARTCHAR $4E24
ENCODING 20004
SWIDTH 1000 0
DWIDTH 16 0
BBX 13 14 1 -1
BITMAP
FFF8
FFF8
0D80
FFF8
FFF8
CD98
CD98
DBD8
F378
D658
C218
C018
C038
C030
ENDCHAR
STARTCHAR $4E25
ENCODING 20005
SWIDTH 1000 0
DWIDTH 16 0
BBX 14 14 0 -1
BITMAP
7FFC
7FFC
26C8
36D8
16D0
7FFC
7FFC
6000
6000
6000
6000
4000
C000
8000
ENDCHAR
STARTCHAR $4E27
ENCODING 20007
SWIDTH 1000 0
DWIDTH 16 0
BBX 15 15 0 -1
BITMAP
0180
0180
7FFC
7FFC
0180
3198
19B0
FFFE
FFFE
1998
19B0
18E0
1E70
1E3E
180C
ENDCHAR
STARTCHAR $4E28
ENCODING 20008
SWIDTH 1000 0
DWIDTH 16 0
BBX 2 15 7 -1
BITMAP
C0
C0
C0
C0
C0
C0
C0
C0
C0
C0
C0
C0
C0
C0
C0
ENDCHAR
STARTCHAR $4E2A
ENCODING 20010
SWIDTH 1000 0
DWIDTH 16 0
BBX 14 15 0 -1
BITMAP
0300
0300
0780
0CC0
1860
3330
E31C
4308
0300
0300
0300
0300
0300
0300
0300
ENDCHAR
STARTCHAR $4E2B
ENCODING 20011
SWIDTH 1000 0
DWIDTH 16 0
BBX 11 13 2 0
BITMAP
C060
60C0
3180
1300
0600
0600
0600
0600
0600
0600
0600
0600
0600
ENDCHAR
STARTCHAR $4E2C
ENCODING 20012
SWIDTH 1000 0
DWIDTH 16 0
BBX 7 15 0 -1
BITMAP
06
06
66
66
36
36
06
0E
1E
36
E6
46
06
06
06
ENDCHAR
STARTCHAR $4E2D
ENCODING 20013
SWIDTH 1000 0
DWIDTH 16 0
BBX 12 15 2 -1
BITMAP
0600
0600
0600
FFF0
FFF0
C630
C630
C630
FFF0
FFF0
C630
0600
0600
0600
0600
ENDCHAR
STARTCHAR $4E30
ENCODING 20016
SWIDTH 1000 0
DWIDTH 16 0
BBX 14 15 1 -1
BITMAP
0300
0300
7FF8
7FF8
0300
0300
3FF0
3FF0
0300
0300
FFFC
FFFC
0300
0300
0300
ENDCHAR
STARTCHAR $4E32
ENCODING 20018
SWIDTH 1000 0
DWIDTH 16 0
BBX 13 15 1 -1
BITMAP
0300
0300
7FF0
7FF0
6330
7FF0
7FF0
0300
FFF8
FFF8
C318
FFF8
FFF8
0300
0300
ENDCHAR
STARTCHAR $4E34
ENCODING 20020
SWIDTH 1000 0
DWIDTH 16 0
BBX 14 15 0 -1
BITMAP
00C0
18C0
D9FC
D9FC
DB00
DE60
D830
DBFC
DBFC
DB6C
DB6C
DB6C
DBFC
1BFC
1B0C
ENDCHAR
STARTCHAR $4E36
ENCODING 20022
SWIDTH 1000 0
DWIDTH 16 0
BBX 5 4 5 9
BITMAP
C0
60
30
18
ENDCHAR
STARTCHAR $4E38
ENCODING 20024
SWIDTH 1000 0
DWIDTH 16 0
BBX 15 15 0 -1
BITMAP
0600
0600
0600
7FE0
7FE0
0660
0660
1E60
0E60
0760
0D60
1866
3066
607E
C03E
ENDCHAR
STARTCHAR $4E39
ENCODING 20025
SWIDTH 1000 0
DWIDTH 16 0
BBX 15 14 0 -1
BITMAP
1FF0
1FF0
1830
1B30
19B0
1830
FFFE
FFFE
1830
1830
1830
3030
60F0
4060
ENDCHAR
STARTCHAR $4E3A
ENCODING 20026
SWIDTH 1000 0
DWIDTH 16 0
BBX 13 15 1 -1
BITMAP
0300
3300
1B00
1B00
FFF8
FFF8
0618
0618
0618
0D18
1998
30D8
6018
C0F0
80E0
ENDCHAR
STARTCHAR $4E3B
ENCODING 20027
SWIDTH 1000 0
DWIDTH 16 0
BBX 13 15 1 -1
BITMAP
0400
0600
0300
FFF8
FFF8
0300
0300
0300
7FF0
7FF0
0300
0300
0300
FFF8
FFF8
ENDCHAR
STARTCHAR $4E3D
ENCODING 20029
SWIDTH 1000 0
DWIDTH 16 0
BBX 15 14 0 -1
BITMAP
FFFE
FFFE
0000
7EFC
7EFC
66CC
76EC
6EDC
6EDC
66CC
66CC
66CC
6EDC
6CD8
ENDCHAR
STARTCHAR $4E3E
ENCODING 20030
SWIDTH 1000 0
DWIDTH 16 0
BBX 15 15 0 -1
BITMAP
0218
2318
31B0
1830
FFFE
FFFE
1830
3198
EFEE
4FE6
0180
7FFC
7FFC
0180
0180
ENDCHAR
STARTCHAR $4E3F
ENCODING 20031
SWIDTH 1000 0
DWIDTH 16 0
BBX 7 15 2 -1
BITMAP
06
06
06
06
06
06
06
06
06
0C
0C
18
30
60
C0
ENDCHAR
STARTCHAR $4E43
ENCODING 20035
SWIDTH 1000 0
DWIDTH 16 0
BBX 14 14 0 -1
BITMAP
3FF0
3FF0
0630
0630
0660
067C
067C
0C0C
0C0C
180C
300C
600C
C03C
0038
ENDCHAR
STARTCHAR $4E45
ENCODING 20037
SWIDTH 1000 0
DWIDTH 16 0
BBX 15 15 0 -1
BITMAP
0600
0600
0600
07E0
0FE0
1860
30C0
20C0
01C0
0340
0660
0C30
3818
F00E
6004
ENDCHAR
STARTCHAR $4E47
ENCODING 20039
SWIDTH 1000 0
DWIDTH 16 0
BBX 15 15 0 -1
BITMAP
0030
00F0
3FC0
3F00
0300
0300
03FE
FFFE
FF00
0300
0300
0304
0306
03FE
01FC
ENDCHAR
STARTCHAR $4E48
ENCODING 20040
SWIDTH 1000 0
DWIDTH 16 0
BBX 12 13 2 0
BITMAP
0C00
0C00
1800
1980
3180
7300
E300
C600
0CC0
18C0
3060
FFF0
FFF0
ENDCHAR
STARTCHAR $4E49
ENCODING 20041
SWIDTH 1000 0
DWIDTH 16 0
BBX 15 14 0 -1
BITMAP
0300
3318
3198
19B0
1830
0860
0C60
06C0
0380
0380
06C0
1C70
F83E
600C
ENDCHAR
STARTCHAR $4E4B
ENCODING 20043
SWIDTH 1000 0
DWIDTH 16 0
BBX 15 15 0 -1
BITMAP
0300
0180
0180
0000
7FFC
7FFC
00E0
0180
0300
0600
0C00
3800
6C00
C7FE
01FE
ENDCHAR
STARTCHAR $4E4C
ENCODING 20044
SWIDTH 1000 0
DWIDTH 16 0
BBX 13 15 1 -1
BITMAP
0C00
3FE0
3FE0
3060
3060
31E0
31C0
3000
3FF8
3FF8
0018
FFD8
FFD8
0078
0070
ENDCHAR
STARTCHAR $4E4D
ENCODING 20045
SWIDTH 1000 0
DWIDTH 16 0
BBX 13 15 1 -1
BITMAP
0C00
0C00
1800
1FF8
3FF8
6600
C7F0
07F0
0600
0600
07F8
07F8
0600
0600
0600
ENDCHAR
STARTCHAR $4E4E
ENCODING 20046
SWIDTH 1000 0
DWIDTH 16 0
BBX 15 15 0 -1
BITMAP
0078
7FF8
7F80
0198
1998
1998
0180
FFFE
FFFE
0180
0180
0180
0180
0780
0700
ENDCHAR
STARTCHAR $4E4F
ENCODING 20047
SWIDTH 1000 0
DWIDTH 16 0
BBX 14 14 1 -1
BITMAP
01F0
FFF8
7E00
0300
0300
7FF0
7FF0
01C0
0700
0E00
3800
7C00
CFFC
03FC
ENDCHAR
STARTCHAR $4E50
ENCODING 20048
SWIDTH 1000 0
DWIDTH 16 0
BBX 13 15 1 -1
BITMAP
01E0
7FF0
7C00
6000
6300
C300
FFF0
FFF0
0300
1340
3360
6330
C318
0F08
0600
ENDCHAR
STARTCHAR $4E52
ENCODING 20050
SWIDTH 1000 0
DWIDTH 16 0
BBX 15 15 0 -1
BITMAP
00F0
1FF8
1F00
1800
1FF8
1FF8
1860
1860
1860
FFFE
FFFE
0600
1C00
7800
6000
ENDCHAR
STARTCHAR $4E53
ENCODING 20051
SWIDTH 1000 0
DWIDTH 16 0
BBX 15 15 0 -1
BITMAP
0070
1FF8
1F80
1800
1800
1FF8
1FF8
1860
1860
FFFE
FFFE
0040
0070
0018
000C
ENDCHAR
STARTCHAR $4E54
ENCODING 20052
SWIDTH 1000 0
DWIDTH 16 0
BBX 15 15 0 -1
BITMAP
00F0
3FF8
3F00
0300
7FFC
7FFC
0C60
3838
F46E
4C60
0C60
0C60
1860
7060
2060
ENDCHAR
STARTCHAR $4E56
ENCODING 20054
SWIDTH 1000 0
DWIDTH 16 0
BBX 15 15 0 -1
BITMAP
0078
3FF8
0180
FFFE
FFFE
0180
0DB0
7DBC
7DBC
0DB2
FDBE
ED9E
0180
0180
0180
ENDCHAR
STARTCHAR $4E58
ENCODING 20056
SWIDTH 1000 0
DWIDTH 16 0
BBX 14 15 1 -1
BITMAP
01F0
7FF0
0300
FFF8
FFF8
1B60
FB78
FB60
1B78
F7B8
0FC0
1B60
7338
E31C
0300
ENDCHAR
STARTCHAR $4E59
ENCODING 20057
SWIDTH 1000 0
DWIDTH 16 0
BBX 12 13 2 0
BITMAP
FFC0
FFC0
0180
0300
0600
0C00
1800
3000
6000
C030
C030
FFF0
7FE0
ENDCHAR
STARTCHAR $4E5C
ENCODING 20060
SWIDTH 1000 0
DWIDTH 16 0
BBX 14 15 1 -1
BITMAP
1800
1800
1800
1800
19F0
1FF0
FE30
F830
1830
19F0
18E0
1800
180C
1FFC
0FF8
ENDCHAR
STARTCHAR $4E5D
ENCODING 20061
SWIDTH 1000 0
DWIDTH 16 0
BBX 15 15 0 -1
BITMAP
0600
0600
0600
7FE0
7FE0
0660
0660
0660
0660
0C60
0C60
1864
3066
E07E
403C
ENDCHAR
STARTCHAR $4E5E
ENCODING 20062
SWIDTH 1000 0
DWIDTH 16 0
BBX 13 15 1 -1
BITMAP
1800
1800
3FF8
3FF8
6000
C000
BFE0
3FE0
0380
0600
0C00
1818
3018
3FF8
1FF0
ENDCHAR
STARTCHAR $4E5F
ENCODING 20063
SWIDTH 1000 0
DWIDTH 16 0
BBX 15 15 0 -1
BITMAP
0180
0180
1980
19B8
19F8
1FD8
FF98
F998
1998
19B8
19B0
1986
1806
1FFE
0FFE
ENDCHAR
STARTCHAR $4E60
ENCODING 20064
SWIDTH 1000 0
DWIDTH 16 0
BBX 12 14 1 -1
BITMAP
7FF0
7FF0
0030
3030
1830
0C30
0630
01B0
0F30
7C30
E030
0030
01F0
00E0
ENDCHAR
STARTCHAR $4E61
ENCODING 20065
SWIDTH 1000 0
DWIDTH 16 0
BBX 11 15 2 -1
BITMAP
0C00
0C00
1800
3180
6180
FF00
FE60
0C60
1860
7FC0
70C0
0180
0700
FC00
F000
ENDCHAR
STARTCHAR $4E66
ENCODING 20070
SWIDTH 1000 0
DWIDTH 16 0
BBX 13 15 1 -1
BITMAP
0C60
0C30
0C18
FFE8
FFE0
0C60
0C60
FFF8
FFF8
0C18
0C18
0C18
0C70
0C60
0C00
ENDCHAR
STARTCHAR $4E69
ENCODING 20073
SWIDTH 1000 0
DWIDTH 16 0
BBX 14 15 1 -1
BITMAP
3060
3060
3060
3E60
3E60
3060
3060
FE60
FE60
C660
C660
C660
FE6C
FE7C
C63C
ENDCHAR
STARTCHAR $4E70
ENCODING 20080
SWIDTH 1000 0
DWIDTH 16 0
BBX 13 14 1 -1
BITMAP
FFF8
FFF8
1318
1B30
0F00
6300
3300
FFF8
FFF8
0600
0CC0
18E0
F070
6030
ENDCHAR
STARTCHAR $4E71
ENCODING 20081
SWIDTH 1000 0
DWIDTH 16 0
BBX 15 15 0 -1
BITMAP
0030
0730
7F30
7C30
0C30
FFB0
FFB0
0C30
7F30
7F30
6330
6330
7F36
7F3E
631C
ENDCHAR
STARTCHAR $4E73
ENCODING 20083
SWIDTH 1000 0
DWIDTH 16 0
BBX 14 15 1 -1
BITMAP
0E60
FF60
F060
5160
5B60
4A60
FF60
FE60
0C60
1F60
FF60
F860
186C
187C
3038
ENDCHAR
STARTCHAR $4E7E
ENCODING 20094
SWIDTH 1000 0
DWIDTH 16 0
BBX 15 15 0 -1
BITMAP
1860
FF60
FF7E
18FE
7EC0
7F80
667C
7E7C
6618
7E30
1860
FF60
FF66
187E
183C
ENDCHAR
STARTCHAR $4E86
ENCODING 20102
SWIDTH 1000 0
DWIDTH 16 0
BBX 13 14 1 -1
BITMAP
FFF8
FFF8
0060
00C0
0380
0300
0300
0300
0300
0300
0300
0300
0F00
0E00
ENDCHAR
STARTCHAR $4E88
ENCODING 20104
SWIDTH 1000 0
DWIDTH 16 0
BBX 13 15 1 -1
BITMAP
7FF0
7FF0
0060
0CC0
0780
0300
FFF8
FFF8
0318
0310
0300
0300
0300
0F00
0E00
ENDCHAR
STARTCHAR $4E89
ENCODING 20105
SWIDTH 1000 0
DWIDTH 16 0
BBX 14 15 1 -1
BITMAP
1800
1FC0
3FC0
7180
FFF0
7FF0
0330
FFFC
FFFC
0330
7FF0
0330
0300
0F00
0E00
ENDCHAR
STARTCHAR $4E8B
ENCODING 20107
SWIDTH 1000 0
DWIDTH 16 0
BBX 15 15 0 -1
BITMAP
0180
7FFE
7FFE
0180
3FF8
3198
3FF8
0180
3FFC
018C
FFFE
018C
3FFC
0180
0700
ENDCHAR
STARTCHAR $4E8C
ENCODING 20108
SWIDTH 1000 0
DWIDTH 16 0
BBX 15 11 0 1
BITMAP
3FF8
3FF8
0000
0000
0000
0000
0000
0000
0000
FFFE
FFFE
ENDCHAR
STARTCHAR $4E8D
ENCODING 20109
SWIDTH 1000 0
DWIDTH 16 0
BBX 15 14 0 -1
BITMAP
3FF8
3FF8
0000
0000
FFFE
FFFE
0180
0180
0180
0180
0180
0180
0780
0700
ENDCHAR
STARTCHAR $4E8E
ENCODING 20110
SWIDTH 1000 0
DWIDTH 16 0
BBX 15 14 0 -1
BITMAP
3FF8
3FF8
0180
0180
0180
FFFE
FFFE
0180
0180
0180
0180
0180
0780
0700
ENDCHAR
STARTCHAR $4E8F
ENCODING 20111
SWIDTH 1000 0
DWIDTH 16 0
BBX 15 14 0 -1
BITMAP
3FF8
3FF8
0000
0000
FFFE
FFFE
0C00
1FF8
1FF8
0018
0018
0030
00F0
00E0
ENDCHAR
STARTCHAR $4E91
ENCODING 20113
SWIDTH 1000 0
DWIDTH 16 0
BBX 13 14 1 -1
BITMAP
3FE0
3FE0
0000
0000
FFF8
FFF8
0600
0600
0C40
1860
3030
7FF0
7FF8
0018
ENDCHAR
STARTCHAR $4E92
ENCODING 20114
SWIDTH 1000 0
DWIDTH 16 0
BBX 15 13 0 0
BITMAP
7FFC
7FFC
0C00
0FF0
0FF0
0C30
0C30
1FE0
1FE0
0060
0060
FFFE
FFFE
ENDCHAR
STARTCHAR $4E93
ENCODING 20115
SWIDTH 1000 0
DWIDTH 16 0
BBX 14 14 1 -1
BITMAP
7FF0
7FF0
0000
0000
FFFC
FFFC
0CC0
0CC0
0CC0
18C0
18C0
30C0
60C0
C0C0
ENDCHAR
STARTCHAR $4E94
ENCODING 20116
SWIDTH 1000 0
DWIDTH 16 0
BBX 15 13 0 0
BITMAP
7FFC
7FFC
0300
0300
0300
3FF0
3FF0
0630
0630
0630
0630
FFFE
FFFE
ENDCHAR
STARTCHAR $4E95
ENCODING 20117
SWIDTH 1000 0
DWIDTH 16 0
BBX 14 15 0 -1
BITMAP
0C60
0C60
0C60
7FFC
7FFC
0C60
0C60
0C60
FFFC
FFFC
0C60
0C60
1860
3060
6060
ENDCHAR
STARTCHAR $4E98
ENCODING 20120
SWIDTH 1000 0
DWIDTH 16 0
BBX 14 14 1 -1
BITMAP
7FF8
7FF8
0000
3FF0
3FF0
3030
3FF0
3FF0
3030
3FF0
3FF0
0000
FFFC
FFFC
ENDCHAR
STARTCHAR $4E9A
ENCODING 20122
SWIDTH 1000 0
DWIDTH 16 0
BBX 15 14 0 -1
BITMAP
7FFC
7FFC
06C0
06C0
66CC
66CC
36D8
36D8
36D8
06C0
06C0
06C0
FFFE
FFFE
ENDCHAR
STARTCHAR $4E9B
ENCODING 20123
SWIDTH 1000 0
DWIDTH 16 0
BBX 14 15 0 -1
BITMAP
0CC0
0CC0
6CC8
6EDC
6EF0
6CC0
6ECC
FEFC
F07C
0000
1FF0
1FF0
0000
7FFC
7FFC
ENDCHAR
STARTCHAR $4E9F
ENCODING 20127
SWIDTH 1000 0
DWIDTH 16 0
BBX 15 14 0 -1
BITMAP
3FF8
3FF8
00C0
7DBC
7DBC
6DAC
6DBC
7D98
7DBC
61E6
0380
0000
FFFE
FFFE
ENDCHAR
STARTCHAR $4EA0
ENCODING 20128
SWIDTH 1000 0
DWIDTH 16 0
BBX 15 6 0 8
BITMAP
0600
0300
0100
0000
FFFE
FFFE
ENDCHAR
STARTCHAR $4EA1
ENCODING 20129
SWIDTH 1000 0
DWIDTH 16 0
BBX 14 14 1 0
BITMAP
0400
0600
0300
FFFC
FFFC
3000
3000
3000
3000
3000
3000
3000
3FF8
3FF8
ENDCHAR
STARTCHAR $4EA2
ENCODING 20130
SWIDTH 1000 0
DWIDTH 16 0
BBX 15 15 0 -1
BITMAP
0200
0300
0180
FFFE
FFFE
0000
0FE0
0FE0
0C60
0C60
0C60
0C64
1866
307E
603C
ENDCHAR
STARTCHAR $4EA4
ENCODING 20132
SWIDTH 1000 0
DWIDTH 16 0
BBX 14 15 0 -1
BITMAP
0300
0180
7FFC
7FFC
0C60
1830
7018
6C68
0C60
06E0
07C0
0380
0FE0
FC7C
7018
ENDCHAR
STARTCHAR $4EA5
ENCODING 20133
SWIDTH 1000 0
DWIDTH 16 0
BBX 14 15 0 -1
BITMAP
0300
0300
FFFC
FFFC
0C00
1860
3FE0
3FC0
0330
1E70
78E0
63C0
0F70
FC38
7018
ENDCHAR
STARTCHAR $4EA6
ENCODING 20134
SWIDTH 1000 0
DWIDTH 16 0
BBX 14 15 1 -1
BITMAP
0600
0300
FFFC
FFFC
0CC0
0CC0
2CD0
2CD0
6CD8
CCCC
CCCC
18C0
30C0
E3C0
4180
ENDCHAR
STARTCHAR $4EA7
ENCODING 20135
SWIDTH 1000 0
DWIDTH 16 0
BBX 15 15 0 -1
BITMAP
0180
0180
7FFC
7FFC
0C60
0C60
3FFE
3FFE
3000
3000
3000
3000
6000
E000
4000
ENDCHAR
STARTCHAR $4EA8
ENCODING 20136
SWIDTH 1000 0
DWIDTH 16 0
BBX 14 15 1 -1
BITMAP
0300
FFFC
FFFC
0000
3FF0
3030
3FF0
0000
FFF0
FFF0
0180
0380
0300
0F00
0700
ENDCHAR
STARTCHAR $4EA9
ENCODING 20137
SWIDTH 1000 0
DWIDTH 16 0
BBX 14 15 1 -1
BITMAP
0600
0300
FFFC
FFFC
0000
7FF8
7FF8
6318
6318
7FF8
6318
6318
7FF8
7FF8
6018
ENDCHAR
STARTCHAR $4EAB
ENCODING 20139
SWIDTH 1000 0
DWIDTH 16 0
BBX 14 15 1 -1
BITMAP
0300
FFFC
FFFC
0000
3FF0
3030
3FF0
0000
7FF0
00C0
FFFC
FFFC
0300
0F00
0700
ENDCHAR
STARTCHAR $4EAC
ENCODING 20140
SWIDTH 1000 0
DWIDTH 16 0
BBX 15 15 0 -1
BITMAP
0180
0180
FFFE
FFFE
0000
1FF8
1FF8
1818
1FF8
1FF8
0180
19B0
3198
678C
0300
ENDCHAR
STARTCHAR $4EAD
ENCODING 20141
SWIDTH 1000 0
DWIDTH 16 0
BBX 14 15 1 -1
BITMAP
0300
FFF8
FFF8
0000
3FF0
3030
3FF0
0000
FFFC
C00C
3FF0
0300
0300
0F00
0600
ENDCHAR
STARTCHAR $4EAE
ENCODING 20142
SWIDTH 1000 0
DWIDTH 16 0
BBX 14 15 0 -1
BITMAP
0300
7FFC
7FFC
0000
1FF0
1830
1FF0
0000
FFFC
C00C
0FC0
0CC0
0CC4
18FC
707C
ENDCHAR
STARTCHAR $4EB2
ENCODING 20146
SWIDTH 1000 0
DWIDTH 16 0
BBX 14 15 1 -1
BITMAP
0300
7FF8
7FF8
1860
0CC0
FFFC
FFFC
0300
7FF8
7FF8
0300
3360
6330
CF18
0600
ENDCHAR
STARTCHAR $4EB3
ENCODING 20147
SWIDTH 1000 0
DWIDTH 16 0
BBX 14 15 1 -1
BITMAP
0300
FFFC
0000
3FE0
3060
3FE0
0000
FFFC
C00C
3FE0
0300
03FC
FF18
03F8
01F0
ENDCHAR
STARTCHAR $4EB5
ENCODING 20149
SWIDTH 1000 0
DWIDTH 16 0
BBX 15 15 0 -1
BITMAP
0180
FFFE
FFFE
18C0
7DF8
18D8
1DD8
789A
1B5A
380E
06D8
1C70
7C30
6F1E
0E0C
ENDCHAR
STARTCHAR $4EBA
ENCODING 20154
SWIDTH 1000 0
DWIDTH 16 0
BBX 14 15 1 -1
BITMAP
0600
0600
0600
0600
0600
0600
0600
0700
0F00
0D80
18C0
3060
6030
C01C
8008
ENDCHAR
STARTCHAR $4EBB
ENCODING 20155
SWIDTH 1000 0
DWIDTH 16 0
BBX 6 15 1 -1
BITMAP
0C
0C
1C
18
38
78
D8
98
18
18
18
18
18
18
18
ENDCHAR
STARTCHAR $4EBF
ENCODING 20159
SWIDTH 1000 0
DWIDTH 16 0
BBX 15 15 0 -1
BITMAP
1800
1800
1BF8
33F8
3030
7060
70C0
F0C0
3180
3180
3300
3306
3306
33FE
31FC
ENDCHAR
STARTCHAR $4EC0
ENCODING 20160
SWIDTH 1000 0
DWIDTH 16 0
BBX 15 15 0 -1
BITMAP
1860
1860
1860
3060
3060
77FE
F7FE
B060
3060
3060
3060
3060
3060
3060
3060
ENDCHAR
STARTCHAR $4EC1
ENCODING 20161
SWIDTH 1000 0
DWIDTH 16 0
BBX 15 15 0 -1
BITMAP
1800
1800
1BFC
33FC
3000
7000
F000
B000
3000
3000
3000
37FE
37FE
3000
3000
ENDCHAR
STARTCHAR $4EC2
ENCODING 20162
SWIDTH 1000 0
DWIDTH 16 0
BBX 14 15 0 -1
BITMAP
18C0
18C0
18C0
30C0
33FC
73FC
F0CC
B0CC
30CC
30CC
318C
318C
330C
361C
3418
ENDCHAR
STARTCHAR $4EC3
ENCODING 20163
SWIDTH 1000 0
DWIDTH 16 0
BBX 15 15 0 -1
BITMAP
1800
1BFE
1BFE
3030
3030
7030
F030
B030
3030
3030
3030
3030
3030
30F0
30E0
ENDCHAR
STARTCHAR $4EC4
ENCODING 20164
SWIDTH 1000 0
DWIDTH 16 0
BBX 15 14 0 -1
BITMAP
3FFE
3FFE
3000
30C0
30C0
30C0
30C0
30C0
30C0
31E0
6330
6618
DC0E
8804
ENDCHAR
STARTCHAR $4EC5
ENCODING 20165
SWIDTH 1000 0
DWIDTH 16 0
BBX 15 15 0 -1
BITMAP
1800
1800
3FFC
37FC
7318
F318
B318
31B8
31B0
30E0
30E0
31B0
3318
3E0E
3404
ENDCHAR
STARTCHAR $4EC6
ENCODING 20166
SWIDTH 1000 0
DWIDTH 16 0
BBX 14 15 1 -1
BITMAP
18C0
18C0
30C0
30C0
70E0
70F0
F0D8
B0CC
30CC
30C0
30C0
30C0
30C0
30C0
30C0
ENDCHAR
STARTCHAR $4EC7
ENCODING 20167
SWIDTH 1000 0
DWIDTH 16 0
BBX 15 15 0 -1
BITMAP
1980
1980
1980
3180
37F0
77F0
F1B0
B1B0
31B0
31B0
3330
3330
3636
3E3E
341C
ENDCHAR
STARTCHAR $4EC9
ENCODING 20169
SWIDTH 1000 0
DWIDTH 16 0
BBX 15 15 0 -1
BITMAP
1800
1800
3BF0
33F0
7330
7330
F330
3330
3330
3330
3330
3336
3636
3C3E
301C
ENDCHAR
STARTCHAR $4ECA
ENCODING 20170
SWIDTH 1000 0
DWIDTH 16 0
BBX 15 15 0 -1
BITMAP
0180
0380
06C0
0C60
1830
331C
E186
4080
3FF8
3FF8
0030
0060
00C0
0180
0180
ENDCHAR
STARTCHAR $4ECB
ENCODING 20171
SWIDTH 1000 0
DWIDTH 16 0
BBX 14 15 0 -1
BITMAP
0300
0300
0780
0CC0
1860
3038
E01C
4C60
0C60
0C60
0C60
0C60
1860
7060
2060
ENDCHAR
STARTCHAR $4ECD
ENCODING 20173
SWIDTH 1000 0
DWIDTH 16 0
BBX 15 15 0 -1
BITMAP
1800
1BF8
1BF8
3198
3198
7198
F19E
B19E
3186
3186
3306
330C
360C
363C
3418
ENDCHAR
STARTCHAR $4ECE
ENCODING 20174
SWIDTH 1000 0
DWIDTH 16 0
BBX 15 13 0 0
BITMAP
1860
1860
1860
1860
1860
1860
1860
1C70
3770
32D8
6198
E30C
4606
ENDCHAR
STARTCHAR $4ED1
ENCODING 20177
SWIDTH 1000 0
DWIDTH 16 0
BBX 15 15 0 -1
BITMAP
0300
0300
0780
0CC0
1870
303C
EC0E
4C60
0DE0
0F80
0C00
0C10
0C18
0FF8
07F0
ENDCHAR
STARTCHAR $4ED3
ENCODING 20179
SWIDTH 1000 0
DWIDTH 16 0
BBX 14 15 1 -1
BITMAP
0300
0300
0780
0CC0
1860
303C
FFE8
DFE0
1860
1860
19C0
1810
1818
1FF8
0FF0
ENDCHAR
STARTCHAR $4ED4
ENCODING 20180
SWIDTH 1000 0
DWIDTH 16 0
BBX 15 15 0 -1
BITMAP
1800
1BFC
1BFC
3018
3030
7060
F7FE
B7FE
3060
3060
3060
3060
3060
31E0
30C0
ENDCHAR
STARTCHAR $4ED5
ENCODING 20181
SWIDTH 1000 0
DWIDTH 16 0
BBX 15 15 0 -1
BITMAP
1860
1860
3060
3060
77FE
77FE
F060
B060
3060
3060
3060
3060
37FC
37FC
3000
ENDCHAR
STARTCHAR $4ED6
ENCODING 20182
SWIDTH 1000 0
DWIDTH 16 0
BBX 15 15 0 -1
BITMAP
1860
1860
3860
3360
737C
73FC
F7EC
B76C
337C
3378
3360
3366
3306
33FE
31FC
ENDCHAR
STARTCHAR $4ED7
ENCODING 20183
SWIDTH 1000 0
DWIDTH 16 0
BBX 15 15 0 -1
BITMAP
1830
1830
1830
37FE
37FE
7030
F330
B330
31B0
31B0
30E0
30E0
31B8
371E
3606
ENDCHAR
STARTCHAR $4ED8
ENCODING 20184
SWIDTH 1000 0
DWIDTH 16 0
BBX 15 15 0 -1
BITMAP
1800
1818
1818
3018
37FE
77FE
F018
B318
3198
3198
3018
3018
3018
3078
3070
ENDCHAR
STARTCHAR $4ED9
ENCODING 20185
SWIDTH 1000 0
DWIDTH 16 0
BBX 15 15 0 -1
BITMAP
1800
1860
1860
3060
3666
7666
F666
B666
3666
3666
3666
367E
37FE
3786
3000
ENDCHAR
STARTCHAR $4EDD
ENCODING 20189
SWIDTH 1000 0
DWIDTH 16 0
BBX 15 15 0 -1
BITMAP
0180
0380
06C0
0C60
1830
701C
E00E
1FF0
1FF0
0180
0180
0180
0180
7FFE
7FFE
ENDCHAR
STARTCHAR $4EDE
ENCODING 20190
SWIDTH 1000 0
DWIDTH 16 0
BBX 15 15 0 -1
BITMAP
1800
1BFE
1BFE
3066
3066
7366
F366
B266
3666
36C6
30C6
3186
339E
331C
3000
ENDCHAR
STARTCHAR $4EDF
ENCODING 20191
SWIDTH 1000 0
DWIDTH 16 0
BBX 15 15 0 -1
BITMAP
1818
1BFC
1BE0
3060
3060
7060
F7FE
B7FE
3060
3060
3060
3060
3060
3060
3060
ENDCHAR
STARTCHAR $4EE1
ENCODING 20193
SWIDTH 1000 0
DWIDTH 16 0
BBX 15 15 0 -1
BITMAP
1980
1980
19FC
33FC
3600
7DF8
F1F8
B030
3060
30C0
3180
3306
3306
33FE
31FC
ENDCHAR
STARTCHAR $4EE3
ENCODING 20195
SWIDTH 1000 0
DWIDTH 16 0
BBX 15 15 0 -1
BITMAP
1980
19B0
19B8
3198
3180
71FC
F7FC
B7C0
30C0
30C0
30E0
3064
3076
303E
301C
ENDCHAR
STARTCHAR $4EE4
ENCODING 20196
SWIDTH 1000 0
DWIDTH 16 0
BBX 13 15 1 -1
BITMAP
0600
0600
0F00
1980
30E0
E678
C318
0000
7FF0
7FF0
00C0
1980
0F00
0300
0180
ENDCHAR
STARTCHAR $4EE5
ENCODING 20197
SWIDTH 1000 0
DWIDTH 16 0
BBX 12 14 2 -1
BITMAP
D860
CC60
C660
C260
C060
C060
C060
D8C0
F0C0
E1C0
C360
8630
1C30
1800
ENDCHAR
STARTCHAR $4EE8
ENCODING 20200
SWIDTH 1000 0
DWIDTH 16 0
BBX 15 15 0 -1
BITMAP
1800
1800
1BFC
33FC
3000
7000
F000
B3FC
33FC
3000
3000
3000
37FE
37FE
3000
ENDCHAR
STARTCHAR $4EEA
ENCODING 20202
SWIDTH 1000 0
DWIDTH 16 0
BBX 15 15 0 -1
BITMAP
1880
18C0
3058
3658
7618
F318
B330
31B0
31A0
30E0
30E0
31B0
3318
3E0E
3404
ENDCHAR
STARTCHAR $4EEB
ENCODING 20203
SWIDTH 1000 0
DWIDTH 16 0
BBX 15 15 0 -1
BITMAP
1800
1860
1860
30C0
3198
7318
F630
B030
3060
30C0
3198
330C
37FE
3306
3000
ENDCHAR
STARTCHAR $4EEC
ENCODING 20204
SWIDTH 1000 0
DWIDTH 16 0
BBX 14 15 0 -1
BITMAP
1A00
1B7C
317C
360C
760C
F60C
B60C
360C
360C
360C
360C
360C
360C
363C
3618
ENDCHAR
STARTCHAR $4EF0
ENCODING 20208
SWIDTH 1000 0
DWIDTH 16 0
BBX 15 15 0 -1
BITMAP
1800
19BE
37A6
3626
7626
F626
B626
3626
3626
36A6
37A6
372E
362C
3020
3020
ENDCHAR
STARTCHAR $4EF2
ENCODING 20210
SWIDTH 1000 0
DWIDTH 16 0
BBX 15 15 0 -1
BITMAP
1860
1860
1860
37FE
37FE
7666
F666
B666
37FE
37FE
3666
3060
3060
3060
3060
ENDCHAR
STARTCHAR $4EF3
ENCODING 20211
SWIDTH 1000 0
DWIDTH 16 0
BBX 15 15 0 -1
BITMAP
1B30
1B30
1B30
3330
3332
73B6
F3BC
3338
3330
3330
3330
3330
33B6
33BE
331C
ENDCHAR
STARTCHAR $4EF5
ENCODING 20213
SWIDTH 1000 0
DWIDTH 16 0
BBX 15 15 0 -1
BITMAP
1980
1980
1980
33FC
33FC
7660
7060
F060
37FE
37FE
3060
3060
3060
3060
3060
ENDCHAR
STARTCHAR $4EF6
ENCODING 20214
SWIDTH 1000 0
DWIDTH 16 0
BBX 15 15 0 -1
BITMAP
1860
1B60
1B60
3360
33FC
77FC
F660
B060
37FE
37FE
3060
3060
3060
3060
3060
ENDCHAR
STARTCHAR $4EF7
ENCODING 20215
SWIDTH 1000 0
DWIDTH 16 0
BBX 15 15 0 -1
BITMAP
18C0
18C0
18E0
31B0
3318
760C
FDB6
B1B0
31B0
31B0
31B0
31B0
3330
3630
3430
ENDCHAR
STARTCHAR $4EFB
ENCODING 20219
SWIDTH 1000 0
DWIDTH 16 0
BBX 15 15 0 -1
BITMAP
1800
1838
37FC
37E0
7060
F060
B060
37FE
37FE
3060
3060
3060
3060
37FC
37FC
ENDCHAR
STARTCHAR $4EFD
ENCODING 20221
SWIDTH 1000 0
DWIDTH 16 0
BBX 15 15 0 -1
BITMAP
1800
19B0
19B0
31B0
3318
760C
FFFE
BBFA
3198
3198
3198
3198
3318
3778
3670
ENDCHAR
STARTCHAR $4EFF
ENCODING 20223
SWIDTH 1000 0
DWIDTH 16 0
BBX 15 15 0 -1
BITMAP
18C0
18E0
3860
37FE
77FE
F180
B1FC
31FC
318C
318C
318C
330C
370C
3E3C
3438
ENDCHAR
STARTCHAR $4F01
ENCODING 20225
SWIDTH 1000 0
DWIDTH 16 0
BBX 15 15 0 -1
BITMAP
0180
0380
06C0
0C60
1838
F19E
6184
1980
19F8
19F8
1980
1980
1980
7FFC
7FFC
ENDCHAR
STARTCHAR $4F09
ENCODING 20233
SWIDTH 1000 0
DWIDTH 16 0
BBX 15 15 0 -1
BITMAP
18C0
18E0
1860
37FC
37FC
7000
F3F0
B3F0
3330
3330
3330
3330
3736
3E3E
341E
ENDCHAR
STARTCHAR $4F0A
ENCODING 20234
SWIDTH 1000 0
DWIDTH 16 0
BBX 15 15 0 -1
BITMAP
1800
1BFC
1BFC
38CC
37FE
77FE
F0CC
B0CC
33FC
33FC
318C
3180
3300
3600
3400
ENDCHAR
STARTCHAR $4F0D
ENCODING 20237
SWIDTH 1000 0
DWIDTH 16 0
BBX 15 15 0 -1
BITMAP
1800
1BFC
1BFC
30C0
30C0
70C0
F7F8
B7F8
3198
3198
3198
3198
3FFE
3FFE
3000
ENDCHAR
STARTCHAR $4F0E
ENCODING 20238
SWIDTH 1000 0
DWIDTH 16 0
BBX 15 15 0 -1
BITMAP
1860
1860
1FFC
37FC
3060
7060
F7F8
B7F8
3318
3130
31B0
30E0
31F8
371E
3606
ENDCHAR
STARTCHAR $4F0F
ENCODING 20239
SWIDTH 1000 0
DWIDTH 16 0
BBX 15 15 0 -1
BITMAP
1860
1868
386C
3064
37FE
77FE
F060
B060
30E0
30F0
3190
3198
330C
3606
3402
ENDCHAR
STARTCHAR $4F10
ENCODING 20240
SWIDTH 1000 0
DWIDTH 16 0
BBX 15 15 0 -1
BITMAP
18C0
18D8
18D8
30C0
30FC
77FC
F7C0
B0CC
30DC
3078
3070
30E4
33B6
371E
300C
ENDCHAR
STARTCHAR $4F11
ENCODING 20241
SWIDTH 1000 0
DWIDTH 16 0
BBX 15 15 0 -1
BITMAP
18C0
18C0
18C0
30C0
37FC
77FC
F0C0
B1E0
31F0
33D0
32D8
36CC
3CC6
30C0
30C0
ENDCHAR
STARTCHAR $4F17
ENCODING 20247
SWIDTH 1000 0
DWIDTH 16 0
BBX 14 15 1 -1
BITMAP
0600
0600
0F00
1980
30C0
E078
D8D8
18C0
18C0
18C0
38C0
6CE0
C5B0
8318
060C
ENDCHAR
STARTCHAR $4F18
ENCODING 20248
SWIDTH 1000 0
DWIDTH 16 0
BBX 15 15 0 -1
BITMAP
18C0
18D8
18CC
30C0
37FE
77FE
F1B0
B1B0
31B0
31B0
31B0
3332
3332
363E
3C1C
ENDCHAR
STARTCHAR $4F19
ENCODING 20249
SWIDTH 1000 0
DWIDTH 16 0
BBX 15 15 0 -1
BITMAP
1860
1860
1860
3364
3364
726C
F668
B668
30E0
30E0
31B0
3198
330C
360E
3404
ENDCHAR
STARTCHAR $4F1A
ENCODING 20250
SWIDTH 1000 0
DWIDTH 16 0
BBX 14 15 1 -1
BITMAP
0600
0600
0F00
1980
30E0
EFBC
CF98
0000
FFF8
FFF8
0C00
18C0
3060
7FF0
7830
ENDCHAR
STARTCHAR $4F1B
ENCODING 20251
SWIDTH 1000 0
DWIDTH 16 0
BBX 15 15 0 -1
BITMAP
1800
1FFE
37FE
3600
3698
76D8
F670
B630
3638
3668
36CC
3684
3600
37FE
37FE
ENDCHAR
STARTCHAR $4F1E
ENCODING 20254
SWIDTH 1000 0
DWIDTH 16 0
BBX 14 15 1 -1
BITMAP
0600
0700
0D80
18E0
3078
E31C
C300
3330
3330
1B60
FFF8
FFF8
0300
0300
0300
ENDCHAR
STARTCHAR $4F1F
ENCODING 20255
SWIDTH 1000 0
DWIDTH 16 0
BBX 15 15 0 -1
BITMAP
1860
1860
1FFE
37FE
3060
73FC
F3FC
B060
37FE
37FE
3066
3066
306E
306C
3060
ENDCHAR
STARTCHAR $4F20
ENCODING 20256
SWIDTH 1000 0
DWIDTH 16 0
BBX 15 15 0 -1
BITMAP
18C0
18C0
37FC
37FC
30C0
77FE
F7FE
B180
31F8
31F8
3018
31B0
30E0
3070
3030
ENDCHAR
STARTCHAR $4F22
ENCODING 20258
SWIDTH 1000 0
DWIDTH 16 0
BBX 15 15 0 -1
BITMAP
1800
1BFE
1BFE
3018
3318
7318
F7FE
B7FE
30D8
30D8
3198
3198
3318
3638
3030
ENDCHAR
STARTCHAR $4F24
ENCODING 20260
SWIDTH 1000 0
DWIDTH 16 0
BBX 15 15 0 -1
BITMAP
1980
1980
39FE
33FE
3600
74C0
F0C0
B3FC
33FC
30CC
308C
318C
330C
363C
3438
ENDCHAR
STARTCHAR $4F25
ENCODING 20261
SWIDTH 1000 0
DWIDTH 16 0
BBX 15 15 0 -1
BITMAP
1980
198C
1998
31B0
31E0
7180
F7FE
B7FE
31B0
31B0
3198
319C
31CE
31C4
3180
ENDCHAR
STARTCHAR $4F26
ENCODING 20262
SWIDTH 1000 0
DWIDTH 16 0
BBX 15 15 0 -1
BITMAP
00C0
18C0
18E0
31B0
3318
760C
FD86
B198
31B8
31E0
3180
3180
318C
31FC
30F8
ENDCHAR
STARTCHAR $4F27
ENCODING 20263
SWIDTH 1000 0
DWIDTH 16 0
BBX 15 15 0 -1
BITMAP
18C0
18C0
18E0
31B0
3318
760C
FFFE
B3F8
3318
3318
3338
3300
3306
33FE
31FC
ENDCHAR
STARTCHAR $4F2A
ENCODING 20266
SWIDTH 1000 0
DWIDTH 16 0
BBX 14 15 0 -1
BITMAP
1860
1B60
1B60
3060
37FC
77FC
F0CC
30CC
30EC
31BC
319C
330C
360C
3C3C
3038
ENDCHAR
STARTCHAR $4F2B
ENCODING 20267
SWIDTH 1000 0
DWIDTH 16 0
BBX 15 15 0 -1
BITMAP
18C0
1860
1860
37FE
37FE
7606
7606
F606
3000
3000
3000
3000
37FE
37FE
3000
ENDCHAR
STARTCHAR $4F2F
ENCODING 20271
SWIDTH 1000 0
DWIDTH 16 0
BBX 14 15 0 -1
BITMAP
18C0
18C0
1BFC
33FC
330C
730C
F30C
B3FC
33FC
330C
330C
330C
33FC
33FC
330C
ENDCHAR
STARTCHAR $4F30
ENCODING 20272
SWIDTH 1000 0
DWIDTH 16 0
BBX 15 15 0 -1
BITMAP
1860
1860
1860
37FE
37FE
7060
F060
B3FC
33FC
330C
330C
330C
33FC
33FC
330C
ENDCHAR
STARTCHAR $4F32
ENCODING 20274
SWIDTH 1000 0
DWIDTH 16 0
BBX 15 15 0 -1
BITMAP
1800
1BFC
1BFC
330C
330C
73FC
F300
B34C
335C
3378
3360
3340
3646
347E
383C
ENDCHAR
STARTCHAR $4F34
ENCODING 20276
SWIDTH 1000 0
DWIDTH 16 0
BBX 15 15 0 -1
BITMAP
1860
1860
1A64
3B6C
3168
73FC
F3FC
B060
3060
37FE
37FE
3060
3060
3060
3060
ENDCHAR
STARTCHAR $4F36
ENCODING 20278
SWIDTH 1000 0
DWIDTH 16 0
BBX 15 15 0 -1
BITMAP
18C0
18C0
31E0
31B0
7318
F6CC
BC66
37F8
37F8
3018
3030
31E0
30C0
3060
3030
ENDCHAR
STARTCHAR $4F38
ENCODING 20280
SWIDTH 1000 0
DWIDTH 16 0
BBX 15 15 0 -1
BITMAP
1860
1860
1FFE
37FE
3666
7666
F7FE
B7FE
3666
37FE
37FE
3666
3060
3060
3060
ENDCHAR
STARTCHAR $4F3A
ENCODING 20282
SWIDTH 1000 0
DWIDTH 16 0
BBX 15 15 0 -1
BITMAP
1800
1BFE
33FE
3006
77F6
F7F6
B006
33F6
33F6
3336
33F6
33F6
3006
301E
301C
ENDCHAR
STARTCHAR $4F3C
ENCODING 20284
SWIDTH 1000 0
DWIDTH 16 0
BBX 15 15 0 -1
BITMAP
1980
18D8
18D8
3658
7618
7618
F618
B618
3698
37B0
3738
366C
30C6
3186
3100
ENDCHAR
STARTCHAR $4F3D
ENCODING 20285
SWIDTH 1000 0
DWIDTH 16 0
BBX 15 15 0 -1
BITMAP
1A00
1A00
1A00
37BE
37BE
72B6
F2B6
B2B6
32B6
32B6
36B6
34B6
3CBE
39B6
3000
ENDCHAR
STARTCHAR $4F43
ENCODING 20291
SWIDTH 1000 0
DWIDTH 16 0
BBX 14 15 0 -1
BITMAP
1800
1FFC
37FC
366C
766C
766C
F7FC
B7FC
366C
366C
366C
37FC
37FC
360C
3000
ENDCHAR
STARTCHAR $4F46
ENCODING 20294
SWIDTH 1000 0
DWIDTH 16 0
BBX 15 15 0 -1
BITMAP
1800
1BFC
33FC
330C
730C
F3FC
B3FC
330C
330C
33FC
33FC
3000
37FE
37FE
3000
ENDCHAR
STARTCHAR $4F4D
ENCODING 20301
SWIDTH 1000 0
DWIDTH 16 0
BBX 15 15 0 -1
BITMAP
1880
18C0
3060
37FC
77FC
7000
F318
B318
3198
31B0
31B0
3030
37FE
37FE
3000
ENDCHAR
STARTCHAR $4F4E
ENCODING 20302
SWIDTH 1000 0
DWIDTH 16 0
BBX 15 15 0 -1
BITMAP
1800
19FC
37FC
3660
3660
7660
F7FE
B7FE
3630
3630
3630
379A
37DE
366E
3000
ENDCHAR
STARTCHAR $4F4F
ENCODING 20303
SWIDTH 1000 0
DWIDTH 16 0
BBX 15 15 0 -1
BITMAP
18C0
1860
1800
37FE
37FE
7060
F060
33FC
33FC
3060
3060
3060
3060
37FE
37FE
ENDCHAR
STARTCHAR $4F50
ENCODING 20304
SWIDTH 1000 0
DWIDTH 16 0
BBX 15 15 0 -1
BITMAP
18C0
18C0
18C0
37FE
37FE
7180
F180
B3FC
33FC
3630
3C30
3030
3030
33FE
33FE
ENDCHAR
STARTCHAR $4F51
ENCODING 20305
SWIDTH 1000 0
DWIDTH 16 0
BBX 15 15 0 -1
BITMAP
18C0
18C0
18C0
37FE
37FE
7180
F180
B3FC
37FC
3F0C
330C
330C
33FC
33FC
330C
ENDCHAR
STARTCHAR $4F53
ENCODING 20307
SWIDTH 1000 0
DWIDTH 16 0
BBX 15 15 0 -1
BITMAP
1860
1860
3060
37FE
77FE
70E0
F1F0
B1F8
3368
3264
37FE
3DFA
3060
3060
3060
ENDCHAR
STARTCHAR $4F55
ENCODING 20309
SWIDTH 1000 0
DWIDTH 16 0
BBX 15 15 0 -1
BITMAP
1800
1BFE
33FE
300C
700C
F7EC
B7EC
366C
366C
37EC
37EC
366C
300C
303C
3018
ENDCHAR
STARTCHAR $4F57
ENCODING 20311
SWIDTH 1000 0
DWIDTH 16 0
BBX 15 15 0 -1
BITMAP
1860
1860
3FFE
37FE
7606
7606
F180
B198
31F8
31E0
3180
3180
3186
31FE
30FC
ENDCHAR
STARTCHAR $4F58
ENCODING 20312
SWIDTH 1000 0
DWIDTH 16 0
BBX 15 15 0 -1
BITMAP
0300
0780
0CC0
1870
303C
EFEE
0FE0
0000
3FFC
3FFC
0180
19B0
3198
678C
0700
ENDCHAR
STARTCHAR $4F59
ENCODING 20313
SWIDTH 1000 0
DWIDTH 16 0
BBX 15 15 0 -1
BITMAP
0300
0780
0CC0
1860
3030
FFFE
DFEE
0300
7FF8
7FF8
0300
1B60
3330
6718
0600
ENDCHAR
STARTCHAR $4F5A
ENCODING 20314
SWIDTH 1000 0
DWIDTH 16 0
BBX 15 15 0 -1
BITMAP
1860
1860
1B60
33FC
33FC
7660
F060
B7FE
37FE
3060
30F0
30D8
3198
370E
3606
ENDCHAR
STARTCHAR $4F5B
ENCODING 20315
SWIDTH 1000 0
DWIDTH 16 0
BBX 15 15 0 -1
BITMAP
19B0
19B0
37FC
37FC
71B4
77FC
F7FC
B5B0
37FE
37FE
31B6
31B6
333C
3630
3430
ENDCHAR
STARTCHAR $4F5C
ENCODING 20316
SWIDTH 1000 0
DWIDTH 16 0
BBX 15 15 0 -1
BITMAP
18C0
18C0
1980
31FE
33FE
76C0
F0FC
B0FC
30C0
30C0
30FE
30FE
30C0
30C0
30C0
ENDCHAR
STARTCHAR $4F5D
ENCODING 20317
SWIDTH 1000 0
DWIDTH 16 0
BBX 14 15 0 -1
BITMAP
1980
1980
19FC
33FC
360C
7C0C
F3EC
B3EC
332C
332C
33EC
33EC
330C
301C
3018
ENDCHAR
STARTCHAR $4F5E
ENCODING 20318
SWIDTH 1000 0
DWIDTH 16 0
BBX 15 15 0 -1
BITMAP
1800
1BF8
1BF8
3000
37FE
77FE
F0C0
BFFE
3FFE
3198
3330
33E0
30F8
378C
3604
ENDCHAR
STARTCHAR $4F5F
ENCODING 20319
SWIDTH 1000 0
DWIDTH 16 0
BBX 15 15 0 -1
BITMAP
1980
1980
19FC
33FC
378C
76D8
F070
B0D8
378E
3766
3038
3000
31E0
3078
3018
ENDCHAR
STARTCHAR $4F60
ENCODING 20320
SWIDTH 1000 0
DWIDTH 16 0
BBX 15 15 0 -1
BITMAP
1980
1980
19FE
33FE
3706
760C
F060
B060
3368
336C
3664
3666
3466
31E0
30C0
ENDCHAR
STARTCHAR $4F63
ENCODING 20323
SWIDTH 1000 0
DWIDTH 16 0
BBX 14 15 0 -1
BITMAP
1800
1FFC
37FC
36CC
76CC
77FC
F7FC
36CC
36CC
37FC
37FC
36CC
36CC
3CDC
3818
ENDCHAR
STARTCHAR $4F64
ENCODING 20324
SWIDTH 1000 0
DWIDTH 16 0
BBX 15 15 0 -1
BITMAP
1BFC
1BFC
1980
3980
31F8
71F8
F318
B398
3358
3358
3318
3318
33DA
339E
321E
ENDCHAR
STARTCHAR $4F65
ENCODING 20325
SWIDTH 1000 0
DWIDTH 16 0
BBX 15 15 0 -1
BITMAP
0100
0380
06C0
0C60
1830
FFFE
EFEE
0000
3318
3B98
19B0
19B0
0060
7FFC
7FFC
ENDCHAR
STARTCHAR $4F67
ENCODING 20327
SWIDTH 1000 0
DWIDTH 16 0
BBX 15 15 0 -1
BITMAP
18C0
18C0
18FC
30FC
30C0
70C0
FFFE
BFFE
30C0
30E0
30F0
30D8
30CC
30C0
30C0
ENDCHAR
STARTCHAR $4F69
ENCODING 20329
SWIDTH 1000 0
DWIDTH 16 0
BBX 15 15 0 -1
BITMAP
3000
3FF8
2FF8
6808
6BE8
E888
EBE8
6AA8
6AA8
6AA8
6AA8
6AEA
688A
7086
6002
ENDCHAR
STARTCHAR $4F6C
ENCODING 20332
SWIDTH 1000 0
DWIDTH 16 0
BBX 15 15 0 -1
BITMAP
18C0
18C0
1BEC
33EC
30D8
77FE
F7FE
B0E0
31CC
37BC
37F0
31C0
3186
31FE
30FC
ENDCHAR
STARTCHAR $4F6F
ENCODING 20335
SWIDTH 1000 0
DWIDTH 16 0
BBX 15 15 0 -1
BITMAP
1B18
1998
1830
37FE
37FE
7060
F3FC
B3FC
3060
3060
37FE
37FE
3060
3060
3060
ENDCHAR
STARTCHAR $4F70
ENCODING 20336
SWIDTH 1000 0
DWIDTH 16 0
BBX 15 15 0 -1
BITMAP
1800
1FFE
1FFE
3060
33FC
73FC
F30C
B30C
33FC
33FC
330C
330C
33FC
33FC
330C
ENDCHAR
STARTCHAR $4F73
ENCODING 20339
SWIDTH 1000 0
DWIDTH 16 0
BBX 15 15 0 -1
BITMAP
1860
1860
33FC
33FC
7060
77FE
F7FE
B000
3060
33FC
33FC
3060
3060
37FE
37FE
ENDCHAR
STARTCHAR $4F74
ENCODING 20340
SWIDTH 1000 0
DWIDTH 16 0
BBX 15 15 0 -1
BITMAP
1800
1FFE
1FFE
3318
3318
73F8
F318
B318
33F8
331E
37FE
37F8
3018
3018
3018
ENDCHAR
STARTCHAR $4F76
ENCODING 20342
SWIDTH 1000 0
DWIDTH 16 0
BBX 15 15 0 -1
BITMAP
1860
1860
1FFE
37FE
3060
73FC
F3FC
B000
33FC
33FC
330C
330C
33FC
33FC
330C
ENDCHAR
STARTCHAR $4F7B
ENCODING 20347
SWIDTH 1000 0
DWIDTH 16 0
BBX 15 15 0 -1
BITMAP
19B0
19B0
19B0
35B6
37BC
73B8
F1B0
B3B8
37BC
3DB6
31B0
31B0
3336
3E3E
341E
ENDCHAR
STARTCHAR $4F7C
ENCODING 20348
SWIDTH 1000 0
DWIDTH 16 0
BBX 15 15 0 -1
BITMAP
1860
1860
1FFE
37FE
3000
7198
F70C
B606
3198
3198
31B0
30E0
31B0
371E
360E
ENDCHAR
STARTCHAR $4F7E
ENCODING 20350
SWIDTH 1000 0
DWIDTH 16 0
BBX 15 15 0 -1
BITMAP
1830
19B0
19B0
3318
360E
7FFE
F3F8
B318
33F8
3318
33F8
3318
3318
3338
3330
ENDCHAR
STARTCHAR $4F7F
ENCODING 20351
SWIDTH 1000 0
DWIDTH 16 0
BBX 15 15 0 -1
BITMAP
1860
1860
37FE
37FE
7060
F3FC
B36C
336C
33FC
3060
3360
33C0
31F0
373E
360C
ENDCHAR
STARTCHAR $4F83
ENCODING 20355
SWIDTH 1000 0
DWIDTH 16 0
BBX 15 15 0 -1
BITMAP
1800
1BFC
1BFC
330C
330C
73FC
F000
B358
3358
3358
3358
3358
335A
365E
340E
ENDCHAR
STARTCHAR $4F84
ENCODING 20356
SWIDTH 1000 0
DWIDTH 16 0
BBX 15 15 0 -1
BITMAP
1800
1BFC
1BFC
30C0
3198
730C
F3FE
B066
3060
33FC
33FC
3060
3060
37FE
37FE
ENDCHAR
STARTCHAR $4F88
ENCODING 20360
SWIDTH 1000 0
DWIDTH 16 0
BBX 14 15 0 -1
BITMAP
1980
19FC
3BFC
3318
76B0
F0E0
B7C0
3760
30FC
33FC
330C
30D8
3070
37E0
3780
ENDCHAR
STARTCHAR $4F89
ENCODING 20361
SWIDTH 1000 0
DWIDTH 16 0
BBX 15 15 0 -1
BITMAP
1860
1BFE
1BFE
31B0
3118
73FC
F6F6
B000
37FC
37FC
3180
31F8
3018
3078
3030
ENDCHAR
STARTCHAR $4F8B
ENCODING 20363
SWIDTH 1000 0
DWIDTH 16 0
BBX 15 15 0 -1
BITMAP
1800
1FC6
37C6
3316
7316
73D6
F6D6
BCD6
3ED6
33D6
3196
3186
3306
360E
340C
ENDCHAR
STARTCHAR $4F8D
ENCODING 20365
SWIDTH 1000 0
DWIDTH 16 0
BBX 15 15 0 -1
BITMAP
1860
1860
33FC
33FC
7060
F7FE
B7FE
3018
37FE
37FE
3318
3198
3198
3078
3070
ENDCHAR
STARTCHAR $4F8F
ENCODING 20367
SWIDTH 1000 0
DWIDTH 16 0
BBX 15 15 0 -1
BITMAP
1860
1B60
1BFC
33FC
3660
7060
F7FE
B7FE
30E0
31F0
3378
366C
3C66
3060
3060
ENDCHAR
STARTCHAR $4F91
ENCODING 20369
SWIDTH 1000 0
DWIDTH 16 0
BBX 15 15 0 -1
BITMAP
18C0
18C0
1FFE
37FE
3180
73FC
F7FC
BD8C
31FC
318C
31FC
318C
318C
319C
3198
ENDCHAR
STARTCHAR $4F94
ENCODING 20372
SWIDTH 1000 0
DWIDTH 16 0
BBX 15 15 0 -1
BITMAP
18C0
18C0
1998
330C
33FC
7000
F360
B3FC
37FC
3060
37FE
37FE
3060
3060
3060
ENDCHAR
STARTCHAR $4F97
ENCODING 20375
SWIDTH 1000 0
DWIDTH 16 0
BBX 15 15 0 -1
BITMAP
1800
1FFE
37FE
3606
76F6
F6F6
B606
36F6
36F6
36B6
36F6
36F6
3606
361E
361C
ENDCHAR
STARTCHAR $4F9B
ENCODING 20379
SWIDTH 1000 0
DWIDTH 16 0
BBX 15 15 0 -1
BITMAP
1998
1998
3998
37FE
37FE
7198
F198
B198
37FE
37FE
3000
3198
330C
3606
3402
ENDCHAR
STARTCHAR $4F9D
ENCODING 20381
SWIDTH 1000 0
DWIDTH 16 0
BBX 15 15 0 -1
BITMAP
1860
1860
1FFE
37FE
30C0
70C0
F1A6
B1AC
33B8
37B0
3D90
3198
31CC
31C6
3180
ENDCHAR
STARTCHAR $4FA0
ENCODING 20384
SWIDTH 1000 0
DWIDTH 16 0
BBX 15 15 0 -1
BITMAP
18C0
18C0
37FC
37FC
70C0
F6CC
B2D8
30C0
3FFE
3FFE
30E0
31B0
3318
360E
3C06
ENDCHAR
STARTCHAR $4FA3
ENCODING 20387
SWIDTH 1000 0
DWIDTH 16 0
BBX 15 15 0 -1
BITMAP
1800
1BFC
1BFC
330C
330C
73FC
F3FC
B000
37FE
37FE
3606
3606
37FE
37FE
3606
ENDCHAR
STARTCHAR $4FA5
ENCODING 20389
SWIDTH 1000 0
DWIDTH 16 0
BBX 15 15 0 -1
BITMAP
1980
19FC
37FC
3798
70F8
F1E4
B7BC
3018
37FE
37FE
31B0
31B0
33B6
373E
361C
ENDCHAR
STARTCHAR $4FA6
ENCODING 20390
SWIDTH 1000 0
DWIDTH 16 0
BBX 15 15 0 -1
BITMAP
18C0
18FE
30FE
30C0
77FC
F7FC
B60C
36CC
36CC
36CC
36CC
30F0
3198
370C
3604
ENDCHAR
STARTCHAR $4FA7
ENCODING 20391
SWIDTH 1000 0
DWIDTH 16 0
BBX 14 15 0 -1
BITMAP
3000
3FC4
3FD4
6854
6B54
EB54
EB54
6B54
6B54
6B54
6314
6284
66C4
6C4C
600C
ENDCHAR
STARTCHAR $4FA8
ENCODING 20392
SWIDTH 1000 0
DWIDTH 16 0
BBX 15 15 0 -1
BITMAP
1838
1BFC
33C0
30C0
77FC
F7FC
B198
330C
3606
3330
3330
3330
3330
3630
3430
ENDCHAR
STARTCHAR $4FA9
ENCODING 20393
SWIDTH 1000 0
DWIDTH 16 0
BBX 15 15 0 -1
BITMAP
18C0
18C0
19E0
31B0
3318
7FFC
F5F6
B000
37FC
37FC
3180
3198
3318
37FC
370C
ENDCHAR
STARTCHAR $4FAA
ENCODING 20394
SWIDTH 1000 0
DWIDTH 16 0
BBX 15 15 0 -1
BITMAP
1860
1FFE
1FFE
3318
31B0
70E0
F1B0
BF1E
3606
3198
3198
3198
3318
3618
3418
ENDCHAR
STARTCHAR $4FAC
ENCODING 20396
SWIDTH 1000 0
DWIDTH 16 0
BBX 15 15 0 -1
BITMAP
1860
1860
1FFE
37FE
36C6
70C0
F1C0
B16C
336C
3738
3B30
3318
33CE
3386
3300
ENDCHAR
STARTCHAR $4FAE
ENCODING 20398
SWIDTH 1000 0
DWIDTH 16 0
BBX 15 15 0 -1
BITMAP
1980
19FC
1BFC
3700
3FFC
73FC
F36C
B7FE
37FE
334C
336C
33FE
33FE
3018
3038
ENDCHAR
STARTCHAR $4FAF
ENCODING 20399
SWIDTH 1000 0
DWIDTH 16 0
BBX 15 15 0 -1
BITMAP
1800
1BF8
33F8
3018
77FE
F7FE
B300
33FC
3660
37FE
37FE
30F0
3198
370E
3604
ENDCHAR
STARTCHAR $4FB5
ENCODING 20405
SWIDTH 1000 0
DWIDTH 16 0
BBX 15 15 0 -1
BITMAP
1BFC
180C
33FC
300C
73FC
F000
B7FE
37FE
3606
33F8
3198
31B0
30E0
33B8
370E
ENDCHAR
STARTCHAR $4FBF
ENCODING 20415
SWIDTH 1000 0
DWIDTH 16 0
BBX 15 15 0 -1
BITMAP
1FFC
1FFC
1860
37FC
366C
766C
F7FC
B66C
37FC
37FC
3260
3340
31E0
373E
340C
ENDCHAR
STARTCHAR $4FC3
ENCODING 20419
SWIDTH 1000 0
DWIDTH 16 0
BBX 15 15 0 -1
BITMAP
1800
1BFC
1BFC
330C
330C
73FC
F3FC
B060
3360
337C
337C
3760
37E0
3CFE
303E
ENDCHAR
STARTCHAR $4FC4
ENCODING 20420
SWIDTH 1000 0
DWIDTH 16 0
BBX 15 15 0 -1
BITMAP
1830
19B0
37BC
3736
7330
FFFE
BFFE
3330
33B4
37BC
3718
3338
337A
374E
3606
ENDCHAR
STARTCHAR $4FC5
ENCODING 20421
SWIDTH 1000 0
DWIDTH 16 0
BBX 15 15 0 -1
BITMAP
18D0
18D8
18C8
37FE
37FE
70C0
F4CC
B6CC
32D8
31F0
33D8
36CC
34C6
31C0
31C0
ENDCHAR
STARTCHAR $4FCA
ENCODING 20426
SWIDTH 1000 0
DWIDTH 16 0
BBX 15 15 0 -1
BITMAP
18C0
1980
3B18
37FC
77FC
7198
F30C
B6C4
31F8
33F8
3698
34F0
3070
33DE
370E
ENDCHAR
STARTCHAR $4FCE
ENCODING 20430
SWIDTH 1000 0
DWIDTH 16 0
BBX 15 15 0 -1
BITMAP
3000
31FC
31FC
398C
6D8C
C5FC
81FC
318C
318C
31FC
39FC
6D8C
658C
C3FE
03FE
ENDCHAR
STARTCHAR $4FCF
ENCODING 20431
SWIDTH 1000 0
DWIDTH 16 0
BBX 14 15 0 -1
BITMAP
1860
1A64
336C
3168
73FC
F3FC
B30C
330C
33FC
330C
330C
33FC
330C
331C
3318
ENDCHAR
STARTCHAR $4FD0
ENCODING 20432
SWIDTH 1000 0
DWIDTH 16 0
BBX 15 15 0 -1
BITMAP
1800
1986
3786
3736
7336
FFF6
BFF6
3336
37B6
3F76
3B36
3306
3306
330E
330C
ENDCHAR
STARTCHAR $4FD1
ENCODING 20433
SWIDTH 1000 0
DWIDTH 16 0
BBX 14 15 0 -1
BITMAP
1BFC
1BFC
1998
30B0
37FC
77FC
F64C
B7FC
364C
364C
37FC
364C
364C
365C
3618
ENDCHAR
STARTCHAR $4FD7
ENCODING 20439
SWIDTH 1000 0
DWIDTH 16 0
BBX 15 15 0 -1
BITMAP
18B0
1998
330C
36C6
70E0
71B0
F318
B60E
3FFE
33F8
3318
3318
33F8
33F8
3318
ENDCHAR
STARTCHAR $4FD8
ENCODING 20440
SWIDTH 1000 0
DWIDTH 16 0
BBX 15 15 0 -1
BITMAP
181C
1BFC
1980
36CC
3258
7010
F3F8
B3F8
3030
37FE
37FE
3060
3060
31E0
30C0
ENDCHAR
STARTCHAR $4FDA
ENCODING 20442
SWIDTH 1000 0
DWIDTH 16 0
BBX 15 15 0 -1
BITMAP
1FFC
1FFC
1E6C
366C
37FC
766C
F66C
B7FC
37FC
3060
37FC
37FC
3060
3FFE
3FFE
ENDCHAR
STARTCHAR $4FDC
ENCODING 20444
SWIDTH 1000 0
DWIDTH 16 0
BBX 15 15 0 -1
BITMAP
18C0
18C0
1FFC
36CC
37FC
76CC
F7FC
B000
3FFE
3FFE
3300
33FC
300C
303C
3038
ENDCHAR
STARTCHAR $4FDD
ENCODING 20445
SWIDTH 1000 0
DWIDTH 16 0
BBX 15 15 0 -1
BITMAP
1800
1BFC
1BFC
330C
33FC
73FC
F060
B7FE
37FE
30F0
31F8
336C
3666
3462
3060
ENDCHAR
STARTCHAR $4FDE
ENCODING 20446
SWIDTH 1000 0
DWIDTH 16 0
BBX 14 15 1 -1
BITMAP
0600
0F00
1980
30E0
FFFC
DFDC
0000
7EB0
66B0
7EB0
66B0
7EB0
6630
6E70
6C60
ENDCHAR
STARTCHAR $4FDF
ENCODING 20447
SWIDTH 1000 0
DWIDTH 16 0
BBX 15 15 0 -1
BITMAP
18C0
18C0
1998
33FC
300C
7300
F3FC
B660
3060
37FE
37FE
30D0
3198
370C
3606
ENDCHAR
STARTCHAR $4FE1
ENCODING 20449
SWIDTH 1000 0
DWIDTH 16 0
BBX 15 15 0 -1
BITMAP
1860
1860
37FE
37FE
7000
73FC
F000
33FC
3000
33FC
33FC
330C
33FC
33FC
330C
ENDCHAR
STARTCHAR $4FE3
ENCODING 20451
SWIDTH 1000 0
DWIDTH 16 0
BBX 15 15 0 -1
BITMAP
1BFC
1BFC
1B0C
330C
33FC
7000
F3FC
B3FC
3060
37FE
37FE
31B0
3318
3E0E
3406
ENDCHAR
STARTCHAR $4FE6
ENCODING 20454
SWIDTH 1000 0
DWIDTH 16 0
BBX 15 15 0 -1
BITMAP
18C0
18C0
1BFC
33FC
30C0
73FC
F0C0
B7FE
37FE
3198
33FE
3618
3D98
30B8
3030
ENDCHAR
STARTCHAR $4FE8
ENCODING 20456
SWIDTH 1000 0
DWIDTH 16 0
BBX 15 15 0 -1
BITMAP
1BFE
1BFE
18D8
32DA
31DC
70D8
F3FE
B3FE
3300
3300
3300
3300
3300
3600
3400
ENDCHAR
STARTCHAR $4FE9
ENCODING 20457
SWIDTH 1000 0
DWIDTH 16 0
BBX 15 15 0 -1
BITMAP
1800
1FFE
37FE
3090
77FE
F7FE
B696
3696
36D6
37B6
372E
3666
3606
360E
360C
ENDCHAR
STARTCHAR $4FEA
ENCODING 20458
SWIDTH 1000 0
DWIDTH 16 0
BBX 15 15 0 -1
BITMAP
1BFE
1BFE
1800
37BE
37BE
74A6
F4A6
B6B6
35AE
35AE
34A6
34A6
34A6
34A6
35AE
ENDCHAR
STARTCHAR $4FED
ENCODING 20461
SWIDTH 1000 0
DWIDTH 16 0
BBX 15 15 0 -1
BITMAP
18C0
18C0
19E0
31B0
3318
77FE
FDF6
B000
36D8
32D8
3358
3330
3030
37FE
37FE
ENDCHAR
STARTCHAR $4FEE
ENCODING 20462
SWIDTH 1000 0
DWIDTH 16 0
BBX 15 15 0 -1
BITMAP
18C0
18FC
31FC
3198
7758
F470
B7DE
3706
3460
3598
3470
34CC
3138
30E0
3380
ENDCHAR
STARTCHAR $4FEF
ENCODING 20463
SWIDTH 1000 0
DWIDTH 16 0
BBX 15 15 0 -1
BITMAP
1860
1860
37FE
37FE
76CC
F6CC
F6FE
37FE
37CC
36EC
36DC
36CC
3ECC
34DC
30DC
ENDCHAR
STARTCHAR $4FF1
ENCODING 20465
SWIDTH 1000 0
DWIDTH 16 0
BBX 15 15 0 -1
BITMAP
1800
1BFC
33FC
330C
73FC
F30C
B3FC
330C
33FC
330C
37FE
37FE
3318
360C
3406
ENDCHAR
STARTCHAR $4FF3
ENCODING 20467
SWIDTH 1000 0
DWIDTH 16 0
BBX 15 15 0 -1
BITMAP
19B0
19B0
19B0
37BE
37BE
71B0
F7BC
B7BC
31B0
31B0
37BE
37BE
31B0
31B0
31B0
ENDCHAR
STARTCHAR $4FF8
ENCODING 20472
SWIDTH 1000 0
DWIDTH 16 0
BBX 15 15 0 -1
BITMAP
18C0
1FFC
1FFC
30C0
37F8
70C0
F7FC
B318
36CC
3DF6
30C0
37FC
37FC
30C0
30C0
ENDCHAR
STARTCHAR $4FFA
ENCODING 20474
SWIDTH 1000 0
DWIDTH 16 0
BBX 15 15 0 -1
BITMAP
18C0
18C0
3FFE
37FE
7318
F6CC
BFFE
3ED8
37F8
36D8
37F8
37F8
30C6
30FE
307C
ENDCHAR
STARTCHAR $4FFE
ENCODING 20478
SWIDTH 1000 0
DWIDTH 16 0
BBX 15 15 0 -1
BITMAP
18C0
18C0
37FC
37FC
766C
77FC
F6CC
36CC
37FC
31B0
3FFE
3FFE
3030
3030
3030
ENDCHAR
STARTCHAR $500C
ENCODING 20492
SWIDTH 1000 0
DWIDTH 16 0
BBX 15 15 0 -1
BITMAP
1860
1860
1FFE
37FE
3606
73F8
F318
B318
33F8
3300
33FC
330C
330C
33FC
330C
ENDCHAR
STARTCHAR $500D
ENCODING 20493
SWIDTH 1000 0
DWIDTH 16 0
BBX 15 15 0 -1
BITMAP
18C0
18C0
1FFC
37FC
3318
71B0
F7FE
B7FE
3000
33F8
3318
3318
33F8
33F8
3318
ENDCHAR
STARTCHAR $500F
ENCODING 20495
SWIDTH 1000 0
DWIDTH 16 0
BBX 15 15 0 -1
BITMAP
18C0
18FC
19FC
338C
34D8
7470
F4DE
B78E
3464
37FE
37FE
3070
30D8
338C
3304
ENDCHAR
STARTCHAR $5012
ENCODING 20498
SWIDTH 1000 0
DWIDTH 16 0
BBX 15 15 0 -1
BITMAP
1806
1FC6
37C6
3316
76D6
F7D6
B7D6
3316
37D6
37D6
3316
33C6
37C6
361E
301C
ENDCHAR
STARTCHAR $5014
ENCODING 20500
SWIDTH 1000 0
DWIDTH 16 0
BBX 14 15 0 -1
BITMAP
3000
37FC
37FC
760C
77FC
F600
B6B4
36B4
36FC
36B4
3630
36B4
36B4
3CFC
3804
ENDCHAR
STARTCHAR $5018
ENCODING 20504
SWIDTH 1000 0
DWIDTH 16 0
BBX 15 15 0 -1
BITMAP
1860
1E64
3B6C
3378
7060
F7FE
B7FE
3606
36F6
36F6
3696
36F6
36F6
360E
360C
ENDCHAR
STARTCHAR $5019
ENCODING 20505
SWIDTH 1000 0
DWIDTH 16 0
BBX 15 15 0 -1
BITMAP
3000
31F8
3C18
6DFE
6DFE
6CC0
EDFC
EDFC
6C30
6DFE
6DFE
6C70
60D8
638C
6306
ENDCHAR
STARTCHAR $501A
ENCODING 20506
SWIDTH 1000 0
DWIDTH 16 0
BBX 15 15 0 -1
BITMAP
1860
1860
37FE
37FE
7198
F30C
B7FE
37FE
300C
33EC
336C
336C
33EC
301C
0018
ENDCHAR
STARTCHAR $501C
ENCODING 20508
SWIDTH 1000 0
DWIDTH 16 0
BBX 15 15 0 -1
BITMAP
1FFE
1FFE
3606
3666
36F6
7666
F6F6
B606
36F6
3696
3696
36F6
3606
3C0E
380C
ENDCHAR
STARTCHAR $501F
ENCODING 20511
SWIDTH 1000 0
DWIDTH 16 0
BBX 15 15 0 -1
BITMAP
1998
1998
37FE
37FE
7198
F7FE
B7FE
3000
33FC
330C
330C
33FC
330C
33FC
330C
ENDCHAR
STARTCHAR $5021
ENCODING 20513
SWIDTH 1000 0
DWIDTH 16 0
BBX 15 15 0 -1
BITMAP
1800
1BFC
1BFC
330C
33FC
730C
F3FC
B000
37FE
3606
37FE
3606
3606
37FE
3606
ENDCHAR
STARTCHAR $5025
ENCODING 20517
SWIDTH 1000 0
DWIDTH 16 0
BBX 15 15 0 -1
BITMAP
1860
1860
1FFE
37FE
3606
71B0
F7BC
B60C
3000
33FC
33FC
3060
3060
37FE
37FE
ENDCHAR
STARTCHAR $5026
ENCODING 20518
SWIDTH 1000 0
DWIDTH 16 0
BBX 15 15 0 -1
BITMAP
18C0
1ED8
32D0
37FC
77FC
F0C0
B7FE
37FE
3318
37FC
3F36
3370
330C
33FC
31F8
ENDCHAR
STARTCHAR $5028
ENCODING 20520
SWIDTH 1000 0
DWIDTH 16 0
BBX 15 15 0 -1
BITMAP
1BFE
1BFE
1B06
3306
33FE
7330
F330
B3FE
3330
3330
33FE
33C6
36C6
36FE
34C6
ENDCHAR
STARTCHAR $5029
ENCODING 20521
SWIDTH 1000 0
DWIDTH 16 0
BBX 15 15 0 -1
BITMAP
1860
1BFC
1BFC
3060
33FC
7060
F7FE
B000
33FC
330C
33FC
330C
33FC
330C
331C
ENDCHAR
STARTCHAR $502A
ENCODING 20522
SWIDTH 1000 0
DWIDTH 16 0
BBX 15 15 0 -1
BITMAP
1980
1FBC
373C
360C
37BC
77BC
F60C
B7FC
37FC
31B0
31B0
31B0
3336
363E
341C
ENDCHAR
STARTCHAR $502C
ENCODING 20524
SWIDTH 1000 0
DWIDTH 16 0
BBX 15 15 0 -1
BITMAP
18C0
18FC
18FC
30C0
37FC
760C
F7FC
B60C
37FC
37FC
3060
3FFE
3FFE
3060
3060
ENDCHAR
STARTCHAR $502D
ENCODING 20525
SWIDTH 1000 0
DWIDTH 16 0
BBX 15 15 0 -1
BITMAP
183C
1BFC
1860
37FE
37FE
71F8
F76E
B666
30C0
37FE
37FE
3198
3070
31DC
3784
ENDCHAR
STARTCHAR $502E
ENCODING 20526
SWIDTH 1000 0
DWIDTH 16 0
BBX 15 15 0 -1
BITMAP
1BFC
1BFC
1B6C
33FC
336C
736C
F3FC
B060
37FE
37FE
31F0
3378
3E6E
3466
3060
ENDCHAR
STARTCHAR $503A
ENCODING 20538
SWIDTH 1000 0
DWIDTH 16 0
BBX 15 15 0 -1
BITMAP
1860
1BFC
3860
33FC
7060
F7FE
B000
33FC
330C
336C
336C
3060
30D8
378E
3706
ENDCHAR
STARTCHAR $503C
ENCODING 20540
SWIDTH 1000 0
DWIDTH 16 0
BBX 15 15 0 -1
BITMAP
1860
1FFE
1FFE
3060
33FC
73FC
F30C
33FC
330C
33FC
330C
33FC
330C
37FE
37FE
ENDCHAR
STARTCHAR $503E
ENCODING 20542
SWIDTH 1000 0
DWIDTH 16 0
BBX 15 15 0 -1
BITMAP
1800
18FE
36FE
3630
76FE
F786
B7B6
36B6
36B6
37B6
37B6
36B0
306C
30C6
3182
ENDCHAR
STARTCHAR $5043
ENCODING 20547
SWIDTH 1000 0
DWIDTH 16 0
BBX 15 15 0 -1
BITMAP
1800
1FFE
36FC
36CC
76FC
F6CC
B6FC
3660
37FE
36CC
36D8
3678
36CC
37FE
37FE
ENDCHAR
STARTCHAR $5047
ENCODING 20551
SWIDTH 1000 0
DWIDTH 16 0
BBX 15 15 0 -1
BITMAP
1800
1FDE
37DE
36C6
77DE
F7DE
B600
37BE
37BE
3636
3796
379C
361C
3636
3662
ENDCHAR
STARTCHAR $5048
ENCODING 20552
SWIDTH 1000 0
DWIDTH 16 0
BBX 15 15 0 -1
BITMAP
1BFC
1BFC
1B0C
33FC
330C
73FC
F180
B3FE
37FE
3446
32A6
3216
33F6
300E
300C
ENDCHAR
STARTCHAR $504C
ENCODING 20556
SWIDTH 1000 0
DWIDTH 16 0
BBX 15 15 0 -1
BITMAP
1998
1998
1FFC
37FC
3198
70C0
F7FE
B7FE
3180
33FC
37FC
3D8C
318C
31FC
318C
ENDCHAR
STARTCHAR $504E
ENCODING 20558
SWIDTH 1000 0
DWIDTH 16 0
BBX 15 15 0 -1
BITMAP
1800
1BFC
1BFC
336C
33FC
736C
F3FC
B000
37FE
37FE
336C
3338
3390
338E
3304
ENDCHAR
STARTCHAR $504F
ENCODING 20559
SWIDTH 1000 0
DWIDTH 16 0
BBX 15 15 0 -1
BITMAP
18C0
1FFC
37FC
360C
77FC
F7FC
B600
37FE
37FE
3F56
3BFE
3356
3356
3306
330C
ENDCHAR
STARTCHAR $5055
ENCODING 20565
SWIDTH 1000 0
DWIDTH 16 0
BBX 15 15 0 -1
BITMAP
1B30
1B30
1BBC
33BC
3332
73BE
F31E
B0C0
33FC
33FC
330C
33FC
330C
33FC
33FC
ENDCHAR
STARTCHAR $505A
ENCODING 20570
SWIDTH 1000 0
DWIDTH 16 0
BBX 15 15 0 -1
BITMAP
1830
1B30
3330
37BE
77BE
F36C
B36C
37EC
36AC
36AC
36B8
3790
37B8
30EE
30C6
ENDCHAR
STARTCHAR $505C
ENCODING 20572
SWIDTH 1000 0
DWIDTH 16 0
BBX 15 15 0 -1
BITMAP
1860
1FFE
37FE
3000
73FC
F30C
B3FC
3000
37FE
3402
33FC
3060
3060
31E0
30C0
ENDCHAR
STARTCHAR $5065
ENCODING 20581
SWIDTH 1000 0
DWIDTH 16 0
BBX 15 15 0 -1
BITMAP
3030
3EFC
3EFC
6634
67FE
EDFE
EE34
6EFC
6230
6AFC
6E30
64FE
6E30
7BFE
60FE
ENDCHAR
STARTCHAR $506C
ENCODING 20588
SWIDTH 1000 0
DWIDTH 16 0
BBX 15 15 0 -1
BITMAP
1B00
1B00
1BFE
37FE
34B6
7BB6
F1E6
B776
30CC
3380
306C
35A6
359A
3DF8
30F8
ENDCHAR
STARTCHAR $5076
ENCODING 20598
SWIDTH 1000 0
DWIDTH 16 0
BBX 15 15 0 -1
BITMAP
1800
1BFC
33FC
336C
73FC
F36C
B3FC
3060
37FE
37FE
3666
367E
3786
360E
360C
ENDCHAR
STARTCHAR $5077
ENCODING 20599
SWIDTH 1000 0
DWIDTH 16 0
BBX 15 15 0 -1
BITMAP
18C0
18E0
31B0
3318
76EE
FC06
B780
37AC
34AC
37AC
34AC
37AC
348C
349C
359C
ENDCHAR
STARTCHAR $507B
ENCODING 20603
SWIDTH 1000 0
DWIDTH 16 0
BBX 15 15 0 -1
BITMAP
1860
1A64
1968
37FE
37FE
7168
F666
B180
37FE
37FE
3198
33D8
3078
33CE
3706
ENDCHAR
STARTCHAR $507E
ENCODING 20606
SWIDTH 1000 0
DWIDTH 16 0
BBX 15 15 0 -1
BITMAP
1860
1BFC
1BFC
3060
3198
77FE
F198
B3FC
330C
336C
336C
336C
30F0
319C
3706
ENDCHAR
STARTCHAR $507F
ENCODING 20607
SWIDTH 1000 0
DWIDTH 16 0
BBX 15 15 0 -1
BITMAP
1860
1E6C
3378
3060
77FE
77FE
F606
B1F8
3000
37FE
37FE
3180
3318
37FC
330C
ENDCHAR
STARTCHAR $5080
ENCODING 20608
SWIDTH 1000 0
DWIDTH 16 0
BBX 15 15 0 -1
BITMAP
18C0
1980
37FC
37FC
76CC
77FC
F6CC
B7FC
37FC
30E8
30E8
31FC
3366
367E
343C
ENDCHAR
STARTCHAR $5085
ENCODING 20613
SWIDTH 1000 0
DWIDTH 16 0
BBX 15 15 0 -1
BITMAP
18D8
1FFE
37FE
30C0
77FC
F6CC
B7FC
36CC
37FC
36CC
3FFE
3FFE
3318
3198
3038
ENDCHAR
STARTCHAR $5088
ENCODING 20616
SWIDTH 1000 0
DWIDTH 16 0
BBX 15 15 0 -1
BITMAP
1800
1FFE
37FE
30B0
77FE
F6B6
B6B6
37FE
3060
37FE
37FE
31F8
376E
3666
3060
ENDCHAR
STARTCHAR $508D
ENCODING 20621
SWIDTH 1000 0
DWIDTH 16 0
BBX 15 15 0 -1
BITMAP
1860
1BFE
1BFE
30D8
37FE
77FE
F606
B060
37FE
33FE
30C0
30FC
318C
330C
3638
ENDCHAR
STARTCHAR $50A3
ENCODING 20643
SWIDTH 1000 0
DWIDTH 16 0
BBX 15 15 0 -1
BITMAP
18C0
1FFC
1FFC
30C0
37FC
7180
FFFE
BFFE
36D8
3CCE
3BD8
31F0
33D8
36CC
31C0
ENDCHAR
STARTCHAR $50A5
ENCODING 20645
SWIDTH 1000 0
DWIDTH 16 0
BBX 15 15 0 -1
BITMAP
1860
1B6C
1968
37FE
37FE
7406
F3F8
B3F8
3318
33F8
31B0
31B0
3336
363E
341C
ENDCHAR
STARTCHAR $50A7
ENCODING 20647
SWIDTH 1000 0
DWIDTH 16 0
BBX 15 15 0 -1
BITMAP
1860
1FFE
1FFE
3606
33F8
73F8
F300
B3FC
3330
3330
37FE
37FE
3198
370C
3606
ENDCHAR
STARTCHAR $50A8
ENCODING 20648
SWIDTH 1000 0
DWIDTH 16 0
BBX 15 15 0 -1
BITMAP
3060
3460
36F6
62FE
606C
EDFE
EDFE
6430
64FC
65CC
65FC
66CC
66CC
64FC
60CC
ENDCHAR
STARTCHAR $50A9
ENCODING 20649
SWIDTH 1000 0
DWIDTH 16 0
BBX 15 15 0 -1
BITMAP
3000
306C
3E6C
6E7E
62FE
EACC
EBFE
6ECC
64CC
6EFE
6BCC
79CC
70FE
60FE
60C0
ENDCHAR
STARTCHAR $50AC
ENCODING 20652
SWIDTH 1000 0
DWIDTH 16 0
BBX 15 15 0 -1
BITMAP
1860
1B6C
3B6C
33FC
7000
F330
B3FE
3730
3FFC
3330
33FC
3330
33FE
33FE
3300
ENDCHAR
STARTCHAR $50B2
ENCODING 20658
SWIDTH 1000 0
DWIDTH 16 0
BBX 15 15 0 -1
BITMAP
3330
3330
37B0
77BE
633E
EFEC
E36C
6FEC
662C
67B8
6D98
6D98
7BBC
7B66
60C2
ENDCHAR
STARTCHAR $50BA
ENCODING 20666
SWIDTH 1000 0
DWIDTH 16 0
BBX 15 15 0 -1
BITMAP
1A20
1BBE
1BBE
36AC
3FB8
7598
F30C
B6F6
3400
33FC
33FC
3168
336C
36E6
30C0
ENDCHAR
STARTCHAR $50BB
ENCODING 20667
SWIDTH 1000 0
DWIDTH 16 0
BBX 15 15 0 -1
BITMAP
18C0
1FFC
37FC
36AC
764C
F6AC
B7FC
3318
3ECE
31F8
3398
36D8
3070
33DC
370E
ENDCHAR
STARTCHAR $50CF
ENCODING 20687
SWIDTH 1000 0
DWIDTH 16 0
BBX 15 15 0 -1
BITMAP
1980
19F0
33F0
3630
7FFC
F6CC
B7FC
3380
36D8
31F0
3378
34EC
3366
36E0
30C0
ENDCHAR
STARTCHAR $50D6
ENCODING 20694
SWIDTH 1000 0
DWIDTH 16 0
BBX 15 15 0 -1
BITMAP
1860
1FFE
1860
33FC
3000
73FC
F30C
B3FC
3198
3FFE
3000
33FC
330C
33FC
330C
ENDCHAR
STARTCHAR $50DA
ENCODING 20698
SWIDTH 1000 0
DWIDTH 16 0
BBX 15 15 0 -1
BITMAP
18C0
1FFE
37FE
30E0
75B4
F318
B7FC
3F0E
33FC
330C
33FC
3060
336C
36E6
30C0
ENDCHAR
STARTCHAR $50E6
ENCODING 20710
SWIDTH 1000 0
DWIDTH 16 0
BBX 15 15 0 -1
BITMAP
1810
1A18
191C
3794
3790
707E
F7A8
B4A8
37A8
3228
3328
36A8
3A68
324A
368E
ENDCHAR
STARTCHAR $50E7
ENCODING 20711
SWIDTH 1000 0
DWIDTH 16 0
BBX 15 15 0 -1
BITMAP
1B0C
1998
37FE
37FE
7666
F76E
B6F6
37FE
3000
33FC
330C
33FC
330C
33FC
330C
ENDCHAR
STARTCHAR $50EC
ENCODING 20716
SWIDTH 1000 0
DWIDTH 16 0
BBX 15 15 0 -1
BITMAP
19B0
19B0
1BFC
37FC
3730
73FC
F330
B3FC
3330
33FC
33FC
3000
32A4
36B6
3402
ENDCHAR
STARTCHAR $50ED
ENCODING 20717
SWIDTH 1000 0
DWIDTH 16 0
BBX 15 15 0 -1
BITMAP
1800
1FBE
1B18
3318
3FBE
7718
F5BA
BD6E
3000
33FC
330C
33FC
330C
33FC
330C
ENDCHAR
STARTCHAR $50EE
ENCODING 20718
SWIDTH 1000 0
DWIDTH 16 0
BBX 15 15 0 -1
BITMAP
18C0
1FFC
1FFC
3330
37FE
7000
F7FC
B6CC
37FC
36CC
37FC
30C0
37FC
30C0
3FFE
ENDCHAR
STARTCHAR $50F3
ENCODING 20723
SWIDTH 1000 0
DWIDTH 16 0
BBX 15 15 0 -1
BITMAP
37FE
37FE
31B0
77FE
77FE
F5B6
B7FE
3000
3666
336C
3FFE
3FFE
3378
366E
3C66
ENDCHAR
STARTCHAR $50F5
ENCODING 20725
SWIDTH 1000 0
DWIDTH 16 0
BBX 15 15 0 -1
BITMAP
37FE
3000
37FC
666C
67FC
E66C
E7FC
6000
6FFE
666C
67FC
666C
67FC
6000
6FFE
ENDCHAR
STARTCHAR $50FB
ENCODING 20731
SWIDTH 1000 0
DWIDTH 16 0
BBX 15 15 0 -1
BITMAP
3018
3F98
3FFE
6DFE
6DA4
EFB4
EC18
6FBE
6FBE
7E98
76BE
67BE
6798
6698
6018
ENDCHAR
STARTCHAR $5106
ENCODING 20742
SWIDTH 1000 0
DWIDTH 16 0
BBX 15 15 0 -1
BITMAP
3298
37D8
37D8
629E
601E
E7F4
6FD4
7854
7754
6554
655C
6748
605C
61B6
6062
ENDCHAR
STARTCHAR $5107
ENCODING 20743
SWIDTH 1000 0
DWIDTH 16 0
BBX 15 15 0 -1
BITMAP
1800
1BFC
1AAC
33FC
3000
77FE
F000
B3FC
330C
33FC
31B0
37BC
3D98
31CE
3186
ENDCHAR
STARTCHAR $510B
ENCODING 20747
SWIDTH 1000 0
DWIDTH 16 0
BBX 15 15 0 -1
BITMAP
1980
19F8
1B30
37FE
3488
7524
F5FE
3400
35FC
3400
35FC
3400
35FC
3D8C
39FC
ENDCHAR
STARTCHAR $5112
ENCODING 20754
SWIDTH 1000 0
DWIDTH 16 0
BBX 14 15 0 -1
BITMAP
1800
1FF8
30C0
37FC
77FC
F4C4
B3F0
3000
37FC
30C0
37FC
36AC
36AC
36AC
3618
ENDCHAR
STARTCHAR $5121
ENCODING 20769
SWIDTH 1000 0
DWIDTH 16 0
BBX 15 15 0 -1
BITMAP
1800
1FFC
37FC
364C
67FC
E64C
E7FC
6000
6FBE
6FBE
6AAA
6FBE
6AAA
6FBE
68A6
ENDCHAR
STARTCHAR $513F
ENCODING 20799
SWIDTH 1000 0
DWIDTH 16 0
BBX 14 14 1 -1
BITMAP
18C0
18C0
18C0
18C0
18C0
18C0
18C0
18C0
18C0
30C0
30CC
60FC
C07C
8000
ENDCHAR
STARTCHAR $5140
ENCODING 20800
SWIDTH 1000 0
DWIDTH 16 0
BBX 14 14 0 -1
BITMAP
FFFC
FFFC
0CC0
0CC0
0CC0
0CC0
0CC0
0CC0
0CC0
18C0
18CC
30CC
60FC
4078
ENDCHAR
STARTCHAR $5141
ENCODING 20801
SWIDTH 1000 0
DWIDTH 16 0
BBX 14 15 1 -1
BITMAP
0600
0600
0C00
18C0
3060
7FF0
7FB0
0D80
0D80
0D80
1D80
1980
318C
E1FC
C0F8
ENDCHAR
STARTCHAR $5143
ENCODING 20803
SWIDTH 1000 0
DWIDTH 16 0
BBX 14 14 1 -1
BITMAP
7FF0
7FF0
0000
0000
FFF8
FFF8
1980
1980
1980
1980
1980
318C
61FC
C0F8
ENDCHAR
STARTCHAR $5144
ENCODING 20804
SWIDTH 1000 0
DWIDTH 16 0
BBX 15 14 0 -1
BITMAP
3FF8
3FF8
3018
3018
3018
3FF8
3FF8
0CC0
0CC0
0CC0
18C6
30C6
E0FE
C07E
ENDCHAR
STARTCHAR $5145
ENCODING 20805
SWIDTH 1000 0
DWIDTH 16 0
BBX 14 15 1 -1
BITMAP
0600
0300
FFF8
FFF8
0C00
1860
7FF0
7FF0
1980
1980
1980
198C
318C
61FC
C0F8
ENDCHAR
STARTCHAR $5146
ENCODING 20806
SWIDTH 1000 0
DWIDTH 16 0
BBX 14 15 1 -1
BITMAP
0D80
0D80
0D88
CD98
6DB0
2DE0
0D80
1DC0
7DF0
EDB8
0D80
1980
318C
E1FC
C0F8
ENDCHAR
STARTCHAR $5148
ENCODING 20808
SWIDTH 1000 0
DWIDTH 16 0
BBX 15 15 0 -1
BITMAP
0180
1980
1980
1FF8
3FF8
3180
0180
FFFE
FFFE
0CC0
0CC0
0CC4
18C6
30FE
607E
ENDCHAR
STARTCHAR $5149
ENCODING 20809
SWIDTH 1000 0
DWIDTH 16 0
BBX 15 15 0 -1
BITMAP
0180
0180
3188
1998
19B0
09A0
FFFE
FFFE
06C0
06C0
06C0
0CC4
18C6
F0FE
607C
ENDCHAR
STARTCHAR $514B
ENCODING 20811
SWIDTH 1000 0
DWIDTH 16 0
BBX 14 15 1 -1
BITMAP
0300
0300
FFFC
FFFC
0300
3FF0
3FF0
3030
3FF0
3FF0
0D80
0D88
198C
F1FC
60F8
ENDCHAR
STARTCHAR $514D
ENCODING 20813
SWIDTH 1000 0
DWIDTH 16 0
BBX 14 15 1 -1
BITMAP
0C00
0FC0
1FC0
3180
FFF0
FFF0
6630
7FF0
7FF0
0D80
0D80
1980
398C
F1FC
C0F8
ENDCHAR
STARTCHAR $5151
ENCODING 20817
SWIDTH 1000 0
DWIDTH 16 0
BBX 14 15 1 -1
BITMAP
3060
18E0
18C0
7FF0
7FF0
6030
6030
7FF0
7FF0
0D80
0D80
0D80
198C
31FC
E0FC
ENDCHAR
STARTCHAR $5154
ENCODING 20820
SWIDTH 1000 0
DWIDTH 16 0
BBX 15 15 0 -1
BITMAP
0C00
0FE0
1FE0
30C0
7FF8
FFF8
3198
3FF8
3FF8
0380
07B0
0D98
1986
71FE
60FC
ENDCHAR
STARTCHAR $5155
ENCODING 20821
SWIDTH 1000 0
DWIDTH 16 0
BBX 15 14 0 -1
BITMAP
3EFC
3EFC
36CC
37CC
300C
300C
3FFC
3FFC
0CC0
0CC0
0CC0
18C6
F0FE
607E
ENDCHAR
STARTCHAR $5156
ENCODING 20822
SWIDTH 1000 0
DWIDTH 16 0
BBX 14 15 1 -1
BITMAP
0300
FFF8
FFF8
0000
3060
6638
CC18
1840
3FE0
3FB0
0D80
0D80
198C
71FC
E0F8
ENDCHAR
STARTCHAR $515A
ENCODING 20826
SWIDTH 1000 0
DWIDTH 16 0
BBX 13 15 1 -1
BITMAP
0600
6660
36C0
FFF8
FFF8
C018
3FE0
3060
3060
3FE0
0D80
0D80
1998
F1F8
E0F0
ENDCHAR
STARTCHAR $515C
ENCODING 20828
SWIDTH 1000 0
DWIDTH 16 0
BBX 14 15 1 -1
BITMAP
0300
6338
EFB8
CF98
CD98
CF98
ED98
EFB8
C038
0D80
0D80
0D8C
198C
F1FC
E0F8
ENDCHAR
STARTCHAR $5162
ENCODING 20834
SWIDTH 1000 0
DWIDTH 16 0
BBX 15 15 0 -1
BITMAP
1830
1830
FEFC
FEFC
1830
7EFC
7EFC
66CC
7EFC
7EFC
34D8
36D8
66DA
C59E
810E
ENDCHAR
STARTCHAR $5165
ENCODING 20837
SWIDTH 1000 0
DWIDTH 16 0
BBX 14 13 1 0
BITMAP
1C00
0600
0300
0300
0300
0780
0680
0CC0
1840
3060
6030
C018
800C
ENDCHAR
STARTCHAR $5168
ENCODING 20840
SWIDTH 1000 0
DWIDTH 16 0
BBX 14 15 1 -1
BITMAP
0300
0700
0D80
18C0
3070
FFFC
DFEC
0300
0300
3FF0
3FF0
0300
0300
FFF8
FFF8
ENDCHAR
STARTCHAR $516B
ENCODING 20843
SWIDTH 1000 0
DWIDTH 16 0
BBX 15 13 0 0
BITMAP
0C60
0C60
0C60
0C60
0C60
0C60
0C60
1820
1830
3010
3018
600C
C006
ENDCHAR
STARTCHAR $516C
ENCODING 20844
SWIDTH 1000 0
DWIDTH 16 0
BBX 14 13 1 0
BITMAP
18C0
18C0
18C0
3060
2030
6618
C60C
8C00
0CC0
18C0
3060
7FF0
7E30
ENDCHAR
STARTCHAR $516D
ENCODING 20845
SWIDTH 1000 0
DWIDTH 16 0
BBX 14 13 1 0
BITMAP
0600
0300
0300
0000
FFFC
FFFC
0000
08C0
1860
3020
3030
6018
C018
ENDCHAR
STARTCHAR $516E
ENCODING 20846
SWIDTH 1000 0
DWIDTH 16 0
BBX 14 15 1 -1
BITMAP
1980
1980
18C0
3060
6030
FFFC
DFCC
0C00
0C00
1FE0
1FE0
0060
0060
07C0
0380
ENDCHAR
STARTCHAR $5170
ENCODING 20848
SWIDTH 1000 0
DWIDTH 16 0
BBX 13 14 1 -1
BITMAP
3060
18C0
0180
FFF8
FFF8
0000
0000
7FF0
7FF0
0000
0000
0000
FFF8
FFF8
ENDCHAR
STARTCHAR $5171
ENCODING 20849
SWIDTH 1000 0
DWIDTH 16 0
BBX 15 14 0 -1
BITMAP
0660
0660
7FFC
7FFC
0660
0660
0660
FFFE
FFFE
0000
0460
1C30
3818
600C
ENDCHAR
STARTCHAR $5173
ENCODING 20851
SWIDTH 1000 0
DWIDTH 16 0
BBX 14 15 1 -1
BITMAP
1860
1860
0CC0
FFF8
FFF8
0300
0300
FFFC
FFFC
0300
0780
0CC0
1860
703C
E018
ENDCHAR
STARTCHAR $5174
ENCODING 20852
SWIDTH 1000 0
DWIDTH 16 0
BBX 13 14 1 -1
BITMAP
0630
C630
6230
3360
1360
00C0
FFF8
FFF8
0000
18C0
3060
6030
C018
8008
ENDCHAR
STARTCHAR $5175
ENCODING 20853
SWIDTH 1000 0
DWIDTH 16 0
BBX 15 15 0 -1
BITMAP
0030
1FF8
1F80
1800
1800
1FF8
1FF8
1860
1860
FFFE
FFFE
0460
0C30
3818
700C
ENDCHAR
STARTCHAR $5176
ENCODING 20854
SWIDTH 1000 0
DWIDTH 16 0
BBX 14 15 1 -1
BITMAP
1860
1860
7FF8
7FF8
1860
1FE0
1860
1FE0
1860
FFFC
FFFC
0000
1860
3030
6018
ENDCHAR
STARTCHAR $5177
ENCODING 20855
SWIDTH 1000 0
DWIDTH 16 0
BBX 15 14 0 -1
BITMAP
1FF8
1FF8
1818
1FF8
1818
1FF8
1818
1FF8
1818
FFFE
FFFE
0C70
381C
7004
ENDCHAR
STARTCHAR $5178
ENCODING 20856
SWIDTH 1000 0
DWIDTH 16 0
BBX 15 15 0 -1
BITMAP
06C0
06C0
3FF8
3FF8
36D8
36D8
3FF8
36D8
36D8
FFFE
FFFE
0460
0C70
381C
700C
ENDCHAR
STARTCHAR $5179
ENCODING 20857
SWIDTH 1000 0
DWIDTH 16 0
BBX 15 15 0 -1
BITMAP
1830
0C60
00C0
FFFE
FFFE
1830
1860
36CC
7EF8
7CF8
1830
3268
7EFC
7EFC
0204
ENDCHAR
STARTCHAR $517B
ENCODING 20859
SWIDTH 1000 0
DWIDTH 16 0
BBX 14 15 1 -1
BITMAP
18C0
FFF8
FFF8
0600
7FF0
0600
FFF8
FFF8
18C0
3060
ECFC
CCCC
18C0
70C0
60C0
ENDCHAR
STARTCHAR $517C
ENCODING 20860
SWIDTH 1000 0
DWIDTH 16 0
BBX 15 15 0 -1
BITMAP
0C60
7FFC
7FFC
06C0
3FF8
3FF8
06D8
FFFE
FFFE
06D8
3FF8
0EF0
3ED8
F6CE
46C4
ENDCHAR
STARTCHAR $517D
ENCODING 20861
SWIDTH 1000 0
DWIDTH 16 0
BBX 15 15 0 -1
BITMAP
0C60
06C0
3FF8
3198
3FF8
3198
3198
3FF8
0000
FFFE
0000
3FF8
3018
3FF8
3018
ENDCHAR
STARTCHAR $5180
ENCODING 20864
SWIDTH 1000 0
DWIDTH 16 0
BBX 14 15 1 -1
BITMAP
0D80
FDF0
0D88
FDF8
7FF0
6330
7FF0
6330
7FF0
0CC0
7FF0
0CC0
FFFC
18E0
F038
ENDCHAR
STARTCHAR $5181
ENCODING 20865
SWIDTH 1000 0
DWIDTH 16 0
BBX 15 15 0 -1
BITMAP
4DFC
69FC
1184
FDFC
D5A8
D5A8
FDFE
D5A8
D5A8
FDFE
11A8
FDAA
132C
1336
1622
ENDCHAR
STARTCHAR $5182
ENCODING 20866
SWIDTH 1000 0
DWIDTH 16 0
BBX 13 15 1 -1
BITMAP
FFF8
FFF8
C018
C018
C018
C018
C018
C018
C018
C018
C018
C018
C018
C038
C030
ENDCHAR
STARTCHAR $5185
ENCODING 20869
SWIDTH 1000 0
DWIDTH 16 0
BBX 12 15 2 -1
BITMAP
0600
0600
FFF0
FFF0
C630
C630
C630
CF30
D9B0
F0B0
E030
C030
C030
C0F0
C060
ENDCHAR
STARTCHAR $5188
ENCODING 20872
SWIDTH 1000 0
DWIDTH 16 0
BBX 13 14 1 -1
BITMAP
FFF8
FFF8
C018
D058
D8D8
CD98
C718
C718
CD98
D8D8
D058
C018
C078
C070
ENDCHAR
STARTCHAR $5189
ENCODING 20873
SWIDTH 1000 0
DWIDTH 16 0
BBX 15 15 0 -1
BITMAP
0180
0180
3FFC
3FFC
318C
3FFC
3FFC
318C
318C
FFFE
FFFE
300C
300C
303C
3018
ENDCHAR
STARTCHAR $518C
ENCODING 20876
SWIDTH 1000 0
DWIDTH 16 0
BBX 15 14 0 -1
BITMAP
3EFC
3EFC
36CC
36CC
36CC
36CC
FFFE
FFFE
36CC
36CC
36CC
36CC
66DC
4D98
ENDCHAR
STARTCHAR $518D
ENCODING 20877
SWIDTH 1000 0
DWIDTH 16 0
BBX 15 14 0 -1
BITMAP
7FFC
7FFC
0180
3FF8
3FF8
3198
3FF8
3198
3198
FFFE
FFFE
3018
3078
3030
ENDCHAR
STARTCHAR $5192
ENCODING 20882
SWIDTH 1000 0
DWIDTH 16 0
BBX 13 15 1 -1
BITMAP
FFF8
FFF8
C018
DFD8
C018
1FD8
0000
7FF0
6030
7FF0
6030
7FF0
6030
7FF0
6030
ENDCHAR
STARTCHAR $5195
ENCODING 20885
SWIDTH 1000 0
DWIDTH 16 0
BBX 14 15 1 -1
BITMAP
FFF0
C030
DFB0
C030
DFB0
3000
3FC0
60C0
FFF0
6630
7FF0
7FF0
0D8C
39FC
F0F8
ENDCHAR
STARTCHAR $5196
ENCODING 20886
SWIDTH 1000 0
DWIDTH 16 0
BBX 14 4 1 9
BITMAP
FFFC
FFFC
C00C
C00C
ENDCHAR
STARTCHAR $5197
ENCODING 20887
SWIDTH 1000 0
DWIDTH 16 0
BBX 14 14 1 -1
BITMAP
FFF8
FFF8
C018
C018
1FC0
1FC0
18C0
18C0
18C0
18C0
18C8
30CC
60FC
C078
ENDCHAR
STARTCHAR $5199
ENCODING 20889
SWIDTH 1000 0
DWIDTH 16 0
BBX 13 15 1 -1
BITMAP
FFF8
FFF8
C018
D818
1FE0
1FE0
1800
1FF0
1FF0
0030
FFB0
FFB0
0030
00F0
00E0
ENDCHAR
STARTCHAR $519B
ENCODING 20891
SWIDTH 1000 0
DWIDTH 16 0
BBX 15 14 0 -1
BITMAP
7FFC
7FFC
660C
3FF8
3FF8
0D80
1980
3FF8
3FF8
0180
FFFE
FFFE
0180
0180
ENDCHAR
STARTCHAR $519C
ENCODING 20892
SWIDTH 1000 0
DWIDTH 16 0
BBX 14 15 1 -1
BITMAP
0300
0300
FFF8
FFF8
C618
0600
0D80
19B0
39E0
F8C0
D8C0
1860
1B3C
1E18
1800
ENDCHAR
STARTCHAR $51A0
ENCODING 20896
SWIDTH 1000 0
DWIDTH 16 0
BBX 15 14 0 -1
BITMAP
7FFE
7FFE
6006
3E18
3EFE
00FE
FF18
FFD8
36D8
3678
3676
7606
E7FE
43FC
ENDCHAR
STARTCHAR $51A2
ENCODING 20898
SWIDTH 1000 0
DWIDTH 16 0
BBX 14 15 1 -1
BITMAP
FFFC
FFFC
C00C
DFEC
1FE0
0C00
3A30
E760
3DC0
1BE0
EFA0
0DB0
3998
E788
0700
ENDCHAR
STARTCHAR $51A4
ENCODING 20900
SWIDTH 1000 0
DWIDTH 16 0
BBX 14 14 1 -1
BITMAP
FFFC
FFFC
CC1C
1FC0
30C0
7FF8
F318
3318
3FF8
0780
0DB0
1994
31FC
E0FC
ENDCHAR
STARTCHAR $51A5
ENCODING 20901
SWIDTH 1000 0
DWIDTH 16 0
BBX 14 15 1 -1
BITMAP
FFFC
FFFC
C00C
3FF0
3030
3030
3FF0
3030
3FF0
0300
FFFC
FFFC
0CC0
3870
E018
ENDCHAR
STARTCHAR $51AB
ENCODING 20907
SWIDTH 1000 0
DWIDTH 16 0
BBX 4 12 1 0
BITMAP
C0
60
30
10
00
00
10
30
20
60
C0
C0
ENDCHAR
STARTCHAR $51AC
ENCODING 20908
SWIDTH 1000 0
DWIDTH 16 0
BBX 15 15 0 -1
BITMAP
0600
0600
0FF0
1FF0
3C60
36C0
0380
0FF0
FC7E
F30E
03E0
0060
0F00
03E0
0060
ENDCHAR
STARTCHAR $51AF
ENCODING 20911
SWIDTH 1000 0
DWIDTH 16 0
BBX 13 14 1 -1
BITMAP
0FE0
8FE0
C060
6660
0660
0660
67F8
67F8
4018
DFD8
DFD8
8018
0078
0070
ENDCHAR
STARTCHAR $51B0
ENCODING 20912
SWIDTH 1000 0
DWIDTH 16 0
BBX 15 15 0 -1
BITMAP
00C0
00C0
40C0
60C4
2ECC
0ED8
02F0
32E0
36F0
66D0
66D8
CCCC
D8C6
01C0
0180
ENDCHAR
STARTCHAR $51B1
ENCODING 20913
SWIDTH 1000 0
DWIDTH 16 0
BBX 15 14 0 -1
BITMAP
4FFC
6FFC
3300
1300
03F8
03F8
0618
2618
27F0
67F0
6030
C030
5FFE
1FFE
ENDCHAR
STARTCHAR $51B2
ENCODING 20914
SWIDTH 1000 0
DWIDTH 16 0
BBX 13 15 1 -1
BITMAP
00C0
00C0
C0C0
CFF8
6FF8
6CD8
0CD8
2CD8
6FF8
6FF8
CCD8
C0C0
80C0
00C0
00C0
ENDCHAR
STARTCHAR $51B3
ENCODING 20915
SWIDTH 1000 0
DWIDTH 16 0
BBX 15 15 0 -1
BITMAP
00C0
00C0
47F8
67F8
30D8
00D8
00D8
17FE
37FE
20C0
61E0
C330
C618
1C0E
0804
ENDCHAR
STARTCHAR $51B5
ENCODING 20917
SWIDTH 1000 0
DWIDTH 16 0
BBX 14 14 1 -1
BITMAP
8FF8
CFF8
6C18
2C18
0C18
0FF8
2FF8
6360
4360
C660
C668
8C6C
387C
1038
ENDCHAR
STARTCHAR $51B6
ENCODING 20918
SWIDTH 1000 0
DWIDTH 16 0
BBX 14 15 0 -1
BITMAP
00C0
40C0
6180
3318
360C
07FC
07FC
3000
37F8
37F8
6618
6618
C7F8
47F8
0618
ENDCHAR
STARTCHAR $51B7
ENCODING 20919
SWIDTH 1000 0
DWIDTH 16 0
BBX 15 15 0 -1
BITMAP
00C0
00C0
60C0
31E0
1330
06DC
0C4E
0000
37F8
2018
6030
4160
C0C0
0060
0030
ENDCHAR
STARTCHAR $51BB
ENCODING 20923
SWIDTH 1000 0
DWIDTH 16 0
BBX 15 15 0 -1
BITMAP
0180
0180
CFFE
6FFE
3300
0360
0360
07FC
37FC
2060
6368
C66C
CC66
09E6
00C0
ENDCHAR
STARTCHAR $51BC
ENCODING 20924
SWIDTH 1000 0
DWIDTH 16 0
BBX 15 15 0 -1
BITMAP
0060
4360
6360
33FC
17FC
0660
0060
0FFE
2FFE
21B0
61B0
61B0
C336
463E
1C1E
ENDCHAR
STARTCHAR $51BD
ENCODING 20925
SWIDTH 1000 0
DWIDTH 16 0
BBX 14 15 0 -1
BITMAP
000C
8F8C
CF8C
662C
262C
07AC
0DAC
0DAC
6DAC
73AC
41AC
C30C
C60C
0C1C
0818
ENDCHAR
STARTCHAR $51C0
ENCODING 20928
SWIDTH 1000 0
DWIDTH 16 0
BBX 15 15 0 -1
BITMAP
0300
C3E0
C7E0
6E60
2FFC
07FC
00CC
0FFE
2FFE
60CC
6FFC
C0C0
C0C0
03C0
0180
ENDCHAR
STARTCHAR $51C4
ENCODING 20932
SWIDTH 1000 0
DWIDTH 16 0
BBX 15 15 0 -1
BITMAP
00C0
67FC
60C0
37FC
30CC
0FFE
00CC
07FC
3180
3FFE
6FFE
6330
C1E0
03B8
0E0C
ENDCHAR
STARTCHAR $51C6
ENCODING 20934
SWIDTH 1000 0
DWIDTH 16 0
BBX 15 15 0 -1
BITMAP
01B0
41B0
6300
33FE
17FE
0730
0FFC
13FC
1330
33FC
23FC
6330
C3FE
03FE
0300
ENDCHAR
STARTCHAR $51C7
ENCODING 20935
SWIDTH 1000 0
DWIDTH 16 0
BBX 15 15 0 -1
BITMAP
0600
8658
C658
5F58
1FCC
068C
06B6
2F36
2FB0
7E60
566C
C6CC
86FE
06C6
0600
ENDCHAR
STARTCHAR $51C9
ENCODING 20937
SWIDTH 1000 0
DWIDTH 16 0
BBX 14 15 1 -1
BITMAP
0180
00C0
DFFC
5FFC
6000
27F8
07F8
2618
67F8
67F8
40C0
CCF0
D8D8
33CC
0380
ENDCHAR
STARTCHAR $51CB
ENCODING 20939
SWIDTH 1000 0
DWIDTH 16 0
BBX 13 14 1 -1
BITMAP
0FF8
CFF8
6D98
2FD8
0D98
0D98
2FD8
2C18
6DD8
4D58
CDD8
CDD8
9838
1830
ENDCHAR
STARTCHAR $51CC
ENCODING 20940
SWIDTH 1000 0
DWIDTH 16 0
BBX 15 15 0 -1
BITMAP
00C0
07F8
47F8
60C0
2FFE
2FFE
0618
2D8C
29F6
63F0
6730
CDE0
C0F0
039E
0E0C
ENDCHAR
STARTCHAR $51CF
ENCODING 20943
SWIDTH 1000 0
DWIDTH 16 0
BBX 15 15 0 -1
BITMAP
0060
006C
9FFC
DFFC
5860
7BEC
186C
1BEC
7BA8
7AB8
5AB0
DBB2
D87A
30CE
3086
ENDCHAR
STARTCHAR $51D1
ENCODING 20945
SWIDTH 1000 0
DWIDTH 16 0
BBX 15 15 0 -1
BITMAP
00C0
0FFC
CFFC
60C0
27FC
0180
0FFE
2318
2DEC
78C6
67FC
C7FC
C1E0
0F38
0618
ENDCHAR
STARTCHAR $51DB
ENCODING 20955
SWIDTH 1000 0
DWIDTH 16 0
BBX 15 15 0 -1
BITMAP
00C0
1FFE
4000
6FFC
2C0C
0DEC
0D2C
2FFC
2000
6FF8
4000
DFFE
C6D8
0DCC
1986
ENDCHAR
STARTCHAR $51DD
ENCODING 20957
SWIDTH 1000 0
DWIDTH 16 0
BBX 15 15 0 -1
BITMAP
0C00
0D7C
CE7C
6D0C
6F18
077E
087E
4F1A
5618
465E
DF5E
C658
CF78
195E
1086
ENDCHAR
STARTCHAR $51E0
ENCODING 20960
SWIDTH 1000 0
DWIDTH 16 0
BBX 14 14 1 -1
BITMAP
1FC0
1FC0
18C0
18C0
18C0
18C0
18C0
18C0
18C0
30C8
30CC
60FC
C078
8000
ENDCHAR
STARTCHAR $51E1
ENCODING 20961
SWIDTH 1000 0
DWIDTH 16 0
BBX 14 14 1 -1
BITMAP
3FC0
3FC0
30C0
30C0
36C0
36C0
37C0
33C0
30C0
30C0
30CC
60CC
C0FC
8078
ENDCHAR
STARTCHAR $51E4
ENCODING 20964
SWIDTH 1000 0
DWIDTH 16 0
BBX 15 14 0 -1
BITMAP
3FF8
3FF8
3018
37D8
37D8
30D8
36D8
3798
3198
33D8
66D8
6C5A
C00E
4006
ENDCHAR
STARTCHAR $51EB
ENCODING 20971
SWIDTH 1000 0
DWIDTH 16 0
BBX 15 15 0 -1
BITMAP
0600
3FF0
3FF0
3030
3630
3370
3000
3FFC
000C
1FDC
1FD8
18C0
18C6
30FE
E07C
ENDCHAR
STARTCHAR $51ED
ENCODING 20973
SWIDTH 1000 0
DWIDTH 16 0
BBX 15 15 0 -1
BITMAP
1838
1BF8
33C0
70C0
F7FC
37FC
30C0
33F8
3000
0FE0
0FE0
0C60
0C66
187E
703C
ENDCHAR
STARTCHAR $51EF
ENCODING 20975
SWIDTH 1000 0
DWIDTH 16 0
BBX 15 15 0 -1
BITMAP
1800
5AF8
5AF8
5AD8
7ED8
00D8
FED8
FED8
06D8
7ED8
60D8
6ED8
7D9A
731E
020E
ENDCHAR
STARTCHAR $51F0
ENCODING 20976
SWIDTH 1000 0
DWIDTH 16 0
BBX 15 15 0 -1
BITMAP
7FF8
7FF8
6318
6FD8
6CD8
6FD8
6CD8
6FD8
6018
6FD8
6318
6FDA
C31A
DFEE
4006
ENDCHAR
STARTCHAR $51F3
ENCODING 20979
SWIDTH 1000 0
DWIDTH 16 0
BBX 14 15 1 -1
BITMAP
01A0
FDE0
4CD8
7FF0
3038
FFEC
D860
1FE0
0CC0
FFF8
0000
1FC0
18C8
F0F8
6070
ENDCHAR
STARTCHAR $51F5
ENCODING 20981
SWIDTH 1000 0
DWIDTH 16 0
BBX 13 12 1 0
BITMAP
C018
C018
C018
C018
C018
C018
C018
C018
C018
FFF8
FFF8
0018
ENDCHAR
STARTCHAR $51F6
ENCODING 20982
SWIDTH 1000 0
DWIDTH 16 0
BBX 13 14 1 -1
BITMAP
00C0
30C0
18C0
CD98
C718
C318
C798
CCD8
D858
D018
C018
FFF8
FFF8
0018
ENDCHAR
STARTCHAR $51F8
ENCODING 20984
SWIDTH 1000 0
DWIDTH 16 0
BBX 13 15 1 -1
BITMAP
1FC0
1FC0
18C0
18C0
18C0
F8F8
F8F8
C018
C018
C018
C018
C018
FFF8
FFF8
C018
ENDCHAR
STARTCHAR $51F9
ENCODING 20985
SWIDTH 1000 0
DWIDTH 16 0
BBX 13 14 1 -1
BITMAP
FDF8
FDF8
CD98
CD98
CD98
CD98
CF98
CF98
C018
C018
C018
FFF8
FFF8
C018
ENDCHAR
STARTCHAR $51FA
ENCODING 20986
SWIDTH 1000 0
DWIDTH 16 0
BBX 12 15 2 -1
BITMAP
0600
0600
C630
C630
C630
FFF0
FFF0
0600
0600
C630
C630
C630
FFF0
FFF0
0030
ENDCHAR
STARTCHAR $51FB
ENCODING 20987
SWIDTH 1000 0
DWIDTH 16 0
BBX 15 15 0 -1
BITMAP
0180
0180
3FF8
3FF8
0180
0180
FFFE
FFFE
0180
3198
3198
3198
3FF8
3FF8
0018
ENDCHAR
STARTCHAR $51FC
ENCODING 20988
SWIDTH 1000 0
DWIDTH 16 0
BBX 13 15 1 -1
BITMAP
0300
0300
0320
DB78
DB58
CBD8
CB98
DBD8
D378
F338
E718
C018
FFF8
FFF8
0018
ENDCHAR
STARTCHAR $51FD
ENCODING 20989
SWIDTH 1000 0
DWIDTH 16 0
BBX 13 14 1 -1
BITMAP
7FF0
7FF0
01C0
0300
3360
DBD8
C398
CB18
DBD8
F378
CF38
C018
FFF8
FFF8
ENDCHAR
STARTCHAR $51FF
ENCODING 20991
SWIDTH 1000 0
DWIDTH 16 0
BBX 14 15 1 -1
BITMAP
0CC0
6CD8
3CF0
0CC0
FFFC
FFFC
0CC0
6598
6FD8
6318
6FD8
6FD8
6318
7FF8
7FF8
ENDCHAR
STARTCHAR $5200
ENCODING 20992
SWIDTH 1000 0
DWIDTH 16 0
BBX 12 13 1 -1
BITMAP
7FF0
7FF0
0630
0630
0630
0630
0430
0C30
0C30
1830
3030
E0F0
40E0
ENDCHAR
STARTCHAR $5201
ENCODING 20993
SWIDTH 1000 0
DWIDTH 16 0
BBX 12 14 2 -1
BITMAP
7FF0
7FF0
0030
0030
0130
0330
0630
0C30
1830
3030
E030
4030
00F0
00E0
ENDCHAR
STARTCHAR $5202
ENCODING 20994
SWIDTH 1000 0
DWIDTH 16 0
BBX 6 15 7 -1
BITMAP
0C
0C
0C
CC
CC
CC
CC
CC
CC
CC
CC
0C
0C
3C
18
ENDCHAR
STARTCHAR $5203
ENCODING 20995
SWIDTH 1000 0
DWIDTH 16 0
BBX 13 14 1 -1
BITMAP
7FF8
7FF8
0318
0318
3318
3318
2318
6618
6618
0C18
1818
3018
E0F8
C070
ENDCHAR
STARTCHAR $5206
ENCODING 20998
SWIDTH 1000 0
DWIDTH 16 0
BBX 14 14 1 -1
BITMAP
0CC0
0CC0
18E0
3070
6038
FFFC
BFE8
0C60
0C60
0C60
1860
3060
E1C0
4180
ENDCHAR
STARTCHAR $5207
ENCODING 20999
SWIDTH 1000 0
DWIDTH 16 0
BBX 14 14 0 -1
BITMAP
33FC
33FC
30CC
FCCC
FCCC
30CC
30CC
30CC
34CC
3D8C
398C
330C
0E3C
0418
ENDCHAR
STARTCHAR $5208
ENCODING 21000
SWIDTH 1000 0
DWIDTH 16 0
BBX 13 15 1 -1
BITMAP
0018
0618
C618
44D8
6CD8
2CD8
38D8
18D8
38D8
28D8
6CD8
4618
C618
8078
0030
ENDCHAR
STARTCHAR $520A
ENCODING 21002
SWIDTH 1000 0
DWIDTH 16 0
BBX 14 15 0 -1
BITMAP
000C
7E0C
7E0C
186C
186C
186C
FF6C
FF6C
186C
186C
186C
186C
180C
181C
1818
ENDCHAR
STARTCHAR $520D
ENCODING 21005
SWIDTH 1000 0
DWIDTH 16 0
BBX 13 15 0 -1
BITMAP
0C00
0FF0
1FF0
3060
60C0
DFF8
1FF8
0018
0018
1FF8
0018
0018
3FF8
3FF8
0018
ENDCHAR
STARTCHAR $520E
ENCODING 21006
SWIDTH 1000 0
DWIDTH 16 0
BBX 15 15 0 -1
BITMAP
1806
1806
3FB6
3FB6
6AB6
CAB6
1AB6
12B6
36B6
64B6
CCB6
1886
3786
631E
000C
ENDCHAR
STARTCHAR $5211
ENCODING 21009
SWIDTH 1000 0
DWIDTH 16 0
BBX 15 14 0 -1
BITMAP
7F86
7F86
1B36
1B36
1B36
7FB6
7FB6
1B36
1B36
1B36
3306
3306
630E
C30E
ENDCHAR
STARTCHAR $5212
ENCODING 21010
SWIDTH 1000 0
DWIDTH 16 0
BBX 14 15 0 -1
BITMAP
3000
360C
330C
306C
3F6C
FF6C
F06C
336C
366C
1C6C
186C
3C6C
668C
C39C
0198
ENDCHAR
STARTCHAR $5216
ENCODING 21014
SWIDTH 1000 0
DWIDTH 16 0
BBX 13 15 1 -1
BITMAP
0018
7E18
7ED8
66D8
7ED8
7ED8
66D8
66D8
7ED8
7ED8
66D8
6618
6E18
CC38
8030
ENDCHAR
STARTCHAR $5217
ENCODING 21015
SWIDTH 1000 0
DWIDTH 16 0
BBX 14 14 1 -1
BITMAP
FF0C
FF0C
306C
3E6C
3E6C
666C
C66C
B66C
1C6C
0C6C
180C
300C
E03C
4018
ENDCHAR
STARTCHAR $5218
ENCODING 21016
SWIDTH 1000 0
DWIDTH 16 0
BBX 13 14 1 -1
BITMAP
3018
1818
FED8
FED8
0CD8
4CD8
6CD8
38D8
18D8
3CD8
6618
C218
8078
0030
ENDCHAR
STARTCHAR $5219
ENCODING 21017
SWIDTH 1000 0
DWIDTH 16 0
BBX 13 15 1 -1
BITMAP
0018
FE18
FED8
C2D8
DAD8
DAD8
DAD8
DAD8
DAD8
DAD8
18D8
3C18
6618
C278
8030
ENDCHAR
STARTCHAR $521A
ENCODING 21018
SWIDTH 1000 0
DWIDTH 16 0
BBX 14 15 1 -1
BITMAP
000C
FF0C
FF6C
C36C
E76C
FF6C
DB6C
DB6C
DB6C
F76C
E76C
C30C
C30C
C73C
C638
ENDCHAR
STARTCHAR $521B
ENCODING 21019
SWIDTH 1000 0
DWIDTH 16 0
BBX 14 15 0 -1
BITMAP
0C00
0C0C
1E0C
376C
63EC
FF6C
3F6C
336C
336C
376C
366C
306C
318C
3F9C
1F18
ENDCHAR
STARTCHAR $521D
ENCODING 21021
SWIDTH 1000 0
DWIDTH 16 0
BBX 15 15 0 -1
BITMAP
3000
3800
19FE
7DFE
7C66
0C66
1B66
3E66
7C66
DE66
1AC6
18C6
198E
1B3C
1A38
ENDCHAR
STARTCHAR $5220
ENCODING 21024
SWIDTH 1000 0
DWIDTH 16 0
BBX 15 15 0 -1
BITMAP
0006
7BC6
7BD6
6AD6
6AD6
6AD6
FFF6
FFF6
6AD6
6AD6
6AD6
6AC6
6AC6
DFCE
D58C
ENDCHAR
STARTCHAR $5224
ENCODING 21028
SWIDTH 1000 0
DWIDTH 16 0
BBX 13 15 1 -1
BITMAP
1818
9A18
DAD8
5CD8
FED8
FED8
18D8
18D8
FED8
FED8
18D8
3018
6018
C038
8030
ENDCHAR
STARTCHAR $5228
ENCODING 21032
SWIDTH 1000 0
DWIDTH 16 0
BBX 15 15 0 -1
BITMAP
3006
3006
3FB6
7FB6
C1B6
BDB6
3DB6
35B6
3DB6
3FB6
3336
3006
30C6
3FCE
1F8C
ENDCHAR
STARTCHAR $5229
ENCODING 21033
SWIDTH 1000 0
DWIDTH 16 0
BBX 14 15 0 -1
BITMAP
0600
7F0C
7C0C
0C6C
0C6C
FF6C
FF6C
1C6C
3E6C
6F6C
ED6C
4C0C
0C0C
0C1C
0C18
ENDCHAR
STARTCHAR $522B
ENCODING 21035
SWIDTH 1000 0
DWIDTH 16 0
BBX 14 14 0 -1
BITMAP
7F0C
7F6C
636C
7F6C
7F6C
186C
186C
7F6C
7F6C
1B6C
1B6C
330C
6F1C
C618
ENDCHAR
STARTCHAR $522D
ENCODING 21037
SWIDTH 1000 0
DWIDTH 16 0
BBX 14 15 1 -1
BITMAP
000C
FC0C
FC0C
186C
3C6C
E76C
C36C
006C
FE6C
FE6C
186C
180C
1E0C
FE3C
E038
ENDCHAR
STARTCHAR $522E
ENCODING 21038
SWIDTH 1000 0
DWIDTH 16 0
BBX 14 15 0 -1
BITMAP
0600
7F0C
786C
186C
186C
FF6C
FF6C
186C
7F6C
7F6C
636C
630C
7F0C
7F3C
6318
ENDCHAR
STARTCHAR $5230
ENCODING 21040
SWIDTH 1000 0
DWIDTH 16 0
BBX 14 15 0 -1
BITMAP
000C
7F8C
7FAC
182C
332C
7FAC
7FAC
0C2C
7F2C
7F2C
0C2C
0FAC
FF8C
F81C
0018
ENDCHAR
STARTCHAR $5233
ENCODING 21043
SWIDTH 1000 0
DWIDTH 16 0
BBX 15 15 0 -1
BITMAP
0C06
0C06
7F86
7FB6
1E36
73B6
6EB6
0036
FFB6
FFB6
3036
3F06
0306
0F1E
0E0C
ENDCHAR
STARTCHAR $5236
ENCODING 21046
SWIDTH 1000 0
DWIDTH 16 0
BBX 14 15 0 -1
BITMAP
0C0C
6C0C
7F2C
FF2C
8C2C
FFAC
FFAC
0C2C
7FAC
7FAC
6DAC
6DAC
6F8C
6F1C
0C18
ENDCHAR
STARTCHAR $5237
ENCODING 21047
SWIDTH 1000 0
DWIDTH 16 0
BBX 15 15 0 -1
BITMAP
0006
7F86
7FB6
61B6
7FB6
6036
6636
7FB6
7FB6
76B6
56B6
D686
9786
061E
060C
ENDCHAR
STARTCHAR $5238
ENCODING 21048
SWIDTH 1000 0
DWIDTH 16 0
BBX 15 15 0 -1
BITMAP
3320
1B60
0B40
7FF8
7FF8
0600
FFFC
FFFC
1830
7FFC
EFF6
0330
0630
0CF0
3860
ENDCHAR
STARTCHAR $5239
ENCODING 21049
SWIDTH 1000 0
DWIDTH 16 0
BBX 13 15 1 -1
BITMAP
0018
C618
6CD8
38D8
7CD8
C6D8
18D8
FED8
FED8
18D8
5AD8
DB18
DB18
B838
3030
ENDCHAR
STARTCHAR $523A
ENCODING 21050
SWIDTH 1000 0
DWIDTH 16 0
BBX 13 15 1 -1
BITMAP
1818
1818
FF58
FF58
1858
FF58
FF58
DB58
DB58
1C58
3E58
7B18
D918
9838
1830
ENDCHAR
STARTCHAR $523B
ENCODING 21051
SWIDTH 1000 0
DWIDTH 16 0
BBX 15 15 0 -1
BITMAP
1800
0C06
FF86
FFB6
1836
3336
6636
7C36
19B6
3336
6636
4F06
1986
70DE
601C
ENDCHAR
STARTCHAR $523D
ENCODING 21053
SWIDTH 1000 0
DWIDTH 16 0
BBX 14 15 0 -1
BITMAP
0800
1C0C
1E2C
332C
61AC
FEAC
3E2C
002C
FFAC
FFAC
182C
332C
7F8C
7F9C
0018
ENDCHAR
STARTCHAR $523F
ENCODING 21055
SWIDTH 1000 0
DWIDTH 16 0
BBX 15 15 0 -1
BITMAP
0C06
6D86
6D86
6DB6
7FB6
7FB6
1836
1F36
3F36
6336
DB36
0E06
1C06
781E
601C
ENDCHAR
STARTCHAR $5240
ENCODING 21056
SWIDTH 1000 0
DWIDTH 16 0
BBX 14 15 1 -1
BITMAP
180C
DB0C
DB6C
FF6C
FF6C
006C
FF6C
FF6C
036C
FF6C
FF6C
C00C
CE0C
F83C
E018
ENDCHAR
STARTCHAR $5241
ENCODING 21057
SWIDTH 1000 0
DWIDTH 16 0
BBX 14 14 0 -1
BITMAP
3F0C
3F2C
332C
732C
63AC
0C2C
7FAC
7FAC
1C2C
3E2C
6F0C
CD8C
0C1C
0C18
ENDCHAR
STARTCHAR $5242
ENCODING 21058
SWIDTH 1000 0
DWIDTH 16 0
BBX 15 15 0 -1
BITMAP
0C00
0C06
7F86
7FB6
3336
1E36
0F36
31B6
E0B6
1B36
1B36
1B06
1B06
331E
631C
ENDCHAR
STARTCHAR $5243
ENCODING 21059
SWIDTH 1000 0
DWIDTH 16 0
BBX 14 15 0 -1
BITMAP
630C
360C
7FAC
7FAC
0DAC
0DAC
7FAC
6C2C
7FAC
7FAC
1DAC
3D8C
6F8C
CF1C
0C18
ENDCHAR
STARTCHAR $524A
ENCODING 21066
SWIDTH 1000 0
DWIDTH 16 0
BBX 13 15 1 -1
BITMAP
3000
B218
B618
74D8
30D8
FED8
FED8
C6D8
FED8
C6D8
FED8
C618
C618
CE38
CC30
ENDCHAR
STARTCHAR $524C
ENCODING 21068
SWIDTH 1000 0
DWIDTH 16 0
BBX 15 15 0 -1
BITMAP
0C06
0C06
FFB6
FFB6
0C36
7FB6
6DB6
6DB6
7FB6
0C36
1F36
3D86
6C86
4C1E
0C0C
ENDCHAR
STARTCHAR $524D
ENCODING 21069
SWIDTH 1000 0
DWIDTH 16 0
BBX 15 15 0 -1
BITMAP
0C30
0660
FFFE
FFFE
0000
3F6C
3F6C
336C
3F6C
336C
3F6C
336C
330C
371C
3618
ENDCHAR
STARTCHAR $5250
ENCODING 21072
SWIDTH 1000 0
DWIDTH 16 0
BBX 14 14 0 -1
BITMAP
7F0C
632C
632C
7F2C
0C2C
FFAC
FFAC
CDAC
CDAC
DFAC
F3AC
C18C
C39C
0318
ENDCHAR
STARTCHAR $5251
ENCODING 21073
SWIDTH 1000 0
DWIDTH 16 0
BBX 14 15 0 -1
BITMAP
0C00
0C0C
1E2C
332C
61AC
DEAC
1E2C
002C
6B2C
6B2C
2A2C
078C
7F8C
783C
0018
ENDCHAR
STARTCHAR $5254
ENCODING 21076
SWIDTH 1000 0
DWIDTH 16 0
BBX 15 15 0 -1
BITMAP
7F86
7F86
6196
7F96
6196
7F96
3016
3FD6
7FD6
DAD6
36D6
6CC6
D8C6
378E
230C
ENDCHAR
STARTCHAR $5256
ENCODING 21078
SWIDTH 1000 0
DWIDTH 16 0
BBX 15 15 0 -1
BITMAP
0C06
0C06
7FB6
7FB6
3336
1A36
FFB6
FFB6
0036
3F36
3F36
3306
3F06
3F1E
330C
ENDCHAR
STARTCHAR $525C
ENCODING 21084
SWIDTH 1000 0
DWIDTH 16 0
BBX 15 15 0 -1
BITMAP
0C06
0606
7FB6
7FB6
50B6
33B6
3BB6
6AB6
CAB6
3BB6
1A36
1286
3386
630E
C00C
ENDCHAR
STARTCHAR $525E
ENCODING 21086
SWIDTH 1000 0
DWIDTH 16 0
BBX 15 15 0 -1
BITMAP
0C06
0C06
7F86
7FB6
1E36
3336
FFB6
FFB6
0336
7B36
6B36
7B06
6306
071E
061C
ENDCHAR
STARTCHAR $5261
ENCODING 21089
SWIDTH 1000 0
DWIDTH 16 0
BBX 15 15 0 -1
BITMAP
0C06
0C06
2DB6
6D36
4E36
1B36
31B6
6C36
0CB6
2DB6
6D36
5E06
3306
619E
C09C
ENDCHAR
STARTCHAR $5265
ENCODING 21093
SWIDTH 1000 0
DWIDTH 16 0
BBX 14 15 0 -1
BITMAP
000C
7F0C
032C
7F2C
032C
FFAC
FFAC
0C2C
6DAC
2E2C
1F2C
6D8C
CC8C
1C1C
1C18
ENDCHAR
STARTCHAR $5267
ENCODING 21095
SWIDTH 1000 0
DWIDTH 16 0
BBX 15 15 0 -1
BITMAP
0006
7F86
7F86
61B6
7FB6
6636
7FB6
7FB6
6636
7FB6
5FB6
D986
DF86
9F9E
181C
ENDCHAR
STARTCHAR $5269
ENCODING 21097
SWIDTH 1000 0
DWIDTH 16 0
BBX 15 15 0 -1
BITMAP
0306
7F86
0C06
7F96
7F96
2D16
EDD6
2D16
6D56
AED6
1F16
3D86
EC86
4C1E
0C0C
ENDCHAR
STARTCHAR $526A
ENCODING 21098
SWIDTH 1000 0
DWIDTH 16 0
BBX 15 15 0 -1
BITMAP
0C60
FFFE
0000
7F6C
636C
7F6C
636C
7F6C
631C
0000
7FF8
7FF8
0618
1C78
7870
ENDCHAR
STARTCHAR $526F
ENCODING 21103
SWIDTH 1000 0
DWIDTH 16 0
BBX 13 15 1 -1
BITMAP
0018
FF18
FF58
0058
7E58
6658
7E58
0058
FF58
DB58
FF58
DB58
FF18
FF38
C330
ENDCHAR
STARTCHAR $5272
ENCODING 21106
SWIDTH 1000 0
DWIDTH 16 0
BBX 15 15 0 -1
BITMAP
0C06
FFC6
FFC6
CCF6
3F36
0C36
7FB6
0C36
7FB6
0C36
3FB6
3FB6
3186
3F9E
3F9C
ENDCHAR
STARTCHAR $527D
ENCODING 21117
SWIDTH 1000 0
DWIDTH 16 0
BBX 15 15 0 -1
BITMAP
7FC6
7FC6
0A16
7FD6
6AD6
6AD6
7FD6
0016
3F96
0016
FFD6
0C06
6D86
DCCE
180C
ENDCHAR
STARTCHAR $527F
ENCODING 21119
SWIDTH 1000 0
DWIDTH 16 0
BBX 14 15 0 -1
BITMAP
248C
6D8C
DB2C
6DAC
7FAC
6DAC
7FAC
6DAC
7FAC
0C2C
FFAC
0C2C
3F0C
6D9C
4C98
ENDCHAR
STARTCHAR $5281
ENCODING 21121
SWIDTH 1000 0
DWIDTH 16 0
BBX 15 15 0 -1
BITMAP
0806
1A06
3606
3FB6
7636
FFB6
3636
3FB6
3636
3FB6
3FB6
0006
2AC6
6ADE
400C
ENDCHAR
STARTCHAR $5282
ENCODING 21122
SWIDTH 1000 0
DWIDTH 16 0
BBX 15 15 0 -1
BITMAP
7FE2
7FE2
6002
6A8A
648A
7EEA
64AA
750A
754A
754A
7F4A
64E2
6CA2
C902
9206
ENDCHAR
STARTCHAR $5288
ENCODING 21128
SWIDTH 1000 0
DWIDTH 16 0
BBX 14 15 0 -1
BITMAP
0030
7EFC
7EFC
6648
7EFC
60FC
FE30
B6FC
3E30
0000
7FF8
7FF8
0618
7C70
3020
ENDCHAR
STARTCHAR $5290
ENCODING 21136
SWIDTH 1000 0
DWIDTH 16 0
BBX 15 15 0 -1
BITMAP
1986
7FE6
1996
3616
3FD6
7616
FFD6
3616
3FD6
3016
7F96
0986
0706
1DCE
706E
ENDCHAR
STARTCHAR $5293
ENCODING 21139
SWIDTH 1000 0
DWIDTH 16 0
BBX 15 15 0 -1
BITMAP
0C06
3F86
3196
3D96
3796
3196
7FD6
6CD6
7FD6
6CD6
7FD6
0016
FFC6
330E
630C
ENDCHAR
STARTCHAR $529B
ENCODING 21147
SWIDTH 1000 0
DWIDTH 16 0
BBX 12 15 1 -1
BITMAP
0600
0600
0600
0600
7FF0
7FF0
0630
0630
0630
0C30
0C30
1830
3070
E1E0
40C0
ENDCHAR
STARTCHAR $529D
ENCODING 21149
SWIDTH 1000 0
DWIDTH 16 0
BBX 14 15 0 -1
BITMAP
0060
0060
7E60
7FFC
07FC
066C
666C
2C6C
386C
186C
3CCC
66CC
C18C
033C
0638
ENDCHAR
STARTCHAR $529E
ENCODING 21150
SWIDTH 1000 0
DWIDTH 16 0
BBX 15 15 0 -1
BITMAP
0300
0300
0300
3FF0
3FF0
0330
3330
233C
663C
C636
0436
0C30
1830
31E0
61C0
ENDCHAR
STARTCHAR $529F
ENCODING 21151
SWIDTH 1000 0
DWIDTH 16 0
BBX 14 15 0 -1
BITMAP
00C0
00C0
FCC0
FCC0
33FC
33FC
30CC
30CC
30CC
30CC
3D8C
FD8C
E30C
0E3C
0438
ENDCHAR
STARTCHAR $52A0
ENCODING 21152
SWIDTH 1000 0
DWIDTH 16 0
BBX 14 15 0 -1
BITMAP
1800
1800
1800
7F7C
7F7C
1B6C
1B6C
1B6C
1B6C
1B6C
336C
337C
637C
EF6C
4E00
ENDCHAR
STARTCHAR $52A1
ENCODING 21153
SWIDTH 1000 0
DWIDTH 16 0
BBX 15 15 0 -1
BITMAP
0600
07F0
0FF0
1C30
3660
03C0
0FE0
FC7E
731C
1FF0
1FF0
0630
0E30
7C70
7060
ENDCHAR
STARTCHAR $52A2
ENCODING 21154
SWIDTH 1000 0
DWIDTH 16 0
BBX 15 15 0 -1
BITMAP
0060
7F60
7F60
18FE
18FE
1F66
1F66
1B66
1B66
1B66
3366
6F66
6EC6
C19E
031C
ENDCHAR
STARTCHAR $52A3
ENCODING 21155
SWIDTH 1000 0
DWIDTH 16 0
BBX 13 15 2 -1
BITMAP
0600
1640
3660
6630
C798
0700
1C00
F600
0600
FFE0
FFE0
0C60
1860
71E0
E1C0
ENDCHAR
STARTCHAR $52A8
ENCODING 21160
SWIDTH 1000 0
DWIDTH 16 0
BBX 13 15 1 -1
BITMAP
00C0
00C0
FCC0
FCC0
03F8
FFF8
FCD8
30D8
30D8
64D8
7D98
FD98
C318
0678
0430
ENDCHAR
STARTCHAR $52A9
ENCODING 21161
SWIDTH 1000 0
DWIDTH 16 0
BBX 15 15 0 -1
BITMAP
0060
7C60
7C60
65FE
65FE
7C66
6466
6466
7C66
6466
6466
64C6
FEC6
E19E
030C
ENDCHAR
STARTCHAR $52AA
ENCODING 21162
SWIDTH 1000 0
DWIDTH 16 0
BBX 14 15 1 -1
BITMAP
3000
31F8
FDF8
FCD8
6CF0
7860
3CFC
619C
C600
7FF0
7FF0
0630
0C30
38F0
E0E0
ENDCHAR
STARTCHAR $52AB
ENCODING 21163
SWIDTH 1000 0
DWIDTH 16 0
BBX 14 15 0 -1
BITMAP
1860
1860
7E60
7EFC
18FC
186C
FF6C
FF6C
306C
366C
666C
7ECC
72CC
019C
0118
ENDCHAR
STARTCHAR $52AC
ENCODING 21164
SWIDTH 1000 0
DWIDTH 16 0
BBX 15 15 0 -1
BITMAP
3030
3030
3F30
7F7E
C37E
8336
7B36
7B36
6B36
6B36
7B26
7B66
0746
06CE
018C
ENDCHAR
STARTCHAR $52AD
ENCODING 21165
SWIDTH 1000 0
DWIDTH 16 0
BBX 14 15 0 -1
BITMAP
0060
FE60
FE60
36FC
36FC
666C
CC6C
006C
7E6C
666C
666C
7ECC
7ECC
659C
0318
ENDCHAR
STARTCHAR $52B1
ENCODING 21169
SWIDTH 1000 0
DWIDTH 16 0
BBX 14 15 0 -1
BITMAP
0060
7F60
7F60
60FC
7FFC
7F6C
686C
6F6C
6B6C
6B6C
6B6C
5B6C
D76C
B6DC
00D8
ENDCHAR
STARTCHAR $52B2
ENCODING 21170
SWIDTH 1000 0
DWIDTH 16 0
BBX 14 15 0 -1
BITMAP
0060
7E60
7E60
0CFC
1EFC
336C
E16C
C06C
7F6C
7F6C
0C6C
0F6C
FFCC
F19C
0118
ENDCHAR
STARTCHAR $52B3
ENCODING 21171
SWIDTH 1000 0
DWIDTH 16 0
BBX 14 15 1 -1
BITMAP
0CC0
0CC0
FFF8
FFF8
0CC0
FFFC
FFFC
C60C
0600
3FF0
3FF0
0C30
1830
31F0
E0E0
ENDCHAR
STARTCHAR $52BE
ENCODING 21182
SWIDTH 1000 0
DWIDTH 16 0
BBX 15 15 0 -1
BITMAP
1030
1830
0830
FF7E
FF7E
3236
6636
7C36
1936
3336
6636
4F66
1B66
70CE
618C
ENDCHAR
STARTCHAR $52BF
ENCODING 21183
SWIDTH 1000 0
DWIDTH 16 0
BBX 14 15 1 -1
BITMAP
3180
FBF0
FBF0
31B0
FBB0
F1B0
3334
763C
0618
FFF0
FFF0
0C30
1830
F0F0
C0E0
ENDCHAR
STARTCHAR $52C3
ENCODING 21187
SWIDTH 1000 0
DWIDTH 16 0
BBX 14 15 0 -1
BITMAP
1860
1860
FF60
1860
FFFC
FFFC
C36C
3E6C
3E6C
0C6C
FF6C
FF4C
0CCC
1D9C
1918
ENDCHAR
STARTCHAR $52C7
ENCODING 21191
SWIDTH 1000 0
DWIDTH 16 0
BBX 13 15 1 -1
BITMAP
7FF0
7FF0
0CC0
7FF8
6318
7FF8
6318
7FF8
6318
6018
0300
7FF8
0618
7C78
F070
ENDCHAR
STARTCHAR $52C9
ENCODING 21193
SWIDTH 1000 0
DWIDTH 16 0
BBX 15 15 0 -1
BITMAP
3030
3E30
7E30
CC7E
7FFE
7FB6
6DB6
6DB6
7FB6
7FB6
1B6E
1BCC
3306
63FE
C1FC
ENDCHAR
STARTCHAR $52CB
ENCODING 21195
SWIDTH 1000 0
DWIDTH 16 0
BBX 15 15 0 -1
BITMAP
3E30
3E30
3230
3EFE
00FE
7F36
7F36
6336
6B36
6B36
6B66
1866
36C6
E1BC
8118
ENDCHAR
STARTCHAR $52D0
ENCODING 21200
SWIDTH 1000 0
DWIDTH 16 0
BBX 15 15 0 -1
BITMAP
0030
7F30
7F30
067E
FF7E
0C36
1C36
0036
7F36
7F36
5536
57B6
FFE6
F0DE
018C
ENDCHAR
STARTCHAR $52D2
ENCODING 21202
SWIDTH 1000 0
DWIDTH 16 0
BBX 13 15 1 -1
BITMAP
6CC0
6CC0
FEC0
6DF8
7DF8
18D8
FED8
DAD8
DAD8
FED8
18D8
FED8
FF98
19B8
1B30
ENDCHAR
STARTCHAR $52D6
ENCODING 21206
SWIDTH 1000 0
DWIDTH 16 0
BBX 15 15 0 -1
BITMAP
0030
FF30
C130
DD7E
C17E
DD36
0036
7F36
6336
7F36
6366
7F66
63C6
7F9E
610C
ENDCHAR
STARTCHAR $52D8
ENCODING 21208
SWIDTH 1000 0
DWIDTH 16 0
BBX 15 15 0 -1
BITMAP
6630
6630
FF30
FF7E
667E
7E36
6636
7E36
6636
FF36
FF36
6A66
7166
7EDE
7EDC
ENDCHAR
STARTCHAR $52DF
ENCODING 21215
SWIDTH 1000 0
DWIDTH 16 0
BBX 15 15 0 -1
BITMAP
0660
7FFE
0660
1FF8
1818
1FF8
1818
1FF8
0600
FFFE
3318
6FF6
0630
0C30
38E0
ENDCHAR
STARTCHAR $52E4
ENCODING 21220
SWIDTH 1000 0
DWIDTH 16 0
BBX 15 15 0 -1
BITMAP
3630
FFB0
3630
3EFE
00FE
7F36
6D36
7F36
0C36
7F36
0C66
7F66
0C66
7FCE
70CC
ENDCHAR
STARTCHAR $52F0
ENCODING 21232
SWIDTH 1000 0
DWIDTH 16 0
BBX 15 15 0 -1
BITMAP
3000
30FC
FEFC
36B4
76FC
EEB4
8CB4
44FC
FF00
5564
556A
556A
55E4
AB64
083C
ENDCHAR
STARTCHAR $52F9
ENCODING 21241
SWIDTH 1000 0
DWIDTH 16 0
BBX 14 15 0 -1
BITMAP
0C00
0C00
1FFC
1FFC
300C
600C
C00C
000C
000C
000C
000C
000C
000C
007C
0038
ENDCHAR
STARTCHAR $52FA
ENCODING 21242
SWIDTH 1000 0
DWIDTH 16 0
BBX 13 15 1 -1
BITMAP
1800
1800
3FF8
3FF8
6018
E018
C018
1818
0C18
0618
0318
0018
0018
0078
0070
ENDCHAR
STARTCHAR $52FE
ENCODING 21246
SWIDTH 1000 0
DWIDTH 16 0
BBX 13 15 1 -1
BITMAP
1800
1800
1FF8
3FF8
3018
6418
CC18
0818
1998
3198
7FD8
7FD8
0018
0078
0070
ENDCHAR
STARTCHAR $52FF
ENCODING 21247
SWIDTH 1000 0
DWIDTH 16 0
BBX 13 15 1 -1
BITMAP
1800
1800
1800
3FF8
7FF8
C6D8
8CD8
1998
3198
6318
C618
0C18
3838
70F0
0060
ENDCHAR
STARTCHAR $5300
ENCODING 21248
SWIDTH 1000 0
DWIDTH 16 0
BBX 13 15 1 -1
BITMAP
1800
1800
1FF8
3FF8
3018
6818
CE18
0318
0018
0198
0F98
7C18
7018
00F8
00F0
ENDCHAR
STARTCHAR $5305
ENCODING 21253
SWIDTH 1000 0
DWIDTH 16 0
BBX 14 15 1 -1
BITMAP
1800
1800
1FF8
3FF8
6018
FF98
BF98
3198
3F98
3FF8
3070
3000
300C
3FFC
1FF8
ENDCHAR
STARTCHAR $5306
ENCODING 21254
SWIDTH 1000 0
DWIDTH 16 0
BBX 13 15 1 -1
BITMAP
1800
1800
1800
3FF8
7FF8
C6D8
B6D8
1D98
1F98
3318
67D8
0CD8
3818
70F0
00E0
ENDCHAR
STARTCHAR $5308
ENCODING 21256
SWIDTH 1000 0
DWIDTH 16 0
BBX 14 15 0 -1
BITMAP
1800
1FFC
3FFC
700C
E00C
CD8C
372C
332C
37AC
3DAC
302C
3FEC
3FEC
001C
0018
ENDCHAR
STARTCHAR $530D
ENCODING 21261
SWIDTH 1000 0
DWIDTH 16 0
BBX 15 15 0 -1
BITMAP
1800
1FFE
3FFE
3006
6366
DFF6
0306
3FE6
3366
3FE6
3366
3FE6
3366
336E
336C
ENDCHAR
STARTCHAR $530F
ENCODING 21263
SWIDTH 1000 0
DWIDTH 16 0
BBX 15 15 0 -1
BITMAP
1860
FE7E
FEFE
18C6
3606
E2F6
3CD6
00D6
FED6
30F6
3ECC
06C0
06C2
3CFE
187C
ENDCHAR
STARTCHAR $5310
ENCODING 21264
SWIDTH 1000 0
DWIDTH 16 0
BBX 15 15 0 -1
BITMAP
1800
1FFE
3FFE
3006
7FE6
C006
1FC6
18C6
1FC6
0006
3FE6
3266
3FE6
326E
3FEC
ENDCHAR
STARTCHAR $5315
ENCODING 21269
SWIDTH 1000 0
DWIDTH 16 0
BBX 11 14 3 0
BITMAP
C000
C000
C0C0
C1C0
C700
DC00
F000
C000
C000
C000
C000
C060
FFE0
7FE0
ENDCHAR
STARTCHAR $5316
ENCODING 21270
SWIDTH 1000 0
DWIDTH 16 0
BBX 15 15 0 -1
BITMAP
0CC0
0CC0
1CC0
18CC
38CC
78D8
D8F0
18E0
19C0
1BC0
1AC0
18C6
18C6
18FE
187C
ENDCHAR
STARTCHAR $5317
ENCODING 21271
SWIDTH 1000 0
DWIDTH 16 0
BBX 15 14 0 -1
BITMAP
06C0
06C0
06C0
06C4
7EDC
7EF0
06C0
06C0
06C0
06C0
1EC6
FEC6
66FE
067C
ENDCHAR
STARTCHAR $5319
ENCODING 21273
SWIDTH 1000 0
DWIDTH 16 0
BBX 15 15 0 -1
BITMAP
3F60
3F60
3360
3F64
336E
3F78
0060
7FE0
7FE0
0C66
6F7E
6F3C
7C00
DFFE
C7FE
ENDCHAR
STARTCHAR $531A
ENCODING 21274
SWIDTH 1000 0
DWIDTH 16 0
BBX 13 14 1 -1
BITMAP
FFF8
FFF8
C000
C000
C000
C000
C000
C000
C000
C000
C000
C000
FFF8
FFF8
ENDCHAR
STARTCHAR $531D
ENCODING 21277
SWIDTH 1000 0
DWIDTH 16 0
BBX 13 14 1 -1
BITMAP
FFF8
FFF8
C300
DFF0
DFF0
DB30
DB30
DB30
DB70
DB60
C300
C000
FFF8
FFF8
ENDCHAR
STARTCHAR $5320
ENCODING 21280
SWIDTH 1000 0
DWIDTH 16 0
BBX 14 15 1 -1
BITMAP
FFF8
FFF8
C000
C0F0
CFC0
CC00
CFF8
CFF8
CCC0
CCC0
D8C0
D8C0
C000
FFFC
FFFC
ENDCHAR
STARTCHAR $5321
ENCODING 21281
SWIDTH 1000 0
DWIDTH 16 0
BBX 13 14 1 -1
BITMAP
FFF8
FFF8
C000
DFF0
DFF0
C180
CFF0
CFF0
C180
DFF8
DFF8
C000
FFF8
FFF8
ENDCHAR
STARTCHAR $5323
ENCODING 21283
SWIDTH 1000 0
DWIDTH 16 0
BBX 14 15 1 -1
BITMAP
FFF8
FFF8
C000
DFF0
DFF0
DB30
DFF0
DB30
DFF0
DFF0
C300
C300
C300
FFFC
FFFC
ENDCHAR
STARTCHAR $5326
ENCODING 21286
SWIDTH 1000 0
DWIDTH 16 0
BBX 14 15 1 -1
BITMAP
FFF8
FFF8
C000
C8C0
FEC0
D1F0
ECD0
FED0
CCD0
CED0
FCD4
CD9C
C000
FFF8
FFF8
ENDCHAR
STARTCHAR $532A
ENCODING 21290
SWIDTH 1000 0
DWIDTH 16 0
BBX 14 14 1 -1
BITMAP
FFF8
FFF8
C6C0
FEF8
FEF8
C6C0
DEF0
DEF0
C6C0
FEF8
FEF8
C6C0
FFFC
FFFC
ENDCHAR
STARTCHAR $532E
ENCODING 21294
SWIDTH 1000 0
DWIDTH 16 0
BBX 14 15 1 -1
BITMAP
FFF8
FFF8
C180
CFF0
CDB0
CFF0
C180
FFF8
C000
CFF0
CDB0
CDB0
C660
DC30
FFFC
ENDCHAR
STARTCHAR $5339
ENCODING 21305
SWIDTH 1000 0
DWIDTH 16 0
BBX 13 13 1 -1
BITMAP
FFF8
FFF8
CCC0
CCC0
CCC0
CCC0
CCD8
D8F8
F070
C000
C000
FFF8
FFF8
ENDCHAR
STARTCHAR $533A
ENCODING 21306
SWIDTH 1000 0
DWIDTH 16 0
BBX 12 14 2 -1
BITMAP
FFF0
FFF0
C000
D860
CCC0
C780
C300
C780
CCC0
D860
D020
C000
FFF0
FFF0
ENDCHAR
STARTCHAR $533B
ENCODING 21307
SWIDTH 1000 0
DWIDTH 16 0
BBX 14 15 1 -1
BITMAP
FFF8
FFF8
C000
CC00
CFF0
DFF0
D180
FFF8
FFF8
C380
C6C0
CC70
D830
FFFC
FFFC
ENDCHAR
STARTCHAR $533E
ENCODING 21310
SWIDTH 1000 0
DWIDTH 16 0
BBX 13 15 1 -1
BITMAP
FFF8
FFF8
C180
DFF8
D818
DFF8
D800
DFF8
DD58
DFF8
ED58
CD58
C000
FFF8
FFF8
ENDCHAR
STARTCHAR $533F
ENCODING 21311
SWIDTH 1000 0
DWIDTH 16 0
BBX 14 15 1 -1
BITMAP
FFF8
FFF8
C000
C660
DFF8
C660
C300
FFF8
C600
DFF0
FE30
C7F0
C000
FFFC
FFFC
ENDCHAR
STARTCHAR $5341
ENCODING 21313
SWIDTH 1000 0
DWIDTH 16 0
BBX 14 15 1 -1
BITMAP
0300
0300
0300
0300
0300
0300
FFFC
FFFC
0300
0300
0300
0300
0300
0300
0300
ENDCHAR
STARTCHAR $5343
ENCODING 21315
SWIDTH 1000 0
DWIDTH 16 0
BBX 14 15 0 -1
BITMAP
00F0
3FF8
3F00
0300
0300
0300
FFFC
FFFC
0300
0300
0300
0300
0300
0300
0300
ENDCHAR
STARTCHAR $5345
ENCODING 21317
SWIDTH 1000 0
DWIDTH 16 0
BBX 15 15 0 -1
BITMAP
1818
1998
1998
1998
1998
1998
FFFE
FFFE
1998
1998
1998
3198
3198
6198
4018
ENDCHAR
STARTCHAR $5347
ENCODING 21319
SWIDTH 1000 0
DWIDTH 16 0
BBX 15 15 0 -1
BITMAP
0060
0760
3F60
3C60
0C60
0C60
FFFE
FFFE
0C60
0C60
0C60
1860
3060
6060
4060
ENDCHAR
STARTCHAR $5348
ENCODING 21320
SWIDTH 1000 0
DWIDTH 16 0
BBX 14 15 1 -1
BITMAP
1800
1800
1FF0
3FF0
6300
C300
8300
0300
FFFC
FFFC
0300
0300
0300
0300
0300
ENDCHAR
STARTCHAR $5349
ENCODING 21321
SWIDTH 1000 0
DWIDTH 16 0
BBX 15 15 0 -1
BITMAP
0180
0180
7FFC
7FFC
0180
0DB0
0C30
0C30
FFFE
FFFE
0C30
0C30
1830
3030
6030
ENDCHAR
STARTCHAR $534A
ENCODING 21322
SWIDTH 1000 0
DWIDTH 16 0
BBX 14 15 1 -1
BITMAP
0300
2310
2310
3320
1320
7FF8
7FF8
0300
0300
FFFC
FFFC
0300
0300
0300
0300
ENDCHAR
STARTCHAR $534E
ENCODING 21326
SWIDTH 1000 0
DWIDTH 16 0
BBX 15 15 0 -1
BITMAP
0CC0
18C8
18DC
38F8
7BE0
5BC0
18CC
18FC
1878
0180
FFFE
FFFE
0180
0180
0180
ENDCHAR
STARTCHAR $534F
ENCODING 21327
SWIDTH 1000 0
DWIDTH 16 0
BBX 15 15 0 -1
BITMAP
30C0
30C0
30C0
33F8
FBF8
F8D8
30D8
36DE
36DE
359E
3198
3318
3318
3678
3430
ENDCHAR
STARTCHAR $5351
ENCODING 21329
SWIDTH 1000 0
DWIDTH 16 0
BBX 15 15 0 -1
BITMAP
0600
3FF8
3FF8
3318
3318
3FF8
3318
3FF8
3FF8
0CC0
FFFE
FFFE
00C0
00C0
00C0
ENDCHAR
STARTCHAR $5352
ENCODING 21330
SWIDTH 1000 0
DWIDTH 16 0
BBX 15 15 0 -1
BITMAP
0180
7FFC
7FFC
0000
0C30
0C30
1E78
32CC
2000
0180
FFFE
FFFE
0180
0180
0180
ENDCHAR
STARTCHAR $5353
ENCODING 21331
SWIDTH 1000 0
DWIDTH 16 0
BBX 15 15 0 -1
BITMAP
0300
03FC
03FC
0300
3FF8
3FF8
3018
3FF8
3018
3FF8
0300
FFFE
FFFE
0300
0300
ENDCHAR
STARTCHAR $5355
ENCODING 21333
SWIDTH 1000 0
DWIDTH 16 0
BBX 14 15 1 -1
BITMAP
1860
0CC0
7FF8
7FF8
6318
7FF8
7FF8
6318
7FF8
7FF8
0300
FFFC
FFFC
0300
0300
ENDCHAR
STARTCHAR $5356
ENCODING 21334
SWIDTH 1000 0
DWIDTH 16 0
BBX 14 15 0 -1
BITMAP
0180
7FFC
7FFC
0180
7FFC
7FFC
180C
0D80
3180
1980
FFFC
FFFC
0660
1C38
701C
ENDCHAR
STARTCHAR $5357
ENCODING 21335
SWIDTH 1000 0
DWIDTH 16 0
BBX 14 15 1 -1
BITMAP
0300
0300
FFFC
FFFC
0300
7FF8
7FF8
6498
6FD8
6318
6FD8
6FD8
6318
6378
6330
ENDCHAR
STARTCHAR $535A
ENCODING 21338
SWIDTH 1000 0
DWIDTH 16 0
BBX 15 15 0 -1
BITMAP
30D8
37FC
37FC
30C0
FFFC
FECC
37FC
36CC
37FC
36CC
3FFE
3FFE
3318
3138
3038
ENDCHAR
STARTCHAR $535C
ENCODING 21340
SWIDTH 1000 0
DWIDTH 16 0
BBX 8 15 6 -1
BITMAP
C0
C0
C0
C0
C0
D8
CC
C6
C3
C1
C0
C0
C0
C0
C0
ENDCHAR
STARTCHAR $535E
ENCODING 21342
SWIDTH 1000 0
DWIDTH 16 0
BBX 15 15 0 -1
BITMAP
0200
0300
0100
FFFE
FFFE
0300
0300
0340
0360
0330
0318
0300
0300
0300
0300
ENDCHAR
STARTCHAR $535F
ENCODING 21343
SWIDTH 1000 0
DWIDTH 16 0
BBX 14 15 0 -1
BITMAP
00C0
00C0
FCC0
FCC0
CCE0
CCF0
CCD8
CCCC
CCC4
FCC0
FCC0
CCC0
C0C0
00C0
00C0
ENDCHAR
STARTCHAR $5360
ENCODING 21344
SWIDTH 1000 0
DWIDTH 16 0
BBX 12 15 2 -1
BITMAP
0C00
0C00
0C00
0FF0
0FF0
0C00
0C00
FFE0
FFE0
C060
C060
C060
FFE0
FFE0
C060
ENDCHAR
STARTCHAR $5361
ENCODING 21345
SWIDTH 1000 0
DWIDTH 16 0
BBX 15 15 0 -1
BITMAP
0300
0300
03F8
03F8
0300
0300
FFFE
FFFE
0300
03C0
0360
0330
0318
0300
0300
ENDCHAR
STARTCHAR $5362
ENCODING 21346
SWIDTH 1000 0
DWIDTH 16 0
BBX 14 15 0 -1
BITMAP
0300
03FC
03FC
0300
3FF8
3FF8
3018
3018
3FF8
3FF8
3000
3000
6000
6000
C000
ENDCHAR
STARTCHAR $5363
ENCODING 21347
SWIDTH 1000 0
DWIDTH 16 0
BBX 13 15 1 -1
BITMAP
0600
07F8
07F8
0600
FFF0
FFF0
C030
FF30
C330
C330
FF30
C030
C030
FFF0
FFF0
ENDCHAR
STARTCHAR $5364
ENCODING 21348
SWIDTH 1000 0
DWIDTH 16 0
BBX 13 15 1 -1
BITMAP
0600
07F8
07F8
0600
FFF0
FFF0
C030
C8B0
CDB0
C730
CDB0
D8B0
FFF0
FFF0
C030
ENDCHAR
STARTCHAR $5366
ENCODING 21350
SWIDTH 1000 0
DWIDTH 16 0
BBX 15 15 0 -1
BITMAP
0C30
0C30
7F30
7F30
0C30
FFB8
FFBC
0034
0C36
7F32
7F30
0C30
0F30
7F30
7030
ENDCHAR
STARTCHAR $5367
ENCODING 21351
SWIDTH 1000 0
DWIDTH 16 0
BBX 14 15 1 -1
BITMAP
0060
FE60
FE60
D860
D860
FE70
FE78
C668
FE6C
FE64
D860
D860
FE60
FE60
0060
ENDCHAR
STARTCHAR $5369
ENCODING 21353
SWIDTH 1000 0
DWIDTH 16 0
BBX 6 14 8 -1
BITMAP
FC
FC
CC
CC
CC
CC
CC
CC
CC
DC
D8
C0
C0
C0
ENDCHAR
STARTCHAR $536B
ENCODING 21355
SWIDTH 1000 0
DWIDTH 16 0
BBX 15 13 0 0
BITMAP
7FF8
7FF8
0318
0318
0318
0318
0318
0378
0370
0300
0300
FFFE
FFFE
ENDCHAR
STARTCHAR $536E
ENCODING 21358
SWIDTH 1000 0
DWIDTH 16 0
BBX 15 15 0 -1
BITMAP
0078
3FF8
3F00
3000
3FFE
3FFE
3000
37F8
3618
3618
3670
2600
660C
47FC
C3F8
ENDCHAR
STARTCHAR $536F
ENCODING 21359
SWIDTH 1000 0
DWIDTH 16 0
BBX 14 15 1 -1
BITMAP
0C00
FEFC
F0FC
CCCC
CCCC
CCCC
CCCC
CCCC
CCCC
FCCC
ECFC
18D8
30C0
60C0
C0C0
ENDCHAR
STARTCHAR $5370
ENCODING 21360
SWIDTH 1000 0
DWIDTH 16 0
BBX 13 15 1 -1
BITMAP
0C00
FDF8
F1F8
C198
C198
FD98
FD98
C198
C198
C198
CD98
F9F8
E1B0
0180
0180
ENDCHAR
STARTCHAR $5371
ENCODING 21361
SWIDTH 1000 0
DWIDTH 16 0
BBX 14 15 0 -1
BITMAP
0C00
0FF0
1FF0
3060
60C0
FFFC
3FFC
3000
37F0
3630
3670
3660
360C
67FC
C3FC
ENDCHAR
STARTCHAR $5373
ENCODING 21363
SWIDTH 1000 0
DWIDTH 16 0
BBX 13 14 1 -1
BITMAP
FEF8
FEF8
C6D8
C6D8
FED8
C6D8
FED8
FED8
C0D8
CCD8
DCF8
F6F0
E2C0
00C0
ENDCHAR
STARTCHAR $5374
ENCODING 21364
SWIDTH 1000 0
DWIDTH 16 0
BBX 15 15 0 -1
BITMAP
0C00
0C7E
7F7E
7F66
0C66
0C66
FF66
FF66
1866
3266
3366
7F6E
7F6C
0160
0060
ENDCHAR
STARTCHAR $5375
ENCODING 21365
SWIDTH 1000 0
DWIDTH 16 0
BBX 13 15 1 -1
BITMAP
1800
FDF8
E1F8
CD98
ED98
FDD8
DDF8
CDB8
CD98
FD98
EDB8
19B0
3180
E180
4180
ENDCHAR
STARTCHAR $5377
ENCODING 21367
SWIDTH 1000 0
DWIDTH 16 0
BBX 14 15 1 -1
BITMAP
0600
6630
3660
7FF8
0600
FFFC
FFFC
1860
3FF0
FFDC
D8CC
19C0
1830
1FF0
0FE0
ENDCHAR
STARTCHAR $5378
ENCODING 21368
SWIDTH 1000 0
DWIDTH 16 0
BBX 15 15 0 -1
BITMAP
3000
3F7E
7F7E
6C66
0C66
7F66
7F66
0C66
6F66
6C66
6C66
6F6E
FF6C
E060
0060
ENDCHAR
STARTCHAR $537A
ENCODING 21370
SWIDTH 1000 0
DWIDTH 16 0
BBX 15 15 0 -1
BITMAP
3FF8
3FF8
00C0
7D9C
0DE0
19B8
338E
EFF0
0000
1FF0
1830
18F0
180C
1FFC
0FF8
ENDCHAR
STARTCHAR $537F
ENCODING 21375
SWIDTH 1000 0
DWIDTH 16 0
BBX 14 15 0 -1
BITMAP
37BC
F7BC
C6B4
D6B4
D7B4
D6B4
D7B4
D7B4
F634
D6B4
16B4
17BC
36B0
6030
C030
ENDCHAR
STARTCHAR $5382
ENCODING 21378
SWIDTH 1000 0
DWIDTH 16 0
BBX 15 14 0 -1
BITMAP
3FFE
3FFE
3000
3000
3000
3000
3000
3000
3000
3000
6000
6000
C000
8000
ENDCHAR
STARTCHAR $5384
ENCODING 21380
SWIDTH 1000 0
DWIDTH 16 0
BBX 15 14 0 -1
BITMAP
3FFE
3FFE
3000
37F8
37F8
3618
3618
3618
36F8
3670
3604
6606
67FE
C3FC
ENDCHAR
STARTCHAR $5385
ENCODING 21381
SWIDTH 1000 0
DWIDTH 16 0
BBX 14 14 0 -1
BITMAP
7FFC
7FFC
6000
6000
6FFC
6FFC
60C0
60C0
60C0
60C0
60C0
60C0
C1C0
8180
ENDCHAR
STARTCHAR $5386
ENCODING 21382
SWIDTH 1000 0
DWIDTH 16 0
BBX 14 14 0 -1
BITMAP
3FFC
3FFC
3000
3180
3180
3FF8
3FF8
3198
3198
3318
2318
6618
4C78
C870
ENDCHAR
STARTCHAR $5389
ENCODING 21385
SWIDTH 1000 0
DWIDTH 16 0
BBX 14 14 1 -1
BITMAP
7FFC
7FFC
6000
6FF8
6FF8
6300
6300
63F0
63F0
6630
4630
CC30
D8F0
90E0
ENDCHAR
STARTCHAR $538B
ENCODING 21387
SWIDTH 1000 0
DWIDTH 16 0
BBX 15 14 0 -1
BITMAP
3FFC
3FFC
3000
30C0
30C0
37FC
37FC
30C0
30D0
30D8
30C8
6FFE
6FFE
C000
ENDCHAR
STARTCHAR $538C
ENCODING 21388
SWIDTH 1000 0
DWIDTH 16 0
BBX 15 14 0 -1
BITMAP
3FFE
3FFE
30D0
30D8
30C8
37FC
37FC
30C0
30C0
31E0
3330
6618
6C0E
C804
ENDCHAR
STARTCHAR $538D
ENCODING 21389
SWIDTH 1000 0
DWIDTH 16 0
BBX 15 15 0 -1
BITMAP
7FFE
7FFE
6180
6FFC
6FFC
6300
66C0
6FF8
6FF8
60C0
6FFC
6FFC
60C0
C0C0
80C0
ENDCHAR
STARTCHAR $5395
ENCODING 21397
SWIDTH 1000 0
DWIDTH 16 0
BBX 15 14 0 -1
BITMAP
7FFE
7FFE
6000
6FAC
68AC
6AAC
6AAC
6AAC
6AAC
6AAC
670C
6D8C
D89C
C018
ENDCHAR
STARTCHAR $5398
ENCODING 21400
SWIDTH 1000 0
DWIDTH 16 0
BBX 15 14 0 -1
BITMAP
3FFE
3FFE
3000
37F8
36D8
37F8
36D8
37F8
37F8
30C0
67F8
60C0
4FFC
CFFC
ENDCHAR
STARTCHAR $539A
ENCODING 21402
SWIDTH 1000 0
DWIDTH 16 0
BBX 15 15 0 -1
BITMAP
7FFC
7FFC
6000
6FF8
6C18
6FF8
6C18
6FF8
6000
6FF8
6060
7FFE
DFFE
C0C0
41C0
ENDCHAR
STARTCHAR $539D
ENCODING 21405
SWIDTH 1000 0
DWIDTH 16 0
BBX 15 15 0 -1
BITMAP
3FFE
3FFE
3000
31B0
37FC
31B0
31B0
3FFE
3000
37FC
360C
37FC
660C
47FC
860C
ENDCHAR
STARTCHAR $539F
ENCODING 21407
SWIDTH 1000 0
DWIDTH 16 0
BBX 15 15 0 -1
BITMAP
3FFE
3FFE
30C0
37FC
37FC
360C
37FC
360C
37FC
37FC
30C0
26D8
6CCC
4BC4
C180
ENDCHAR
STARTCHAR $53A2
ENCODING 21410
SWIDTH 1000 0
DWIDTH 16 0
BBX 15 15 0 -1
BITMAP
7FFE
7FFE
6000
667C
667C
6F4C
6F4C
667C
6F4C
6FCC
76FC
764C
667C
C67C
864C
ENDCHAR
STARTCHAR $53A3
ENCODING 21411
SWIDTH 1000 0
DWIDTH 16 0
BBX 15 15 0 -1
BITMAP
7FFE
7FFE
60D0
60C8
6FFC
6330
6618
7C0E
6FFC
6CCC
6FFC
6CCC
6FFC
C0C0
80C0
ENDCHAR
STARTCHAR $53A5
ENCODING 21413
SWIDTH 1000 0
DWIDTH 16 0
BBX 15 15 0 -1
BITMAP
7FFE
7FFE
6000
68B0
6530
6FBE
6266
6A94
6A90
6F90
6F90
6238
666C
CCC6
9800
ENDCHAR
STARTCHAR $53A6
ENCODING 21414
SWIDTH 1000 0
DWIDTH 16 0
BBX 14 15 0 -1
BITMAP
7FFC
7FFC
6000
7FFC
6180
6FF8
6C18
6FF8
6C18
6FF8
6600
6FF8
5B30
C1E0
9F3C
ENDCHAR
STARTCHAR $53A8
ENCODING 21416
SWIDTH 1000 0
DWIDTH 16 0
BBX 15 14 0 -1
BITMAP
7FFE
7FFE
600C
6F8C
603E
6FBE
698C
6FAC
6FAC
602C
6D8C
C7CC
DE1C
4018
ENDCHAR
STARTCHAR $53A9
ENCODING 21417
SWIDTH 1000 0
DWIDTH 16 0
BBX 15 14 0 -1
BITMAP
7FFC
7FFC
6000
6F7C
6B18
6F58
6B7E
6F7E
6818
6B38
6F78
6CDA
C99E
410C
ENDCHAR
STARTCHAR $53AE
ENCODING 21422
SWIDTH 1000 0
DWIDTH 16 0
BBX 15 15 0 -1
BITMAP
7FFE
7FFE
6000
693E
7FBE
6930
6F3E
693E
6F34
6934
7FF4
6034
4A34
D164
8044
ENDCHAR
STARTCHAR $53B6
ENCODING 21430
SWIDTH 1000 0
DWIDTH 16 0
BBX 13 12 1 0
BITMAP
0600
0600
0C00
0C00
1800
18C0
3060
3060
6030
FFF0
FFF8
0018
ENDCHAR
STARTCHAR $53BB
ENCODING 21435
SWIDTH 1000 0
DWIDTH 16 0
BBX 15 15 0 -1
BITMAP
0180
0180
0180
3FF8
3FF8
0180
0180
FFFE
FFFE
0600
0660
0C30
18F8
3FFC
3F0C
ENDCHAR
STARTCHAR $53BF
ENCODING 21439
SWIDTH 1000 0
DWIDTH 16 0
BBX 15 14 0 -1
BITMAP
1FF8
1FF8
1818
1FF8
1818
1818
1FF8
1818
FFFE
FFFE
0600
0C30
3FF8
1C0C
ENDCHAR
STARTCHAR $53C1
ENCODING 21441
SWIDTH 1000 0
DWIDTH 16 0
BBX 15 15 0 -1
BITMAP
0300
0640
0FE0
1FF0
0600
7FFE
7FFE
0C60
1830
37D8
E00E
0FE0
0000
3FF8
3FF8
ENDCHAR
STARTCHAR $53C2
ENCODING 21442
SWIDTH 1000 0
DWIDTH 16 0
BBX 15 15 0 -1
BITMAP
0300
0660
0C30
1FF8
0300
7FFE
7FFE
1C30
F31E
6ECC
0990
0730
1CE0
0380
3E00
ENDCHAR
STARTCHAR $53C8
ENCODING 21448
SWIDTH 1000 0
DWIDTH 16 0
BBX 14 14 1 -1
BITMAP
7FF0
7FF0
3030
3060
3060
18C0
18C0
0D80
0780
0700
0DC0
38F0
F03C
C00C
ENDCHAR
STARTCHAR $53C9
ENCODING 21449
SWIDTH 1000 0
DWIDTH 16 0
BBX 15 14 0 -1
BITMAP
7FF8
7FF8
1818
1A10
1B30
0D30
0C60
0440
06C0
0380
07C0
1C70
F83E
600C
ENDCHAR
STARTCHAR $53CA
ENCODING 21450
SWIDTH 1000 0
DWIDTH 16 0
BBX 14 14 1 -1
BITMAP
7FE0
7FE0
1860
18C0
18F0
1CF0
1C30
1630
3660
23C0
6180
C7E0
BE7C
1838
ENDCHAR
STARTCHAR $53CB
ENCODING 21451
SWIDTH 1000 0
DWIDTH 16 0
BBX 14 15 0 -1
BITMAP
0600
0600
7FFC
7FFC
0600
07F0
07F0
0E30
0E30
1B20
3160
60C0
C3F0
1F3C
1C0C
ENDCHAR
STARTCHAR $53CC
ENCODING 21452
SWIDTH 1000 0
DWIDTH 16 0
BBX 15 14 0 -1
BITMAP
7DFC
7DFC
0CCC
6CCC
6CCC
38D8
18D8
1CD0
1C70
3660
22F0
6198
C70C
0606
ENDCHAR
STARTCHAR $53CD
ENCODING 21453
SWIDTH 1000 0
DWIDTH 16 0
BBX 15 15 0 -1
BITMAP
0070
3FF8
3F80
3000
3000
3FF0
3FF0
3630
3630
3360
3360
61C0
63F0
DE3E
4C1C
ENDCHAR
STARTCHAR $53D1
ENCODING 21457
SWIDTH 1000 0
DWIDTH 16 0
BBX 14 15 1 -1
BITMAP
0600
6660
6630
6600
FFF8
FFF8
0C00
0FF0
1FF0
3460
66C0
C380
87C0
3C7C
301C
ENDCHAR
STARTCHAR $53D4
ENCODING 21460
SWIDTH 1000 0
DWIDTH 16 0
BBX 15 15 0 -1
BITMAP
1800
18FC
1EFC
1ECC
18CC
18CC
FF6C
FF6C
186C
7E78
7B30
DB70
D8D8
398C
3306
ENDCHAR
STARTCHAR $53D6
ENCODING 21462
SWIDTH 1000 0
DWIDTH 16 0
BBX 15 15 0 -1
BITMAP
FE00
FEFC
66FC
666C
666C
7E6C
666C
666C
7E6C
6638
6730
FF38
F6EE
06C4
0600
ENDCHAR
STARTCHAR $53D7
ENCODING 21463
SWIDTH 1000 0
DWIDTH 16 0
BBX 13 15 1 -1
BITMAP
03F0
FFF0
FC00
6630
3360
FFF8
FFF8
C018
3FC0
3FC0
18C0
0D80
0F80
7CE0
E038
ENDCHAR
STARTCHAR $53D8
ENCODING 21464
SWIDTH 1000 0
DWIDTH 16 0
BBX 13 15 1 -1
BITMAP
0600
FFF8
FFF8
0D80
2DA0
6DB0
CD98
0000
7FE0
7FE0
18C0
0D80
0F80
FFF8
F078
ENDCHAR
STARTCHAR $53D9
ENCODING 21465
SWIDTH 1000 0
DWIDTH 16 0
BBX 15 15 0 -1
BITMAP
0800
1CFC
36FC
634C
FF4C
3E4C
0C4C
7F58
7F58
0C70
2E30
6D70
CCD8
1D8E
1904
ENDCHAR
STARTCHAR $53DB
ENCODING 21467
SWIDTH 1000 0
DWIDTH 16 0
BBX 14 15 1 -1
BITMAP
3018
B5FC
B5E0
7980
3180
FDF8
FDF8
3198
FD98
FDD8
3358
3330
6670
CDD8
888C
ENDCHAR
STARTCHAR $53DF
ENCODING 21471
SWIDTH 1000 0
DWIDTH 16 0
BBX 14 15 1 -1
BITMAP
0300
7B78
7B78
6318
7B78
6318
7FF8
0300
7FF0
7FF0
1830
0C60
0780
1FE0
F83C
ENDCHAR
STARTCHAR $53E0
ENCODING 21472
SWIDTH 1000 0
DWIDTH 16 0
BBX 15 15 0 -1
BITMAP
3FF0
0C60
07C0
0C60
7EF8
34D8
1C70
32C8
FFFE
C006
1FF0
1830
1FF0
1830
7FFC
ENDCHAR
STARTCHAR $53E3
ENCODING 21475
SWIDTH 1000 0
DWIDTH 16 0
BBX 12 12 2 0
BITMAP
FFF0
FFF0
C030
C030
C030
C030
C030
C030
C030
FFF0
FFF0
C030
ENDCHAR
STARTCHAR $53E4
ENCODING 21476
SWIDTH 1000 0
DWIDTH 16 0
BBX 14 15 1 -1
BITMAP
0300
0300
0300
FFFC
FFFC
0300
0300
3FF0
3FF0
3030
3030
3030
3FF0
3FF0
3030
ENDCHAR
STARTCHAR $53E5
ENCODING 21477
SWIDTH 1000 0
DWIDTH 16 0
BBX 13 15 1 -1
BITMAP
1800
1800
3FF8
3FF8
6018
C018
BF98
3F98
3198
3198
3F98
3F98
3198
0078
0070
ENDCHAR
STARTCHAR $53E6
ENCODING 21478
SWIDTH 1000 0
DWIDTH 16 0
BBX 12 14 1 -1
BITMAP
3FF0
3FF0
3030
3030
3FF0
3FF0
0600
FFF0
FFF0
0630
0C30
1830
F0F0
60E0
ENDCHAR
STARTCHAR $53E8
ENCODING 21480
SWIDTH 1000 0
DWIDTH 16 0
BBX 13 14 1 -1
BITMAP
FBF8
FBF8
C998
C998
C998
C998
C998
F998
F998
C998
C318
0618
0C78
1870
ENDCHAR
STARTCHAR $53E9
ENCODING 21481
SWIDTH 1000 0
DWIDTH 16 0
BBX 13 14 1 -1
BITMAP
FDF8
FDF8
CD98
CD98
CD98
CD98
CD98
FD98
FD98
CDB8
C1B0
0180
0180
0180
ENDCHAR
STARTCHAR $53EA
ENCODING 21482
SWIDTH 1000 0
DWIDTH 16 0
BBX 14 14 1 -1
BITMAP
3FF0
3FF0
3030
3030
3030
3030
3FF0
3FF0
0000
1860
3030
6018
C00C
8004
ENDCHAR
STARTCHAR $53EB
ENCODING 21483
SWIDTH 1000 0
DWIDTH 16 0
BBX 13 15 1 -1
BITMAP
0018
FC18
FD98
CD98
CD98
CD98
CD98
CD98
FDF8
FDF8
CD98
CC18
0018
0018
0018
ENDCHAR
STARTCHAR $53EC
ENCODING 21484
SWIDTH 1000 0
DWIDTH 16 0
BBX 12 15 1 -1
BITMAP
7FF0
7FF0
0630
0630
0C30
18F0
70E0
E000
3FF0
3FF0
3030
3030
3FF0
3FF0
3030
ENDCHAR
STARTCHAR $53ED
ENCODING 21485
SWIDTH 1000 0
DWIDTH 16 0
BBX 14 14 1 -1
BITMAP
FB60
FB60
CB60
CB60
CB60
CB60
CB60
FB60
FB60
CA30
C610
CC18
180C
1004
ENDCHAR
STARTCHAR $53EE
ENCODING 21486
SWIDTH 1000 0
DWIDTH 16 0
BBX 15 14 0 -1
BITMAP
FDFE
FDFE
CC30
CC30
CC30
CC30
CC30
CC30
FC30
FC30
CC30
C030
0070
0060
ENDCHAR
STARTCHAR $53EF
ENCODING 21487
SWIDTH 1000 0
DWIDTH 16 0
BBX 15 14 0 -1
BITMAP
FFFE
FFFE
0018
0018
3F98
3F98
3198
3198
3F98
3F98
3198
0018
0078
0070
ENDCHAR
STARTCHAR $53F0
ENCODING 21488
SWIDTH 1000 0
DWIDTH 16 0
BBX 12 15 2 -1
BITMAP
0C00
0C00
1880
30C0
6060
FFF0
FFF0
0000
7FE0
7FE0
6060
6060
7FE0
7FE0
6060
ENDCHAR
STARTCHAR $53F1
ENCODING 21489
SWIDTH 1000 0
DWIDTH 16 0
BBX 14 15 1 -1
BITMAP
00C0
00C0
FCC0
FCC8
CCD8
CCD8
CCF0
CCE0
CDC0
FFC0
FEC0
CCCC
C0CC
00FC
0078
ENDCHAR
STARTCHAR $53F2
ENCODING 21490
SWIDTH 1000 0
DWIDTH 16 0
BBX 14 15 1 -1
BITMAP
0300
0300
7FF8
7FF8
6318
6318
7FF8
7FF8
0300
3300
1B00
1E00
0F00
FBFC
E0F8
ENDCHAR
STARTCHAR $53F3
ENCODING 21491
SWIDTH 1000 0
DWIDTH 16 0
BBX 15 15 0 -1
BITMAP
0300
0300
0300
7FFE
7FFE
0600
0600
0FF8
1FF8
3C18
6C18
CC18
0FF8
0FF8
0C18
ENDCHAR
STARTCHAR $53F5
ENCODING 21493
SWIDTH 1000 0
DWIDTH 16 0
BBX 13 14 1 -1
BITMAP
FFF8
FFF8
C000
C000
CFF0
CFF0
CC30
CC30
CFF0
CFF0
C000
C000
FFF8
FFF8
ENDCHAR
STARTCHAR $53F6
ENCODING 21494
SWIDTH 1000 0
DWIDTH 16 0
BBX 14 15 1 -1
BITMAP
0060
F860
F860
D860
D860
DBFC
DBFC
D860
D860
F860
F860
D860
C060
0060
0060
ENDCHAR
STARTCHAR $53F7
ENCODING 21495
SWIDTH 1000 0
DWIDTH 16 0
BBX 15 14 0 -1
BITMAP
1FF8
1FF8
1818
1FF8
1FF8
0000
FFFE
FFFE
0C00
0FF8
0FF8
0018
01F0
00E0
ENDCHAR
STARTCHAR $53F8
ENCODING 21496
SWIDTH 1000 0
DWIDTH 16 0
BBX 13 14 1 -1
BITMAP
7FF8
7FF8
0018
FFD8
FFD8
0018
7F98
7F98
6198
6198
7F98
7F98
0078
0070
ENDCHAR
STARTCHAR $53F9
ENCODING 21497
SWIDTH 1000 0
DWIDTH 16 0
BBX 15 14 0 -1
BITMAP
FBFC
FBFC
C98C
C98C
C998
C998
C998
C8D0
F8F0
F860
C8F0
C198
070E
0E06
ENDCHAR
STARTCHAR $53FB
ENCODING 21499
SWIDTH 1000 0
DWIDTH 16 0
BBX 13 15 1 -1
BITMAP
00C0
00C0
FCC0
FFF8
CFF8
CCD8
CCD8
CCD8
CCD8
CCD8
FD98
FD98
C318
0678
0C70
ENDCHAR
STARTCHAR $53FC
ENCODING 21500
SWIDTH 1000 0
DWIDTH 16 0
BBX 13 14 1 -1
BITMAP
03F8
FBF8
F818
D818
D858
D8D8
D898
D998
F918
FB18
DA18
C638
0070
0060
ENDCHAR
STARTCHAR $53FD
ENCODING 21501
SWIDTH 1000 0
DWIDTH 16 0
BBX 15 14 0 -1
BITMAP
FBF0
FBF0
CB30
CB30
CB30
CB30
CB30
CB30
FB30
FB30
CB30
0636
0C3E
081C
ENDCHAR
STARTCHAR $5401
ENCODING 21505
SWIDTH 1000 0
DWIDTH 16 0
BBX 15 14 0 -1
BITMAP
F9FC
F9FC
D860
D860
D860
DBFE
DBFE
F860
F860
D860
C060
0060
00E0
00C0
ENDCHAR
STARTCHAR $5403
ENCODING 21507
SWIDTH 1000 0
DWIDTH 16 0
BBX 14 15 1 -1
BITMAP
0180
0180
F9F8
FBF8
DF00
DE00
D9F0
D9F0
D860
F8C0
F980
DB0C
C30C
03FC
01F8
ENDCHAR
STARTCHAR $5404
ENCODING 21508
SWIDTH 1000 0
DWIDTH 16 0
BBX 15 15 0 -1
BITMAP
0C00
0C00
0FF0
1FF0
3460
66C0
0380
1EF8
F01E
1FF0
1FF0
1830
1830
1FF0
1830
ENDCHAR
STARTCHAR $5406
ENCODING 21510
SWIDTH 1000 0
DWIDTH 16 0
BBX 14 15 1 -1
BITMAP
0060
0060
F8C0
F8C0
C998
CB18
CBF0
CBF0
C860
C8C0
F880
F998
CB18
C7FC
070C
ENDCHAR
STARTCHAR $5408
ENCODING 21512
SWIDTH 1000 0
DWIDTH 16 0
BBX 15 15 0 -1
BITMAP
0300
0300
0780
0CC0
1870
7FFE
EFEC
4000
3FF0
3FF0
3030
3030
3FF0
3FF0
3030
ENDCHAR
STARTCHAR $5409
ENCODING 21513
SWIDTH 1000 0
DWIDTH 16 0
BBX 14 15 1 -1
BITMAP
0300
0300
FFFC
FFFC
0300
0300
7FF8
7FF8
0000
3FF0
3FF0
3030
3FF0
3FF0
3030
ENDCHAR
STARTCHAR $540A
ENCODING 21514
SWIDTH 1000 0
DWIDTH 16 0
BBX 12 14 2 -1
BITMAP
7FE0
7FE0
6060
6060
7FE0
0600
FFF0
FFF0
C630
C630
C630
C6F0
C6E0
0600
ENDCHAR
STARTCHAR $540C
ENCODING 21516
SWIDTH 1000 0
DWIDTH 16 0
BBX 13 14 1 -1
BITMAP
FFF8
FFF8
C018
DFD8
DFD8
C018
CFD8
CFD8
CCD8
CFD8
CFD8
C018
C078
C030
ENDCHAR
STARTCHAR $540D
ENCODING 21517
SWIDTH 1000 0
DWIDTH 16 0
BBX 13 15 1 -1
BITMAP
0C00
0C00
1FF0
3FF0
7060
ECC0
4780
0700
1FF8
FFF8
F818
1818
1FF8
1FF8
1818
ENDCHAR
STARTCHAR $540E
ENCODING 21518
SWIDTH 1000 0
DWIDTH 16 0
BBX 15 15 0 -1
BITMAP
0038
3FF8
3FC0
3000
3FFE
3FFE
3000
3000
3FF8
3FF8
7C18
6C18
EFF8
CFF8
0C18
ENDCHAR
STARTCHAR $540F
ENCODING 21519
SWIDTH 1000 0
DWIDTH 16 0
BBX 15 15 0 -1
BITMAP
0180
0180
7FFC
7FFC
0180
3FF8
3FF8
3198
3FF8
3FF8
1980
0F00
07C0
FCFE
703C
ENDCHAR
STARTCHAR $5410
ENCODING 21520
SWIDTH 1000 0
DWIDTH 16 0
BBX 15 15 0 -1
BITMAP
0060
0060
FC60
FC60
CC60
CFFC
CFFC
CC60
CC60
FC60
FC60
CC60
C060
C7FE
07FE
ENDCHAR
STARTCHAR $5411
ENCODING 21521
SWIDTH 1000 0
DWIDTH 16 0
BBX 12 15 2 -1
BITMAP
0C00
1800
FFF0
FFF0
C030
C030
DFB0
DFB0
D9B0
D9B0
DFB0
DFB0
C030
C0F0
C0E0
ENDCHAR
STARTCHAR $5412
ENCODING 21522
SWIDTH 1000 0
DWIDTH 16 0
BBX 15 15 0 -1
BITMAP
001C
03FC
FBE0
F860
C860
C860
C87E
CFFE
CFE0
C860
F860
F860
C866
007E
003C
ENDCHAR
STARTCHAR $5413
ENCODING 21523
SWIDTH 1000 0
DWIDTH 16 0
BBX 14 14 0 -1
BITMAP
03FC
FBFC
C8C0
C8C0
C8C0
C8D0
C8D8
C8CC
F8C4
F8C0
C8C0
C0C0
00C0
00C0
ENDCHAR
STARTCHAR $5415
ENCODING 21525
SWIDTH 1000 0
DWIDTH 16 0
BBX 12 14 2 -1
BITMAP
7FE0
7FE0
6060
6060
7FE0
7FE0
0000
FFF0
FFF0
C030
C030
FFF0
FFF0
C030
ENDCHAR
STARTCHAR $5416
ENCODING 21526
SWIDTH 1000 0
DWIDTH 16 0
BBX 13 15 1 -1
BITMAP
0618
0318
FB18
F9B0
C9B0
C860
C8C0
C8C0
C8C0
F8C0
F8C0
C8C0
C0C0
00C0
00C0
ENDCHAR
STARTCHAR $5417
ENCODING 21527
SWIDTH 1000 0
DWIDTH 16 0
BBX 14 14 1 -1
BITMAP
FBF0
FBF0
D830
DB30
DB30
DB30
DBFC
DBFC
F80C
FBEC
DBEC
C00C
0078
0030
ENDCHAR
STARTCHAR $541B
ENCODING 21531
SWIDTH 1000 0
DWIDTH 16 0
BBX 15 14 0 -1
BITMAP
3FF8
3FF8
0C18
FFFE
FFFE
0C18
3FF8
0800
1FF8
3FF8
6C18
4FF8
0FF8
0C18
ENDCHAR
STARTCHAR $541D
ENCODING 21533
SWIDTH 1000 0
DWIDTH 16 0
BBX 15 15 0 -1
BITMAP
0300
7FFC
7FFC
0C60
06C0
0380
0FE0
F83E
7FFC
1FF0
1830
1830
1FF0
1FF0
1830
ENDCHAR
STARTCHAR $541E
ENCODING 21534
SWIDTH 1000 0
DWIDTH 16 0
BBX 14 15 1 -1
BITMAP
7FF0
7FF0
0600
0600
FFF8
FFF8
18C0
3060
FFFC
FFEC
3060
3060
3FE0
3FE0
3060
ENDCHAR
STARTCHAR $541F
ENCODING 21535
SWIDTH 1000 0
DWIDTH 16 0
BBX 14 15 1 -1
BITMAP
00C0
00C0
F8E0
F9A0
D930
DB18
DECC
D864
DBF8
FBF8
F830
D830
C060
0060
0040
ENDCHAR
STARTCHAR $5420
ENCODING 21536
SWIDTH 1000 0
DWIDTH 16 0
BBX 14 15 1 -1
BITMAP
00C0
00F0
F8D8
F8D8
D8C0
DFFC
DFFC
D8C0
D8C0
F9E0
F9E0
DB30
C718
0E0C
0C04
ENDCHAR
STARTCHAR $5421
ENCODING 21537
SWIDTH 1000 0
DWIDTH 16 0
BBX 15 15 0 -1
BITMAP
0330
FB30
FB30
DB32
DB36
DBFC
DBF8
DB30
DB30
FB30
FB30
DB70
03F6
03BE
031C
ENDCHAR
STARTCHAR $5423
ENCODING 21539
SWIDTH 1000 0
DWIDTH 16 0
BBX 15 14 0 -1
BITMAP
0060
F030
F010
D0C0
D0C0
D2CC
D2C6
D6C6
D6C2
F4C0
F0CC
C0CC
00FC
0078
ENDCHAR
STARTCHAR $5426
ENCODING 21542
SWIDTH 1000 0
DWIDTH 16 0
BBX 15 14 0 -1
BITMAP
7FFC
7FFC
0380
07E0
1DB8
799E
E186
1FF8
1FF8
1818
1818
1FF8
1FF8
1818
ENDCHAR
STARTCHAR $5427
ENCODING 21543
SWIDTH 1000 0
DWIDTH 16 0
BBX 14 14 1 -1
BITMAP
07F8
F7F8
F6D8
D6D8
D6D8
D6D8
D7F8
D7F8
F600
F600
D60C
C60C
07FC
03F8
ENDCHAR
STARTCHAR $5428
ENCODING 21544
SWIDTH 1000 0
DWIDTH 16 0
BBX 15 15 0 -1
BITMAP
0060
0060
FBFE
FBFE
D860
D860
DB6C
DB6C
DB6C
FBFC
FBFC
D860
C066
007E
003C
ENDCHAR
STARTCHAR $5429
ENCODING 21545
SWIDTH 1000 0
DWIDTH 16 0
BBX 15 14 0 -1
BITMAP
F9B0
F9B0
D998
DB18
DB0C
DFFE
DEF8
F8D8
F8D8
D8D8
C198
0198
0378
0670
ENDCHAR
STARTCHAR $542B
ENCODING 21547
SWIDTH 1000 0
DWIDTH 16 0
BBX 15 15 0 -1
BITMAP
0300
0380
06C0
0C60
3B38
E18E
5FE4
1FE0
00C0
1FF8
1FF8
1818
1FF8
1FF8
1818
ENDCHAR
STARTCHAR $542C
ENCODING 21548
SWIDTH 1000 0
DWIDTH 16 0
BBX 15 15 0 -1
BITMAP
001C
FDFC
FDE0
CD80
CD80
CDFE
CDFE
CD98
CD98
FD98
FD98
CD98
C318
0618
0418
ENDCHAR
STARTCHAR $542D
ENCODING 21549
SWIDTH 1000 0
DWIDTH 16 0
BBX 14 15 1 -1
BITMAP
0180
00C0
FFFC
FFFC
D800
DBF0
DBF0
DB30
DB30
FB30
FB30
DB30
C634
1C3C
181C
ENDCHAR
STARTCHAR $542E
ENCODING 21550
SWIDTH 1000 0
DWIDTH 16 0
BBX 15 15 0 -1
BITMAP
00C0
00C0
F980
F990
DB18
DBFC
DBF4
D9B0
D9B0
F9B0
F9B0
DB30
C636
0C3E
081E
ENDCHAR
STARTCHAR $542F
ENCODING 21551
SWIDTH 1000 0
DWIDTH 16 0
BBX 14 15 0 -1
BITMAP
0300
0180
3FFC
3FFC
300C
3FFC
3FFC
3000
37FC
37FC
360C
660C
67FC
C7FC
860C
ENDCHAR
STARTCHAR $5431
ENCODING 21553
SWIDTH 1000 0
DWIDTH 16 0
BBX 15 15 0 -1
BITMAP
0060
F860
FBFE
CBFE
C860
C860
CBFC
CBFC
C98C
F998
F8F0
C860
C0F0
079E
0606
ENDCHAR
STARTCHAR $5432
ENCODING 21554
SWIDTH 1000 0
DWIDTH 16 0
BBX 14 15 0 -1
BITMAP
000C
FBEC
FBEC
C86C
C86C
CBEC
CB0C
CB0C
CBEC
F86C
F86C
C86C
C06C
03EC
01CC
ENDCHAR
STARTCHAR $5434
ENCODING 21556
SWIDTH 1000 0
DWIDTH 16 0
BBX 14 15 1 -1
BITMAP
7FF0
7FF0
6030
7FF0
7FF0
0000
7FF0
7FF0
0600
FFF8
FFF8
0D80
18C0
F07C
C018
ENDCHAR
STARTCHAR $5435
ENCODING 21557
SWIDTH 1000 0
DWIDTH 16 0
BBX 14 15 1 -1
BITMAP
00C0
00C0
F8C0
FAD0
DAD8
DACC
DEC4
DCC0
D8D8
F8D8
F830
D860
C0C0
0380
0E00
ENDCHAR
STARTCHAR $5438
ENCODING 21560
SWIDTH 1000 0
DWIDTH 16 0
BBX 14 14 1 -1
BITMAP
F7F8
F7F8
D330
D330
D37C
D37C
D398
D398
F6D8
F670
C660
CCF0
1B9C
330C
ENDCHAR
STARTCHAR $5439
ENCODING 21561
SWIDTH 1000 0
DWIDTH 16 0
BBX 14 15 1 -1
BITMAP
0300
0300
FB00
FBFC
DFFC
DE0C
DCD8
D8C0
D8C0
F8C0
F9C0
DB60
C630
1C1C
0808
ENDCHAR
STARTCHAR $543B
ENCODING 21563
SWIDTH 1000 0
DWIDTH 16 0
BBX 15 15 0 -1
BITMAP
0180
0180
F980
F9FE
DBFE
DEB6
D8B6
D9B6
D9B6
FB66
FA66
D8C6
C186
033C
0218
ENDCHAR
STARTCHAR $543C
ENCODING 21564
SWIDTH 1000 0
DWIDTH 16 0
BBX 14 14 1 -1
BITMAP
FFB0
FFB0
D1B0
D330
D330
D330
D3B0
DFB0
FF30
F330
D330
C334
0F3C
0E1C
ENDCHAR
STARTCHAR $543E
ENCODING 21566
SWIDTH 1000 0
DWIDTH 16 0
BBX 14 15 1 -1
BITMAP
7FF8
7FF8
0600
3FF0
3FF0
0C30
FFFC
FFFC
0000
3FF0
3FF0
3030
3FF0
3FF0
3030
ENDCHAR
STARTCHAR $5440
ENCODING 21568
SWIDTH 1000 0
DWIDTH 16 0
BBX 14 14 1 -1
BITMAP
07F8
F7F8
D030
D330
D330
D7FC
D7FC
D1B0
F1B0
D330
D330
C630
0CF0
0060
ENDCHAR
STARTCHAR $5443
ENCODING 21571
SWIDTH 1000 0
DWIDTH 16 0
BBX 15 14 0 -1
BITMAP
FBFE
FBFE
CB00
CB7C
CB7C
CB6C
CB6C
FB6C
FB78
CB60
C360
0666
0C7E
083E
ENDCHAR
STARTCHAR $5446
ENCODING 21574
SWIDTH 1000 0
DWIDTH 16 0
BBX 15 14 0 -1
BITMAP
1FF8
1FF8
1818
1818
1FF8
1FF8
0180
FFFE
FFFE
0DE0
19B0
719E
618C
0180
ENDCHAR
STARTCHAR $5448
ENCODING 21576
SWIDTH 1000 0
DWIDTH 16 0
BBX 14 15 1 -1
BITMAP
3FF0
3FF0
3030
3030
3FF0
3FF0
0000
7FF8
7FF8
0300
3FF0
3FF0
0300
FFFC
FFFC
ENDCHAR
STARTCHAR $544A
ENCODING 21578
SWIDTH 1000 0
DWIDTH 16 0
BBX 14 15 1 -1
BITMAP
0300
3300
3FF0
7FF0
C300
0300
FFFC
FFFC
0000
3FF0
3FF0
3030
3FF0
3FF0
3030
ENDCHAR
STARTCHAR $544B
ENCODING 21579
SWIDTH 1000 0
DWIDTH 16 0
BBX 15 15 0 -1
BITMAP
0060
0060
F860
FBFC
CBFC
C860
C860
CBFE
CBFE
F860
F8F0
C998
C30C
0606
0C02
ENDCHAR
STARTCHAR $5450
ENCODING 21584
SWIDTH 1000 0
DWIDTH 16 0
BBX 14 15 1 -1
BITMAP
00C0
00C0
F7FC
F7FC
D6CC
D6CC
D6CC
D6CC
D7AC
F72C
F60C
D60C
C60C
063C
0618
ENDCHAR
STARTCHAR $5452
ENCODING 21586
SWIDTH 1000 0
DWIDTH 16 0
BBX 15 14 0 -1
BITMAP
FBF8
FBF8
C8C0
C8C0
CFFC
CFFC
C8C0
C8F0
F9B0
F9B0
CB30
0636
0C3E
081E
ENDCHAR
STARTCHAR $5453
ENCODING 21587
SWIDTH 1000 0
DWIDTH 16 0
BBX 15 15 0 -1
BITMAP
0198
0198
FFFE
FFFE
C998
C800
CBF8
CBF8
C860
F8C0
F980
CB00
030C
03FC
01F8
ENDCHAR
STARTCHAR $5454
ENCODING 21588
SWIDTH 1000 0
DWIDTH 16 0
BBX 15 15 0 -1
BITMAP
00C0
00C0
F8C0
F8C0
CFFC
CFFC
C8C0
C8C0
C9E0
F9B0
FB30
CB18
C68C
0CCE
0844
ENDCHAR
STARTCHAR $5455
ENCODING 21589
SWIDTH 1000 0
DWIDTH 16 0
BBX 14 14 1 -1
BITMAP
07F8
F7F8
F600
D730
D7B0
D6E0
D660
D660
D6F0
F798
F718
D600
C7FC
07FC
ENDCHAR
STARTCHAR $5456
ENCODING 21590
SWIDTH 1000 0
DWIDTH 16 0
BBX 15 14 0 -1
BITMAP
FBFE
FBFE
DB60
DB60
DBFC
DBFC
DB6C
FB6C
FB6C
DB6C
C66C
06CC
0D9C
0B18
ENDCHAR
STARTCHAR $5457
ENCODING 21591
SWIDTH 1000 0
DWIDTH 16 0
BBX 14 15 0 -1
BITMAP
03FC
FBFC
FB0C
CB6C
CB6C
CB6C
CB6C
CB6C
CB6C
FB6C
F8C0
C9B0
031C
0E0C
0400
ENDCHAR
STARTCHAR $5458
ENCODING 21592
SWIDTH 1000 0
DWIDTH 16 0
BBX 13 15 1 -1
BITMAP
3FE0
3FE0
3060
3060
3FE0
0000
7FF0
7FF0
6030
6630
6630
6630
0CE0
3838
F018
ENDCHAR
ENDFONT
